<svg version="1.1" xmlns="http://www.w3.org/2000/svg" xmlns:xlink="http://www.w3.org/1999/xlink" width="1220" height="703"><defs><clipPath id="LETCBeNHVFfV"><path fill="none" stroke="none" d=" M 0 0 L 1220 0 L 1220 703 L 0 703 L 0 0 Z"/></clipPath></defs><g transform="scale(1,1)" clip-path="url(#LETCBeNHVFfV)"><g><rect fill="rgb(255,255,255)" stroke="none" x="0" y="0" width="1220" height="703" fill-opacity="1"/><path fill="none" stroke="rgb(21,101,192)" paint-order="fill stroke markers" d=" M 389.90645833333366 328.8173958333457 L 391.0083333333337 430.4653645833447" stroke-opacity="0.8" stroke-linecap="round" stroke-linejoin="round" stroke-miterlimit="10" stroke-width="2.5"/><path fill="none" stroke="rgb(211,47,47)" paint-order="fill stroke markers" d=" M 391.0083333333337 430.4653645833447 L 308.3677083333339 513.1059895833437" stroke-opacity="0.8" stroke-linecap="round" stroke-linejoin="round" stroke-miterlimit="10" stroke-width="2.5"/><path fill="none" stroke="rgb(211,47,47)" paint-order="fill stroke markers" d=" M 391.0083333333337 430.4653645833447 L 473.6489583333335 513.1059895833437" stroke-opacity="0.8" stroke-linecap="round" stroke-linejoin="round" stroke-miterlimit="10" stroke-width="2.5"/><path fill="none" stroke="rgb(21,101,192)" paint-order="fill stroke markers" d=" M 721.468958333333 330.8173958333458 L 722.570833333333 432.4653645833446" stroke-opacity="0.8" stroke-linecap="round" stroke-linejoin="round" stroke-miterlimit="10" stroke-width="2.5"/><path fill="none" stroke="rgb(21,101,192)" paint-order="fill stroke markers" d=" M 722.570833333333 432.4653645833446 L 639.9302083333332 515.1059895833438" stroke-opacity="0.8" stroke-linecap="round" stroke-linejoin="round" stroke-miterlimit="10" stroke-width="2.5"/><path fill="none" stroke="rgb(21,101,192)" paint-order="fill stroke markers" d=" M 722.570833333333 432.4653645833446 L 805.2114583333328 515.1059895833438" stroke-opacity="0.8" stroke-linecap="round" stroke-linejoin="round" stroke-miterlimit="10" stroke-width="2.5"/><path fill="rgb(160,160,160)" stroke="none" paint-order="stroke fill markers" d=" M 400.0083333333337 430.4653645833447 C 400.0083333333337 435.43592733182186 395.9788960818109 439.4653645833447 391.0083333333337 439.4653645833447 C 386.03777058485656 439.4653645833447 382.0083333333337 435.43592733182186 382.0083333333337 430.4653645833447 C 382.0083333333337 425.49480183486753 386.03777058485656 421.4653645833447 391.0083333333337 421.4653645833447 C 395.9788960818109 421.4653645833447 400.0083333333337 425.49480183486753 400.0083333333337 430.4653645833447 Z" fill-opacity="1"/><path fill="none" stroke="rgb(0,0,0)" paint-order="fill stroke markers" d=" M 400.0083333333337 430.4653645833447 C 400.0083333333337 435.43592733182186 395.9788960818109 439.4653645833447 391.0083333333337 439.4653645833447 C 386.03777058485656 439.4653645833447 382.0083333333337 435.43592733182186 382.0083333333337 430.4653645833447 C 382.0083333333337 425.49480183486753 386.03777058485656 421.4653645833447 391.0083333333337 421.4653645833447 C 395.9788960818109 421.4653645833447 400.0083333333337 425.49480183486753 400.0083333333337 430.4653645833447 Z" stroke-opacity="1" stroke-linecap="round" stroke-linejoin="round" stroke-miterlimit="10"/><path fill="rgb(160,160,160)" stroke="none" paint-order="stroke fill markers" d=" M 731.570833333333 432.4653645833446 C 731.570833333333 437.43592733182174 727.5413960818101 441.4653645833446 722.570833333333 441.4653645833446 C 717.6002705848558 441.4653645833446 713.570833333333 437.43592733182174 713.570833333333 432.4653645833446 C 713.570833333333 427.4948018348674 717.6002705848558 423.4653645833446 722.570833333333 423.4653645833446 C 727.5413960818101 423.4653645833446 731.570833333333 427.4948018348674 731.570833333333 432.4653645833446 Z" fill-opacity="1"/><path fill="none" stroke="rgb(0,0,0)" paint-order="fill stroke markers" d=" M 731.570833333333 432.4653645833446 C 731.570833333333 437.43592733182174 727.5413960818101 441.4653645833446 722.570833333333 441.4653645833446 C 717.6002705848558 441.4653645833446 713.570833333333 437.43592733182174 713.570833333333 432.4653645833446 C 713.570833333333 427.4948018348674 717.6002705848558 423.4653645833446 722.570833333333 423.4653645833446 C 727.5413960818101 423.4653645833446 731.570833333333 427.4948018348674 731.570833333333 432.4653645833446 Z" stroke-opacity="1" stroke-linecap="round" stroke-linejoin="round" stroke-miterlimit="10"/><text fill="rgb(0,0,0)" stroke="none" font-family="geogebra-sans-serif, sans-serif" font-size="16px" font-style="normal" font-weight="normal" text-decoration="normal" x="351" y="508" text-anchor="start" dominant-baseline="alphabetic" fill-opacity="1">AND vertex</text><text fill="rgb(0,0,0)" stroke="none" font-family="geogebra-sans-serif, sans-serif" font-size="16px" font-style="normal" font-weight="normal" text-decoration="normal" x="688" y="509" text-anchor="start" dominant-baseline="alphabetic" fill-opacity="1">OR vertex</text></g></g></svg>