<svg version="1.1" xmlns="http://www.w3.org/2000/svg" xmlns:xlink="http://www.w3.org/1999/xlink" width="1220" height="654"><defs><clipPath id="hInUtETVnbpC"><path fill="none" stroke="none" d=" M 0 0 L 1220 0 L 1220 654 L 0 654 L 0 0 Z"/></clipPath></defs><g transform="scale(1,1)" clip-path="url(#hInUtETVnbpC)"><g><rect fill="rgb(255,255,255)" stroke="none" x="0" y="0" width="1220" height="654" fill-opacity="1"/><path fill="none" stroke="rgb(21,101,192)" paint-order="fill stroke markers" d=" M 390.8981250000003 186.85203125000123 L 392 288.4999999999999" stroke-opacity="0.8" stroke-linecap="round" stroke-linejoin="round" stroke-miterlimit="10" stroke-width="2.5"/><path fill="none" stroke="rgb(211,47,47)" paint-order="fill stroke markers" d=" M 392 288.4999999999999 L 309.35937500000017 371.1406249999989" stroke-opacity="0.8" stroke-linecap="round" stroke-linejoin="round" stroke-miterlimit="10" stroke-width="2.5"/><path fill="none" stroke="rgb(211,47,47)" paint-order="fill stroke markers" d=" M 392 288.4999999999999 L 474.64062499999983 371.1406249999989" stroke-opacity="0.8" stroke-linecap="round" stroke-linejoin="round" stroke-miterlimit="10" stroke-width="2.5"/><path fill="none" stroke="rgb(21,101,192)" paint-order="fill stroke markers" d=" M 723.4689583333322 190.0205208333408 L 724.570833333333 291.6684895833396" stroke-opacity="0.8" stroke-linecap="round" stroke-linejoin="round" stroke-miterlimit="10" stroke-width="2.5"/><path fill="none" stroke="rgb(211,47,47)" paint-order="fill stroke markers" d=" M 724.570833333333 291.6684895833396 L 641.9302083333332 374.30911458333856" stroke-opacity="0.8" stroke-linecap="round" stroke-linejoin="round" stroke-miterlimit="10" stroke-width="2.5"/><path fill="none" stroke="rgb(211,47,47)" paint-order="fill stroke markers" d=" M 724.570833333333 291.6684895833396 L 807.2114583333328 374.30911458333856" stroke-opacity="0.8" stroke-linecap="round" stroke-linejoin="round" stroke-miterlimit="10" stroke-width="2.5"/><path fill="none" stroke="rgb(0,0,0)" paint-order="fill stroke markers" d=" M 526.1475 292.27546875 L 602.8080513484772 293.1773575893939" stroke-opacity="0.8" stroke-linecap="round" stroke-linejoin="round" stroke-miterlimit="10" stroke-width="2.5"/><path fill="rgb(0,0,0)" stroke="none" paint-order="stroke fill markers" fill-rule="evenodd" d=" M 619.8068749999999 293.3773437500001 L 602.7580548083256 297.42706350227456 L 602.8580478886288 288.9276516765133 Z" fill-opacity="0.8"/><path fill="rgb(160,160,160)" stroke="none" paint-order="stroke fill markers" d=" M 401 288.4999999999999 C 401 293.47056274847705 396.97056274847716 297.4999999999999 392 297.4999999999999 C 387.02943725152284 297.4999999999999 383 293.47056274847705 383 288.4999999999999 C 383 283.5294372515227 387.02943725152284 279.4999999999999 392 279.4999999999999 C 396.97056274847716 279.4999999999999 401 283.5294372515227 401 288.4999999999999 Z" fill-opacity="1"/><path fill="none" stroke="rgb(0,0,0)" paint-order="fill stroke markers" d=" M 401 288.4999999999999 C 401 293.47056274847705 396.97056274847716 297.4999999999999 392 297.4999999999999 C 387.02943725152284 297.4999999999999 383 293.47056274847705 383 288.4999999999999 C 383 283.5294372515227 387.02943725152284 279.4999999999999 392 279.4999999999999 C 396.97056274847716 279.4999999999999 401 283.5294372515227 401 288.4999999999999 Z" stroke-opacity="1" stroke-linecap="round" stroke-linejoin="round" stroke-miterlimit="10"/><path fill="none" stroke="rgb(255,0,0)" paint-order="fill stroke markers" d=" M 343.062734374998 332.4372656250014 L 350.562734374998 336.7673926439236 L 350.562734374998 328.10713860607916 L 343.062734374998 332.4372656250014 Z" stroke-opacity="1" stroke-linecap="square" stroke-miterlimit="10" stroke-width="2.5"/><path fill="rgb(255,0,0)" stroke="none" paint-order="stroke fill markers" fill-rule="evenodd" d=" M 343.062734374998 332.4372656250014 L 350.562734374998 336.7673926439236 L 350.562734374998 328.10713860607916 L 343.062734374998 332.4372656250014 Z" fill-opacity="1"/><path fill="none" stroke="rgb(255,0,0)" paint-order="fill stroke markers" d=" M 442.5900781249971 334.0900781249965 L 435.0900781249971 338.42020514391874 L 435.0900781249971 329.7599511060743 L 442.5900781249971 334.0900781249965 Z" stroke-opacity="1" stroke-linecap="square" stroke-miterlimit="10" stroke-width="2.5"/><path fill="rgb(255,0,0)" stroke="none" paint-order="stroke fill markers" fill-rule="evenodd" d=" M 442.5900781249971 334.0900781249965 L 435.0900781249971 338.42020514391874 L 435.0900781249971 329.7599511060743 L 442.5900781249971 334.0900781249965 Z" fill-opacity="1"/><path fill="rgb(160,160,160)" stroke="none" paint-order="stroke fill markers" d=" M 733.570833333333 291.6684895833396 C 733.570833333333 296.63905233181674 729.5413960818101 300.6684895833396 724.570833333333 300.6684895833396 C 719.6002705848558 300.6684895833396 715.570833333333 296.63905233181674 715.570833333333 291.6684895833396 C 715.570833333333 286.6979268348624 719.6002705848558 282.6684895833396 724.570833333333 282.6684895833396 C 729.5413960818101 282.6684895833396 733.570833333333 286.6979268348624 733.570833333333 291.6684895833396 Z" fill-opacity="1"/><path fill="none" stroke="rgb(0,0,0)" paint-order="fill stroke markers" d=" M 733.570833333333 291.6684895833396 C 733.570833333333 296.63905233181674 729.5413960818101 300.6684895833396 724.570833333333 300.6684895833396 C 719.6002705848558 300.6684895833396 715.570833333333 296.63905233181674 715.570833333333 291.6684895833396 C 715.570833333333 286.6979268348624 719.6002705848558 282.6684895833396 724.570833333333 282.6684895833396 C 729.5413960818101 282.6684895833396 733.570833333333 286.6979268348624 733.570833333333 291.6684895833396 Z" stroke-opacity="1" stroke-linecap="round" stroke-linejoin="round" stroke-miterlimit="10"/><path fill="none" stroke="rgb(255,0,0)" paint-order="fill stroke markers" d=" M 675.6335677083332 335.6057552083389 L 683.1335677083332 339.9358822272611 L 683.1335677083332 331.2756281894167 L 675.6335677083332 335.6057552083389 Z" stroke-opacity="1" stroke-linecap="square" stroke-miterlimit="10" stroke-width="2.5"/><path fill="rgb(255,0,0)" stroke="none" paint-order="stroke fill markers" fill-rule="evenodd" d=" M 675.6335677083332 335.6057552083389 L 683.1335677083332 339.9358822272611 L 683.1335677083332 331.2756281894167 L 675.6335677083332 335.6057552083389 Z" fill-opacity="1"/><path fill="none" stroke="rgb(255,0,0)" paint-order="fill stroke markers" d=" M 775.160911458333 337.25856770833917 L 767.660911458333 341.5886947272614 L 767.660911458333 332.92844068941696 L 775.160911458333 337.25856770833917 Z" stroke-opacity="1" stroke-linecap="square" stroke-miterlimit="10" stroke-width="2.5"/><path fill="rgb(255,0,0)" stroke="none" paint-order="stroke fill markers" fill-rule="evenodd" d=" M 775.160911458333 337.25856770833917 L 767.660911458333 341.5886947272614 L 767.660911458333 332.92844068941696 L 775.160911458333 337.25856770833917 Z" fill-opacity="1"/><path fill="none" stroke="rgb(21,101,192)" paint-order="fill stroke markers" d=" M 724.015352461012 235.42537911176623 L 728.3454794799342 242.92537911176623 L 719.6852254420897 242.92537911176623 L 724.015352461012 235.42537911176623 Z" stroke-opacity="1" stroke-linecap="square" stroke-miterlimit="10" stroke-width="2.5"/><path fill="rgb(21,101,192)" stroke="none" paint-order="stroke fill markers" fill-rule="evenodd" d=" M 724.015352461012 235.42537911176623 L 728.3454794799342 242.92537911176623 L 719.6852254420897 242.92537911176623 L 724.015352461012 235.42537911176623 Z" fill-opacity="1"/><text fill="rgb(0,0,0)" stroke="none" font-family="geogebra-sans-serif, sans-serif" font-size="16px" font-style="normal" font-weight="normal" text-decoration="normal" x="351" y="-43" text-anchor="start" dominant-baseline="alphabetic" fill-opacity="1">AND vertex</text><text fill="rgb(0,0,0)" stroke="none" font-family="geogebra-sans-serif, sans-serif" font-size="16px" font-style="normal" font-weight="normal" text-decoration="normal" x="688" y="-42" text-anchor="start" dominant-baseline="alphabetic" fill-opacity="1">OR vertex</text></g></g></svg>