<svg version="1.1" xmlns="http://www.w3.org/2000/svg" xmlns:xlink="http://www.w3.org/1999/xlink" width="1220" height="654"><defs><clipPath id="gVmquQkxbbhl"><path fill="none" stroke="none" d=" M 0 0 L 1220 0 L 1220 654 L 0 654 L 0 0 Z"/></clipPath></defs><g transform="scale(1,1)" clip-path="url(#gVmquQkxbbhl)"><g><rect fill="rgb(255,255,255)" stroke="none" x="0" y="0" width="1220" height="654" fill-opacity="1"/><path fill="none" stroke="rgb(211,47,47)" paint-order="fill stroke markers" d=" M 459.99999999999955 109.25000000000011 L 459.99999999999955 184.2500000000001" stroke-opacity="0.8" stroke-linecap="round" stroke-linejoin="round" stroke-miterlimit="10" stroke-width="2.5"/><path fill="none" stroke="rgb(211,47,47)" paint-order="fill stroke markers" d=" M 609.9999999999993 109.25000000000011 L 609.9999999999993 184.2500000000001" stroke-opacity="0.8" stroke-linecap="round" stroke-linejoin="round" stroke-miterlimit="10" stroke-width="2.5"/><path fill="none" stroke="rgb(211,47,47)" paint-order="fill stroke markers" d=" M 459.99999999999955 184.2500000000001 L 609.9999999999993 184.2500000000001" stroke-opacity="0.8" stroke-linecap="round" stroke-linejoin="round" stroke-miterlimit="10" stroke-width="2.5"/><path fill="none" stroke="rgb(21,101,192)" paint-order="fill stroke markers" d=" M 609.9999999999993 184.2500000000001 L 534.9999999999994 259.2500000000001" stroke-opacity="0.8" stroke-linecap="round" stroke-linejoin="round" stroke-miterlimit="10" stroke-width="2.5"/><path fill="none" stroke="rgb(21,101,192)" paint-order="fill stroke markers" d=" M 534.9999999999994 259.2500000000001 L 459.99999999999955 184.2500000000001" stroke-opacity="0.8" stroke-linecap="round" stroke-linejoin="round" stroke-miterlimit="10" stroke-width="2.5"/><path fill="none" stroke="rgb(21,101,192)" paint-order="fill stroke markers" d=" M 534.9999999999994 259.2500000000001 L 534.9999999999994 334.25000000000006" stroke-opacity="0.8" stroke-linecap="round" stroke-linejoin="round" stroke-miterlimit="10" stroke-width="2.5"/><path fill="none" stroke="rgb(211,47,47)" paint-order="fill stroke markers" d=" M 534.9999999999994 334.25000000000006 L 534.9999999999994 409.25000000000006" stroke-opacity="0.8" stroke-linecap="round" stroke-linejoin="round" stroke-miterlimit="10" stroke-width="2.5"/><path fill="none" stroke="rgb(211,47,47)" paint-order="fill stroke markers" d=" M 459.99999999999955 409.25000000000006 L 534.9999999999994 409.25000000000006" stroke-opacity="0.8" stroke-linecap="round" stroke-linejoin="round" stroke-miterlimit="10" stroke-width="2.5"/><path fill="none" stroke="rgb(21,101,192)" paint-order="fill stroke markers" d=" M 534.9999999999994 409.25000000000006 L 684.9999999999992 409.25000000000006" stroke-opacity="0.8" stroke-linecap="round" stroke-linejoin="round" stroke-miterlimit="10" stroke-width="2.5"/><path fill="none" stroke="rgb(21,101,192)" paint-order="fill stroke markers" d=" M 384.9999999999996 484.25000000000006 L 684.9999999999992 484.25000000000006" stroke-opacity="0.8" stroke-linecap="round" stroke-linejoin="round" stroke-miterlimit="10" stroke-width="2.5"/><path fill="none" stroke="rgb(21,101,192)" paint-order="fill stroke markers" d=" M 459.99999999999955 409.25000000000006 L 384.9999999999996 409.25000000000006" stroke-opacity="0.8" stroke-linecap="round" stroke-linejoin="round" stroke-miterlimit="10" stroke-width="2.5"/><path fill="rgb(160,160,160)" stroke="none" paint-order="stroke fill markers" d=" M 468.99999999999955 184.2500000000001 C 468.99999999999955 189.22056274847725 464.9705627484767 193.2500000000001 459.99999999999955 193.2500000000001 C 455.0294372515224 193.2500000000001 450.99999999999955 189.22056274847725 450.99999999999955 184.2500000000001 C 450.99999999999955 179.27943725152298 455.0294372515224 175.2500000000001 459.99999999999955 175.2500000000001 C 464.9705627484767 175.2500000000001 468.99999999999955 179.27943725152298 468.99999999999955 184.2500000000001 Z" fill-opacity="1"/><path fill="none" stroke="rgb(0,0,0)" paint-order="fill stroke markers" d=" M 468.99999999999955 184.2500000000001 C 468.99999999999955 189.22056274847725 464.9705627484767 193.2500000000001 459.99999999999955 193.2500000000001 C 455.0294372515224 193.2500000000001 450.99999999999955 189.22056274847725 450.99999999999955 184.2500000000001 C 450.99999999999955 179.27943725152298 455.0294372515224 175.2500000000001 459.99999999999955 175.2500000000001 C 464.9705627484767 175.2500000000001 468.99999999999955 179.27943725152298 468.99999999999955 184.2500000000001 Z" stroke-opacity="1" stroke-linecap="round" stroke-linejoin="round" stroke-miterlimit="10"/><path fill="rgb(160,160,160)" stroke="none" paint-order="stroke fill markers" d=" M 618.9999999999993 184.2500000000001 C 618.9999999999993 189.22056274847725 614.9705627484765 193.2500000000001 609.9999999999993 193.2500000000001 C 605.0294372515222 193.2500000000001 600.9999999999993 189.22056274847725 600.9999999999993 184.2500000000001 C 600.9999999999993 179.27943725152298 605.0294372515222 175.2500000000001 609.9999999999993 175.2500000000001 C 614.9705627484765 175.2500000000001 618.9999999999993 179.27943725152298 618.9999999999993 184.2500000000001 Z" fill-opacity="1"/><path fill="none" stroke="rgb(0,0,0)" paint-order="fill stroke markers" d=" M 618.9999999999993 184.2500000000001 C 618.9999999999993 189.22056274847725 614.9705627484765 193.2500000000001 609.9999999999993 193.2500000000001 C 605.0294372515222 193.2500000000001 600.9999999999993 189.22056274847725 600.9999999999993 184.2500000000001 C 600.9999999999993 179.27943725152298 605.0294372515222 175.2500000000001 609.9999999999993 175.2500000000001 C 614.9705627484765 175.2500000000001 618.9999999999993 179.27943725152298 618.9999999999993 184.2500000000001 Z" stroke-opacity="1" stroke-linecap="round" stroke-linejoin="round" stroke-miterlimit="10"/><path fill="rgb(160,160,160)" stroke="none" paint-order="stroke fill markers" d=" M 543.9999999999994 259.2500000000001 C 543.9999999999994 264.2205627484773 539.9705627484766 268.2500000000001 534.9999999999994 268.2500000000001 C 530.0294372515223 268.2500000000001 525.9999999999994 264.2205627484773 525.9999999999994 259.2500000000001 C 525.9999999999994 254.27943725152298 530.0294372515223 250.2500000000001 534.9999999999994 250.2500000000001 C 539.9705627484766 250.2500000000001 543.9999999999994 254.27943725152298 543.9999999999994 259.2500000000001 Z" fill-opacity="1"/><path fill="none" stroke="rgb(0,0,0)" paint-order="fill stroke markers" d=" M 543.9999999999994 259.2500000000001 C 543.9999999999994 264.2205627484773 539.9705627484766 268.2500000000001 534.9999999999994 268.2500000000001 C 530.0294372515223 268.2500000000001 525.9999999999994 264.2205627484773 525.9999999999994 259.2500000000001 C 525.9999999999994 254.27943725152298 530.0294372515223 250.2500000000001 534.9999999999994 250.2500000000001 C 539.9705627484766 250.2500000000001 543.9999999999994 254.27943725152298 543.9999999999994 259.2500000000001 Z" stroke-opacity="1" stroke-linecap="round" stroke-linejoin="round" stroke-miterlimit="10"/><path fill="rgb(160,160,160)" stroke="none" paint-order="stroke fill markers" d=" M 539.9999999999994 334.25000000000006 C 539.9999999999994 337.011423749154 537.7614237491534 339.25000000000006 534.9999999999994 339.25000000000006 C 532.2385762508454 339.25000000000006 529.9999999999994 337.011423749154 529.9999999999994 334.25000000000006 C 529.9999999999994 331.4885762508461 532.2385762508454 329.25000000000006 534.9999999999994 329.25000000000006 C 537.7614237491534 329.25000000000006 539.9999999999994 331.4885762508461 539.9999999999994 334.25000000000006 Z" fill-opacity="1"/><path fill="none" stroke="rgb(0,0,0)" paint-order="fill stroke markers" d=" M 539.9999999999994 334.25000000000006 C 539.9999999999994 337.011423749154 537.7614237491534 339.25000000000006 534.9999999999994 339.25000000000006 C 532.2385762508454 339.25000000000006 529.9999999999994 337.011423749154 529.9999999999994 334.25000000000006 C 529.9999999999994 331.4885762508461 532.2385762508454 329.25000000000006 534.9999999999994 329.25000000000006 C 537.7614237491534 329.25000000000006 539.9999999999994 331.4885762508461 539.9999999999994 334.25000000000006 Z" stroke-opacity="1" stroke-linecap="round" stroke-linejoin="round" stroke-miterlimit="10"/><path fill="rgb(160,160,160)" stroke="none" paint-order="stroke fill markers" d=" M 543.9999999999994 409.25000000000006 C 543.9999999999994 414.2205627484772 539.9705627484766 418.25000000000006 534.9999999999994 418.25000000000006 C 530.0294372515223 418.25000000000006 525.9999999999994 414.2205627484772 525.9999999999994 409.25000000000006 C 525.9999999999994 404.2794372515229 530.0294372515223 400.25000000000006 534.9999999999994 400.25000000000006 C 539.9705627484766 400.25000000000006 543.9999999999994 404.2794372515229 543.9999999999994 409.25000000000006 Z" fill-opacity="1"/><path fill="none" stroke="rgb(0,0,0)" paint-order="fill stroke markers" d=" M 543.9999999999994 409.25000000000006 C 543.9999999999994 414.2205627484772 539.9705627484766 418.25000000000006 534.9999999999994 418.25000000000006 C 530.0294372515223 418.25000000000006 525.9999999999994 414.2205627484772 525.9999999999994 409.25000000000006 C 525.9999999999994 404.2794372515229 530.0294372515223 400.25000000000006 534.9999999999994 400.25000000000006 C 539.9705627484766 400.25000000000006 543.9999999999994 404.2794372515229 543.9999999999994 409.25000000000006 Z" stroke-opacity="1" stroke-linecap="round" stroke-linejoin="round" stroke-miterlimit="10"/><path fill="rgb(160,160,160)" stroke="none" paint-order="stroke fill markers" d=" M 464.99999999999955 409.25000000000006 C 464.99999999999955 412.011423749154 462.7614237491535 414.25000000000006 459.99999999999955 414.25000000000006 C 457.2385762508456 414.25000000000006 454.99999999999955 412.011423749154 454.99999999999955 409.25000000000006 C 454.99999999999955 406.4885762508461 457.2385762508456 404.25000000000006 459.99999999999955 404.25000000000006 C 462.7614237491535 404.25000000000006 464.99999999999955 406.4885762508461 464.99999999999955 409.25000000000006 Z" fill-opacity="1"/><path fill="none" stroke="rgb(0,0,0)" paint-order="fill stroke markers" d=" M 464.99999999999955 409.25000000000006 C 464.99999999999955 412.011423749154 462.7614237491535 414.25000000000006 459.99999999999955 414.25000000000006 C 457.2385762508456 414.25000000000006 454.99999999999955 412.011423749154 454.99999999999955 409.25000000000006 C 454.99999999999955 406.4885762508461 457.2385762508456 404.25000000000006 459.99999999999955 404.25000000000006 C 462.7614237491535 404.25000000000006 464.99999999999955 406.4885762508461 464.99999999999955 409.25000000000006 Z" stroke-opacity="1" stroke-linecap="round" stroke-linejoin="round" stroke-miterlimit="10"/><g transform="scale(19,19)"><g transform="translate(23.42105263157895,8.062133947368421)"><path fill="rgb(0,0,0)" stroke="none" paint-order="stroke fill markers" d=" M 0.334 -0.302 L 0.3 -0.165 Q 0.28300000000000003 -0.097 0.28300000000000003 -0.077 Q 0.28300000000000003 -0.025 0.32 -0.014 Q 0.328 -0.011 0.338 -0.011 Q 0.388 -0.011 0.429 -0.061 Q 0.456 -0.093 0.47100000000000003 -0.14200000000000002 Q 0.47400000000000003 -0.153 0.484 -0.153 Q 0.496 -0.153 0.496 -0.14300000000000002 Q 0.496 -0.11800000000000001 0.465 -0.07100000000000001 Q 0.41100000000000003 0.011 0.336 0.011 Q 0.268 0.011 0.23700000000000002 -0.046 Q 0.231 -0.055 0.228 -0.065 Q 0.20400000000000001 -0.017 0.162 0.002 Q 0.14300000000000002 0.011 0.123 0.011 Q 0.063 0.011 0.039 -0.024 Q 0.029 -0.037 0.029 -0.055 Q 0.029 -0.092 0.061 -0.107 Q 0.07200000000000001 -0.113 0.084 -0.113 Q 0.114 -0.113 0.12 -0.088 Q 0.121 -0.083 0.121 -0.078 Q 0.121 -0.044 0.08700000000000001 -0.028 Q 0.081 -0.025 0.074 -0.024 Q 0.095 -0.011 0.124 -0.011 Q 0.177 -0.011 0.20800000000000002 -0.082 Q 0.214 -0.097 0.219 -0.115 Q 0.273 -0.319 0.273 -0.353 Q 0.267 -0.41500000000000004 0.219 -0.42 Q 0.167 -0.42 0.124 -0.367 L 0.124 -0.366 Q 0.124 -0.365 0.123 -0.365 Q 0.108 -0.34500000000000003 0.096 -0.319 Q 0.091 -0.307 0.08700000000000001 -0.295 L 0.085 -0.289 Q 0.083 -0.278 0.07200000000000001 -0.278 Q 0.06 -0.278 0.06 -0.28800000000000003 Q 0.06 -0.313 0.092 -0.36 Q 0.146 -0.442 0.221 -0.442 Q 0.298 -0.442 0.329 -0.366 Q 0.361 -0.428 0.41400000000000003 -0.44 Q 0.424 -0.442 0.434 -0.442 Q 0.493 -0.442 0.517 -0.40900000000000003 Q 0.527 -0.395 0.527 -0.376 Q 0.527 -0.335 0.49 -0.321 Q 0.481 -0.318 0.47300000000000003 -0.318 Q 0.442 -0.318 0.436 -0.34500000000000003 Q 0.435 -0.34900000000000003 0.435 -0.353 Q 0.435 -0.383 0.464 -0.4 Q 0.47300000000000003 -0.405 0.483 -0.40700000000000003 Q 0.462 -0.42 0.433 -0.42 Q 0.365 -0.42 0.337 -0.314 Q 0.335 -0.308 0.334 -0.302 Z"/></g></g><g transform="scale(19,19)"><g transform="translate(30.68421052631579,8.062133947368421)"><path fill="rgb(0,0,0)" stroke="none" paint-order="stroke fill markers" d=" M 0.61 -0.323 L 0.61 -0.122 Q 0.605 -0.092 0.59 -0.089 Q 0.5700000000000001 -0.089 0.5700000000000001 -0.122 L 0.5700000000000001 -0.316 L 0.089 -0.316 Q 0.057 -0.316 0.056 -0.336 Q 0.056 -0.356 0.089 -0.356 L 0.577 -0.356 Q 0.604 -0.356 0.608 -0.34400000000000003 L 0.608 -0.34400000000000003 Q 0.61 -0.338 0.61 -0.323 Z"/></g><g transform="translate(31.35087952631579,8.062133947368421)"><path fill="rgb(0,0,0)" stroke="none" paint-order="stroke fill markers" d=" M 0.334 -0.302 L 0.3 -0.165 Q 0.28300000000000003 -0.097 0.28300000000000003 -0.077 Q 0.28300000000000003 -0.025 0.32 -0.014 Q 0.328 -0.011 0.338 -0.011 Q 0.388 -0.011 0.429 -0.061 Q 0.456 -0.093 0.47100000000000003 -0.14200000000000002 Q 0.47400000000000003 -0.153 0.484 -0.153 Q 0.496 -0.153 0.496 -0.14300000000000002 Q 0.496 -0.11800000000000001 0.465 -0.07100000000000001 Q 0.41100000000000003 0.011 0.336 0.011 Q 0.268 0.011 0.23700000000000002 -0.046 Q 0.231 -0.055 0.228 -0.065 Q 0.20400000000000001 -0.017 0.162 0.002 Q 0.14300000000000002 0.011 0.123 0.011 Q 0.063 0.011 0.039 -0.024 Q 0.029 -0.037 0.029 -0.055 Q 0.029 -0.092 0.061 -0.107 Q 0.07200000000000001 -0.113 0.084 -0.113 Q 0.114 -0.113 0.12 -0.088 Q 0.121 -0.083 0.121 -0.078 Q 0.121 -0.044 0.08700000000000001 -0.028 Q 0.081 -0.025 0.074 -0.024 Q 0.095 -0.011 0.124 -0.011 Q 0.177 -0.011 0.20800000000000002 -0.082 Q 0.214 -0.097 0.219 -0.115 Q 0.273 -0.319 0.273 -0.353 Q 0.267 -0.41500000000000004 0.219 -0.42 Q 0.167 -0.42 0.124 -0.367 L 0.124 -0.366 Q 0.124 -0.365 0.123 -0.365 Q 0.108 -0.34500000000000003 0.096 -0.319 Q 0.091 -0.307 0.08700000000000001 -0.295 L 0.085 -0.289 Q 0.083 -0.278 0.07200000000000001 -0.278 Q 0.06 -0.278 0.06 -0.28800000000000003 Q 0.06 -0.313 0.092 -0.36 Q 0.146 -0.442 0.221 -0.442 Q 0.298 -0.442 0.329 -0.366 Q 0.361 -0.428 0.41400000000000003 -0.44 Q 0.424 -0.442 0.434 -0.442 Q 0.493 -0.442 0.517 -0.40900000000000003 Q 0.527 -0.395 0.527 -0.376 Q 0.527 -0.335 0.49 -0.321 Q 0.481 -0.318 0.47300000000000003 -0.318 Q 0.442 -0.318 0.436 -0.34500000000000003 Q 0.435 -0.34900000000000003 0.435 -0.353 Q 0.435 -0.383 0.464 -0.4 Q 0.47300000000000003 -0.405 0.483 -0.40700000000000003 Q 0.462 -0.42 0.433 -0.42 Q 0.365 -0.42 0.337 -0.314 Q 0.335 -0.308 0.334 -0.302 Z"/></g></g><text fill="rgb(0,0,0)" stroke="none" font-family="geogebra-sans-serif, sans-serif" font-size="16px" font-style="normal" font-weight="bold" text-decoration="normal" x="384" y="400" text-anchor="start" dominant-baseline="alphabetic" fill-opacity="1">try in</text><text fill="rgb(0,0,0)" stroke="none" font-family="geogebra-sans-serif, sans-serif" font-size="16px" font-style="normal" font-weight="bold" text-decoration="normal" x="624" y="402" text-anchor="start" dominant-baseline="alphabetic" fill-opacity="1">try out</text><text fill="rgb(0,0,0)" stroke="none" font-family="geogebra-sans-serif, sans-serif" font-size="16px" font-style="normal" font-weight="bold" text-decoration="normal" x="384" y="476" text-anchor="start" dominant-baseline="alphabetic" fill-opacity="1">satisfied out</text><text fill="rgb(0,0,0)" stroke="none" font-family="geogebra-sans-serif, sans-serif" font-size="16px" font-style="normal" font-weight="bold" text-decoration="normal" x="591" y="475" text-anchor="start" dominant-baseline="alphabetic" fill-opacity="1">satisfied in</text></g></g></svg>