<svg version="1.1" xmlns="http://www.w3.org/2000/svg" xmlns:xlink="http://www.w3.org/1999/xlink" width="1220" height="654"><defs><clipPath id="AATkNzETHtxu"><path fill="none" stroke="none" d=" M 0 0 L 1220 0 L 1220 654 L 0 654 L 0 0 Z"/></clipPath></defs><g transform="scale(1,1)" clip-path="url(#AATkNzETHtxu)"><g><rect fill="rgb(255,255,255)" stroke="none" x="0" y="0" width="1220" height="654" fill-opacity="1"/><path fill="none" stroke="rgb(211,47,47)" paint-order="fill stroke markers" d=" M 404.99999999999955 230.2499999999999 L 404.99999999999955 305.2499999999999" stroke-opacity="0.8" stroke-linecap="round" stroke-linejoin="round" stroke-miterlimit="10" stroke-width="2.5"/><path fill="none" stroke="rgb(211,47,47)" paint-order="fill stroke markers" d=" M 554.9999999999993 230.2499999999999 L 554.9999999999993 305.2499999999999" stroke-opacity="0.8" stroke-linecap="round" stroke-linejoin="round" stroke-miterlimit="10" stroke-width="2.5"/><path fill="none" stroke="rgb(211,47,47)" paint-order="fill stroke markers" d=" M 404.99999999999955 305.2499999999999 L 554.9999999999993 305.2499999999999" stroke-opacity="0.8" stroke-linecap="round" stroke-linejoin="round" stroke-miterlimit="10" stroke-width="2.5"/><path fill="none" stroke="rgb(21,101,192)" paint-order="fill stroke markers" d=" M 554.9999999999993 305.2499999999999 L 479.99999999999943 380.24999999999994" stroke-opacity="0.8" stroke-linecap="round" stroke-linejoin="round" stroke-miterlimit="10" stroke-width="2.5"/><path fill="none" stroke="rgb(21,101,192)" paint-order="fill stroke markers" d=" M 479.99999999999943 380.24999999999994 L 404.99999999999955 305.2499999999999" stroke-opacity="0.8" stroke-linecap="round" stroke-linejoin="round" stroke-miterlimit="10" stroke-width="2.5"/><path fill="none" stroke="rgb(21,101,192)" paint-order="fill stroke markers" d=" M 479.99999999999943 380.24999999999994 L 479.99999999999943 455.25" stroke-opacity="0.8" stroke-linecap="round" stroke-linejoin="round" stroke-miterlimit="10" stroke-width="2.5"/><path fill="rgb(160,160,160)" stroke="none" paint-order="stroke fill markers" d=" M 413.99999999999955 305.2499999999999 C 413.99999999999955 310.22056274847705 409.9705627484767 314.2499999999999 404.99999999999955 314.2499999999999 C 400.0294372515224 314.2499999999999 395.99999999999955 310.22056274847705 395.99999999999955 305.2499999999999 C 395.99999999999955 300.2794372515227 400.0294372515224 296.2499999999999 404.99999999999955 296.2499999999999 C 409.9705627484767 296.2499999999999 413.99999999999955 300.2794372515227 413.99999999999955 305.2499999999999 Z" fill-opacity="1"/><path fill="none" stroke="rgb(0,0,0)" paint-order="fill stroke markers" d=" M 413.99999999999955 305.2499999999999 C 413.99999999999955 310.22056274847705 409.9705627484767 314.2499999999999 404.99999999999955 314.2499999999999 C 400.0294372515224 314.2499999999999 395.99999999999955 310.22056274847705 395.99999999999955 305.2499999999999 C 395.99999999999955 300.2794372515227 400.0294372515224 296.2499999999999 404.99999999999955 296.2499999999999 C 409.9705627484767 296.2499999999999 413.99999999999955 300.2794372515227 413.99999999999955 305.2499999999999 Z" stroke-opacity="1" stroke-linecap="round" stroke-linejoin="round" stroke-miterlimit="10"/><path fill="rgb(160,160,160)" stroke="none" paint-order="stroke fill markers" d=" M 563.9999999999993 305.2499999999999 C 563.9999999999993 310.22056274847705 559.9705627484765 314.2499999999999 554.9999999999993 314.2499999999999 C 550.0294372515222 314.2499999999999 545.9999999999993 310.22056274847705 545.9999999999993 305.2499999999999 C 545.9999999999993 300.2794372515227 550.0294372515222 296.2499999999999 554.9999999999993 296.2499999999999 C 559.9705627484765 296.2499999999999 563.9999999999993 300.2794372515227 563.9999999999993 305.2499999999999 Z" fill-opacity="1"/><path fill="none" stroke="rgb(0,0,0)" paint-order="fill stroke markers" d=" M 563.9999999999993 305.2499999999999 C 563.9999999999993 310.22056274847705 559.9705627484765 314.2499999999999 554.9999999999993 314.2499999999999 C 550.0294372515222 314.2499999999999 545.9999999999993 310.22056274847705 545.9999999999993 305.2499999999999 C 545.9999999999993 300.2794372515227 550.0294372515222 296.2499999999999 554.9999999999993 296.2499999999999 C 559.9705627484765 296.2499999999999 563.9999999999993 300.2794372515227 563.9999999999993 305.2499999999999 Z" stroke-opacity="1" stroke-linecap="round" stroke-linejoin="round" stroke-miterlimit="10"/><path fill="rgb(160,160,160)" stroke="none" paint-order="stroke fill markers" d=" M 488.99999999999943 380.24999999999994 C 488.99999999999943 385.2205627484771 484.9705627484766 389.24999999999994 479.99999999999943 389.24999999999994 C 475.02943725152227 389.24999999999994 470.99999999999943 385.2205627484771 470.99999999999943 380.24999999999994 C 470.99999999999943 375.2794372515228 475.02943725152227 371.24999999999994 479.99999999999943 371.24999999999994 C 484.9705627484766 371.24999999999994 488.99999999999943 375.2794372515228 488.99999999999943 380.24999999999994 Z" fill-opacity="1"/><path fill="none" stroke="rgb(0,0,0)" paint-order="fill stroke markers" d=" M 488.99999999999943 380.24999999999994 C 488.99999999999943 385.2205627484771 484.9705627484766 389.24999999999994 479.99999999999943 389.24999999999994 C 475.02943725152227 389.24999999999994 470.99999999999943 385.2205627484771 470.99999999999943 380.24999999999994 C 470.99999999999943 375.2794372515228 475.02943725152227 371.24999999999994 479.99999999999943 371.24999999999994 C 484.9705627484766 371.24999999999994 488.99999999999943 375.2794372515228 488.99999999999943 380.24999999999994 Z" stroke-opacity="1" stroke-linecap="round" stroke-linejoin="round" stroke-miterlimit="10"/><path fill="none" stroke="rgb(21,101,192)" paint-order="fill stroke markers" d=" M 479.99999999999943 422.9999999999999 L 484.33012701892164 415.4999999999999 L 475.6698729810772 415.4999999999999 L 479.99999999999943 422.9999999999999 Z" stroke-opacity="1" stroke-linecap="square" stroke-miterlimit="10" stroke-width="2.5"/><path fill="rgb(21,101,192)" stroke="none" paint-order="stroke fill markers" fill-rule="evenodd" d=" M 479.99999999999943 422.9999999999999 L 484.33012701892164 415.4999999999999 L 475.6698729810772 415.4999999999999 L 479.99999999999943 422.9999999999999 Z" fill-opacity="1"/><path fill="none" stroke="rgb(21,101,192)" paint-order="fill stroke markers" d=" M 447.3749999999997 342.6250000000001 L 439.8749999999997 346.9551270189223 L 439.8749999999997 338.2948729810779 L 447.3749999999997 342.6250000000001 Z" stroke-opacity="1" stroke-linecap="square" stroke-miterlimit="10" stroke-width="2.5"/><path fill="rgb(21,101,192)" stroke="none" paint-order="stroke fill markers" fill-rule="evenodd" d=" M 447.3749999999997 342.6250000000001 L 439.8749999999997 346.9551270189223 L 439.8749999999997 338.2948729810779 L 447.3749999999997 342.6250000000001 Z" fill-opacity="1"/><path fill="none" stroke="rgb(21,101,192)" paint-order="fill stroke markers" d=" M 519.6249999999994 335.6249999999999 L 523.9551270189216 343.1249999999999 L 515.2948729810772 343.1249999999999 L 519.6249999999994 335.6249999999999 Z" stroke-opacity="1" stroke-linecap="square" stroke-miterlimit="10" stroke-width="2.5"/><path fill="rgb(21,101,192)" stroke="none" paint-order="stroke fill markers" fill-rule="evenodd" d=" M 519.6249999999994 335.6249999999999 L 523.9551270189216 343.1249999999999 L 515.2948729810772 343.1249999999999 L 519.6249999999994 335.6249999999999 Z" fill-opacity="1"/><path fill="none" stroke="rgb(211,47,47)" paint-order="fill stroke markers" d=" M 484.99999999999943 305.2499999999999 L 477.49999999999943 309.5801270189221 L 477.49999999999943 300.9198729810777 L 484.99999999999943 305.2499999999999 Z" stroke-opacity="1" stroke-linecap="square" stroke-miterlimit="10" stroke-width="2.5"/><path fill="rgb(211,47,47)" stroke="none" paint-order="stroke fill markers" fill-rule="evenodd" d=" M 484.99999999999943 305.2499999999999 L 477.49999999999943 309.5801270189221 L 477.49999999999943 300.9198729810777 L 484.99999999999943 305.2499999999999 Z" fill-opacity="1"/><path fill="none" stroke="rgb(211,47,47)" paint-order="fill stroke markers" d=" M 404.99999999999955 251.99999999999977 L 409.33012701892176 259.4999999999998 L 400.66987298107733 259.4999999999998 L 404.99999999999955 251.99999999999977 Z" stroke-opacity="1" stroke-linecap="square" stroke-miterlimit="10" stroke-width="2.5"/><path fill="rgb(211,47,47)" stroke="none" paint-order="stroke fill markers" fill-rule="evenodd" d=" M 404.99999999999955 251.99999999999977 L 409.33012701892176 259.4999999999998 L 400.66987298107733 259.4999999999998 L 404.99999999999955 251.99999999999977 Z" fill-opacity="1"/><path fill="none" stroke="rgb(211,47,47)" paint-order="fill stroke markers" d=" M 554.9999999999993 261.9999999999998 L 559.3301270189215 254.49999999999977 L 550.6698729810771 254.49999999999977 L 554.9999999999993 261.9999999999998 Z" stroke-opacity="1" stroke-linecap="square" stroke-miterlimit="10" stroke-width="2.5"/><path fill="rgb(211,47,47)" stroke="none" paint-order="stroke fill markers" fill-rule="evenodd" d=" M 554.9999999999993 261.9999999999998 L 559.3301270189215 254.49999999999977 L 550.6698729810771 254.49999999999977 L 554.9999999999993 261.9999999999998 Z" fill-opacity="1"/><g transform="scale(19,19)"><g transform="translate(20.526315789473685,14.430555)"><path fill="rgb(0,0,0)" stroke="none" paint-order="stroke fill markers" d=" M 0.334 -0.302 L 0.3 -0.165 Q 0.28300000000000003 -0.097 0.28300000000000003 -0.077 Q 0.28300000000000003 -0.025 0.32 -0.014 Q 0.328 -0.011 0.338 -0.011 Q 0.388 -0.011 0.429 -0.061 Q 0.456 -0.093 0.47100000000000003 -0.14200000000000002 Q 0.47400000000000003 -0.153 0.484 -0.153 Q 0.496 -0.153 0.496 -0.14300000000000002 Q 0.496 -0.11800000000000001 0.465 -0.07100000000000001 Q 0.41100000000000003 0.011 0.336 0.011 Q 0.268 0.011 0.23700000000000002 -0.046 Q 0.231 -0.055 0.228 -0.065 Q 0.20400000000000001 -0.017 0.162 0.002 Q 0.14300000000000002 0.011 0.123 0.011 Q 0.063 0.011 0.039 -0.024 Q 0.029 -0.037 0.029 -0.055 Q 0.029 -0.092 0.061 -0.107 Q 0.07200000000000001 -0.113 0.084 -0.113 Q 0.114 -0.113 0.12 -0.088 Q 0.121 -0.083 0.121 -0.078 Q 0.121 -0.044 0.08700000000000001 -0.028 Q 0.081 -0.025 0.074 -0.024 Q 0.095 -0.011 0.124 -0.011 Q 0.177 -0.011 0.20800000000000002 -0.082 Q 0.214 -0.097 0.219 -0.115 Q 0.273 -0.319 0.273 -0.353 Q 0.267 -0.41500000000000004 0.219 -0.42 Q 0.167 -0.42 0.124 -0.367 L 0.124 -0.366 Q 0.124 -0.365 0.123 -0.365 Q 0.108 -0.34500000000000003 0.096 -0.319 Q 0.091 -0.307 0.08700000000000001 -0.295 L 0.085 -0.289 Q 0.083 -0.278 0.07200000000000001 -0.278 Q 0.06 -0.278 0.06 -0.28800000000000003 Q 0.06 -0.313 0.092 -0.36 Q 0.146 -0.442 0.221 -0.442 Q 0.298 -0.442 0.329 -0.366 Q 0.361 -0.428 0.41400000000000003 -0.44 Q 0.424 -0.442 0.434 -0.442 Q 0.493 -0.442 0.517 -0.40900000000000003 Q 0.527 -0.395 0.527 -0.376 Q 0.527 -0.335 0.49 -0.321 Q 0.481 -0.318 0.47300000000000003 -0.318 Q 0.442 -0.318 0.436 -0.34500000000000003 Q 0.435 -0.34900000000000003 0.435 -0.353 Q 0.435 -0.383 0.464 -0.4 Q 0.47300000000000003 -0.405 0.483 -0.40700000000000003 Q 0.462 -0.42 0.433 -0.42 Q 0.365 -0.42 0.337 -0.314 Q 0.335 -0.308 0.334 -0.302 Z"/></g></g><g transform="scale(19,19)"><g transform="translate(27.789473684210527,14.430555)"><path fill="rgb(0,0,0)" stroke="none" paint-order="stroke fill markers" d=" M 0.61 -0.323 L 0.61 -0.122 Q 0.605 -0.092 0.59 -0.089 Q 0.5700000000000001 -0.089 0.5700000000000001 -0.122 L 0.5700000000000001 -0.316 L 0.089 -0.316 Q 0.057 -0.316 0.056 -0.336 Q 0.056 -0.356 0.089 -0.356 L 0.577 -0.356 Q 0.604 -0.356 0.608 -0.34400000000000003 L 0.608 -0.34400000000000003 Q 0.61 -0.338 0.61 -0.323 Z"/></g><g transform="translate(28.456142684210526,14.430555)"><path fill="rgb(0,0,0)" stroke="none" paint-order="stroke fill markers" d=" M 0.334 -0.302 L 0.3 -0.165 Q 0.28300000000000003 -0.097 0.28300000000000003 -0.077 Q 0.28300000000000003 -0.025 0.32 -0.014 Q 0.328 -0.011 0.338 -0.011 Q 0.388 -0.011 0.429 -0.061 Q 0.456 -0.093 0.47100000000000003 -0.14200000000000002 Q 0.47400000000000003 -0.153 0.484 -0.153 Q 0.496 -0.153 0.496 -0.14300000000000002 Q 0.496 -0.11800000000000001 0.465 -0.07100000000000001 Q 0.41100000000000003 0.011 0.336 0.011 Q 0.268 0.011 0.23700000000000002 -0.046 Q 0.231 -0.055 0.228 -0.065 Q 0.20400000000000001 -0.017 0.162 0.002 Q 0.14300000000000002 0.011 0.123 0.011 Q 0.063 0.011 0.039 -0.024 Q 0.029 -0.037 0.029 -0.055 Q 0.029 -0.092 0.061 -0.107 Q 0.07200000000000001 -0.113 0.084 -0.113 Q 0.114 -0.113 0.12 -0.088 Q 0.121 -0.083 0.121 -0.078 Q 0.121 -0.044 0.08700000000000001 -0.028 Q 0.081 -0.025 0.074 -0.024 Q 0.095 -0.011 0.124 -0.011 Q 0.177 -0.011 0.20800000000000002 -0.082 Q 0.214 -0.097 0.219 -0.115 Q 0.273 -0.319 0.273 -0.353 Q 0.267 -0.41500000000000004 0.219 -0.42 Q 0.167 -0.42 0.124 -0.367 L 0.124 -0.366 Q 0.124 -0.365 0.123 -0.365 Q 0.108 -0.34500000000000003 0.096 -0.319 Q 0.091 -0.307 0.08700000000000001 -0.295 L 0.085 -0.289 Q 0.083 -0.278 0.07200000000000001 -0.278 Q 0.06 -0.278 0.06 -0.28800000000000003 Q 0.06 -0.313 0.092 -0.36 Q 0.146 -0.442 0.221 -0.442 Q 0.298 -0.442 0.329 -0.366 Q 0.361 -0.428 0.41400000000000003 -0.44 Q 0.424 -0.442 0.434 -0.442 Q 0.493 -0.442 0.517 -0.40900000000000003 Q 0.527 -0.395 0.527 -0.376 Q 0.527 -0.335 0.49 -0.321 Q 0.481 -0.318 0.47300000000000003 -0.318 Q 0.442 -0.318 0.436 -0.34500000000000003 Q 0.435 -0.34900000000000003 0.435 -0.353 Q 0.435 -0.383 0.464 -0.4 Q 0.47300000000000003 -0.405 0.483 -0.40700000000000003 Q 0.462 -0.42 0.433 -0.42 Q 0.365 -0.42 0.337 -0.314 Q 0.335 -0.308 0.334 -0.302 Z"/></g></g><g transform="scale(19,19)"><g transform="translate(29.736842105263158,38.430555)"><path fill="rgb(0,0,0)" stroke="none" paint-order="stroke fill markers" d=" M 0.334 -0.302 L 0.3 -0.165 Q 0.28300000000000003 -0.097 0.28300000000000003 -0.077 Q 0.28300000000000003 -0.025 0.32 -0.014 Q 0.328 -0.011 0.338 -0.011 Q 0.388 -0.011 0.429 -0.061 Q 0.456 -0.093 0.47100000000000003 -0.14200000000000002 Q 0.47400000000000003 -0.153 0.484 -0.153 Q 0.496 -0.153 0.496 -0.14300000000000002 Q 0.496 -0.11800000000000001 0.465 -0.07100000000000001 Q 0.41100000000000003 0.011 0.336 0.011 Q 0.268 0.011 0.23700000000000002 -0.046 Q 0.231 -0.055 0.228 -0.065 Q 0.20400000000000001 -0.017 0.162 0.002 Q 0.14300000000000002 0.011 0.123 0.011 Q 0.063 0.011 0.039 -0.024 Q 0.029 -0.037 0.029 -0.055 Q 0.029 -0.092 0.061 -0.107 Q 0.07200000000000001 -0.113 0.084 -0.113 Q 0.114 -0.113 0.12 -0.088 Q 0.121 -0.083 0.121 -0.078 Q 0.121 -0.044 0.08700000000000001 -0.028 Q 0.081 -0.025 0.074 -0.024 Q 0.095 -0.011 0.124 -0.011 Q 0.177 -0.011 0.20800000000000002 -0.082 Q 0.214 -0.097 0.219 -0.115 Q 0.273 -0.319 0.273 -0.353 Q 0.267 -0.41500000000000004 0.219 -0.42 Q 0.167 -0.42 0.124 -0.367 L 0.124 -0.366 Q 0.124 -0.365 0.123 -0.365 Q 0.108 -0.34500000000000003 0.096 -0.319 Q 0.091 -0.307 0.08700000000000001 -0.295 L 0.085 -0.289 Q 0.083 -0.278 0.07200000000000001 -0.278 Q 0.06 -0.278 0.06 -0.28800000000000003 Q 0.06 -0.313 0.092 -0.36 Q 0.146 -0.442 0.221 -0.442 Q 0.298 -0.442 0.329 -0.366 Q 0.361 -0.428 0.41400000000000003 -0.44 Q 0.424 -0.442 0.434 -0.442 Q 0.493 -0.442 0.517 -0.40900000000000003 Q 0.527 -0.395 0.527 -0.376 Q 0.527 -0.335 0.49 -0.321 Q 0.481 -0.318 0.47300000000000003 -0.318 Q 0.442 -0.318 0.436 -0.34500000000000003 Q 0.435 -0.34900000000000003 0.435 -0.353 Q 0.435 -0.383 0.464 -0.4 Q 0.47300000000000003 -0.405 0.483 -0.40700000000000003 Q 0.462 -0.42 0.433 -0.42 Q 0.365 -0.42 0.337 -0.314 Q 0.335 -0.308 0.334 -0.302 Z"/></g></g><g transform="scale(19,19)"><g transform="translate(37,38.430555)"><path fill="rgb(0,0,0)" stroke="none" paint-order="stroke fill markers" d=" M 0.61 -0.323 L 0.61 -0.122 Q 0.605 -0.092 0.59 -0.089 Q 0.5700000000000001 -0.089 0.5700000000000001 -0.122 L 0.5700000000000001 -0.316 L 0.089 -0.316 Q 0.057 -0.316 0.056 -0.336 Q 0.056 -0.356 0.089 -0.356 L 0.577 -0.356 Q 0.604 -0.356 0.608 -0.34400000000000003 L 0.608 -0.34400000000000003 Q 0.61 -0.338 0.61 -0.323 Z"/></g><g transform="translate(37.666669,38.430555)"><path fill="rgb(0,0,0)" stroke="none" paint-order="stroke fill markers" d=" M 0.334 -0.302 L 0.3 -0.165 Q 0.28300000000000003 -0.097 0.28300000000000003 -0.077 Q 0.28300000000000003 -0.025 0.32 -0.014 Q 0.328 -0.011 0.338 -0.011 Q 0.388 -0.011 0.429 -0.061 Q 0.456 -0.093 0.47100000000000003 -0.14200000000000002 Q 0.47400000000000003 -0.153 0.484 -0.153 Q 0.496 -0.153 0.496 -0.14300000000000002 Q 0.496 -0.11800000000000001 0.465 -0.07100000000000001 Q 0.41100000000000003 0.011 0.336 0.011 Q 0.268 0.011 0.23700000000000002 -0.046 Q 0.231 -0.055 0.228 -0.065 Q 0.20400000000000001 -0.017 0.162 0.002 Q 0.14300000000000002 0.011 0.123 0.011 Q 0.063 0.011 0.039 -0.024 Q 0.029 -0.037 0.029 -0.055 Q 0.029 -0.092 0.061 -0.107 Q 0.07200000000000001 -0.113 0.084 -0.113 Q 0.114 -0.113 0.12 -0.088 Q 0.121 -0.083 0.121 -0.078 Q 0.121 -0.044 0.08700000000000001 -0.028 Q 0.081 -0.025 0.074 -0.024 Q 0.095 -0.011 0.124 -0.011 Q 0.177 -0.011 0.20800000000000002 -0.082 Q 0.214 -0.097 0.219 -0.115 Q 0.273 -0.319 0.273 -0.353 Q 0.267 -0.41500000000000004 0.219 -0.42 Q 0.167 -0.42 0.124 -0.367 L 0.124 -0.366 Q 0.124 -0.365 0.123 -0.365 Q 0.108 -0.34500000000000003 0.096 -0.319 Q 0.091 -0.307 0.08700000000000001 -0.295 L 0.085 -0.289 Q 0.083 -0.278 0.07200000000000001 -0.278 Q 0.06 -0.278 0.06 -0.28800000000000003 Q 0.06 -0.313 0.092 -0.36 Q 0.146 -0.442 0.221 -0.442 Q 0.298 -0.442 0.329 -0.366 Q 0.361 -0.428 0.41400000000000003 -0.44 Q 0.424 -0.442 0.434 -0.442 Q 0.493 -0.442 0.517 -0.40900000000000003 Q 0.527 -0.395 0.527 -0.376 Q 0.527 -0.335 0.49 -0.321 Q 0.481 -0.318 0.47300000000000003 -0.318 Q 0.442 -0.318 0.436 -0.34500000000000003 Q 0.435 -0.34900000000000003 0.435 -0.353 Q 0.435 -0.383 0.464 -0.4 Q 0.47300000000000003 -0.405 0.483 -0.40700000000000003 Q 0.462 -0.42 0.433 -0.42 Q 0.365 -0.42 0.337 -0.314 Q 0.335 -0.308 0.334 -0.302 Z"/></g></g><text fill="rgb(0,0,0)" stroke="none" font-family="geogebra-sans-serif, sans-serif" font-size="16px" font-style="normal" font-weight="bold" text-decoration="normal" x="504" y="977" text-anchor="start" dominant-baseline="alphabetic" fill-opacity="1">try in</text><text fill="rgb(0,0,0)" stroke="none" font-family="geogebra-sans-serif, sans-serif" font-size="16px" font-style="normal" font-weight="bold" text-decoration="normal" x="744" y="979" text-anchor="start" dominant-baseline="alphabetic" fill-opacity="1">try out</text><text fill="rgb(0,0,0)" stroke="none" font-family="geogebra-sans-serif, sans-serif" font-size="16px" font-style="normal" font-weight="bold" text-decoration="normal" x="504" y="1053" text-anchor="start" dominant-baseline="alphabetic" fill-opacity="1">satisfied out</text><text fill="rgb(0,0,0)" stroke="none" font-family="geogebra-sans-serif, sans-serif" font-size="16px" font-style="normal" font-weight="bold" text-decoration="normal" x="711" y="1052" text-anchor="start" dominant-baseline="alphabetic" fill-opacity="1">satisfied in</text></g></g></svg>