<svg version="1.1" xmlns="http://www.w3.org/2000/svg" xmlns:xlink="http://www.w3.org/1999/xlink" width="1544" height="703"><defs><clipPath id="SyVIIPxBBxwz"><path fill="none" stroke="none" d=" M 0 0 L 1544 0 L 1544 703 L 0 703 L 0 0 Z"/></clipPath></defs><g transform="scale(1,1)" clip-path="url(#SyVIIPxBBxwz)"><g><rect fill="rgb(255,255,255)" stroke="none" x="0" y="0" width="1544" height="703" fill-opacity="1"/><path fill="none" stroke="rgb(0,0,0)" paint-order="fill stroke markers" d=" M 237.50000000000034 228.0833333333341 L 1287.4999999999995 228.0833333333341" stroke-opacity="0.8" stroke-linecap="round" stroke-linejoin="round" stroke-miterlimit="10" stroke-width="2.5"/><path fill="none" stroke="rgb(0,0,0)" paint-order="fill stroke markers" d=" M 237.50000000000034 378.08333333333377 L 1287.4999999999995 378.08333333333377" stroke-opacity="0.8" stroke-linecap="round" stroke-linejoin="round" stroke-miterlimit="10" stroke-width="2.5"/><path fill="none" stroke="rgb(0,0,0)" paint-order="fill stroke markers" d=" M 1287.4999999999995 228.0833333333341 L 1287.4999999999995 378.08333333333377" stroke-opacity="0.8" stroke-linecap="round" stroke-linejoin="round" stroke-miterlimit="10" stroke-width="2.5"/><path fill="none" stroke="rgb(0,0,0)" paint-order="fill stroke markers" d=" M 237.50000000000034 228.0833333333341 L 237.50000000000034 378.08333333333377" stroke-opacity="0.8" stroke-linecap="round" stroke-linejoin="round" stroke-miterlimit="10" stroke-width="2.5"/><path fill="none" stroke="rgb(0,0,0)" paint-order="fill stroke markers" d=" M 312.50000000000034 453.0833333333336 L 462.50000000000017 453.0833333333336" stroke-opacity="0.8" stroke-linecap="round" stroke-linejoin="round" stroke-miterlimit="10" stroke-width="2.5"/><path fill="none" stroke="rgb(0,0,0)" paint-order="fill stroke markers" d=" M 462.50000000000017 528.0833333333335 L 462.50000000000017 453.0833333333336" stroke-opacity="0.8" stroke-linecap="round" stroke-linejoin="round" stroke-miterlimit="10" stroke-width="2.5"/><path fill="none" stroke="rgb(0,0,0)" paint-order="fill stroke markers" d=" M 312.50000000000034 453.0833333333336 L 312.50000000000034 528.0833333333335" stroke-opacity="0.8" stroke-linecap="round" stroke-linejoin="round" stroke-miterlimit="10" stroke-width="2.5"/><path fill="none" stroke="rgb(0,0,0)" paint-order="fill stroke markers" d=" M 312.50000000000034 528.0833333333335 L 462.50000000000017 528.0833333333335" stroke-opacity="0.8" stroke-linecap="round" stroke-linejoin="round" stroke-miterlimit="10" stroke-width="2.5"/><path fill="none" stroke="rgb(0,0,0)" paint-order="fill stroke markers" d=" M 462.50000000000017 453.0833333333336 L 612.5 453.0833333333336" stroke-opacity="0.8" stroke-linecap="round" stroke-linejoin="round" stroke-miterlimit="10" stroke-width="2.5"/><path fill="none" stroke="rgb(0,0,0)" paint-order="fill stroke markers" d=" M 612.5 453.0833333333336 L 612.5 528.0833333333335" stroke-opacity="0.8" stroke-linecap="round" stroke-linejoin="round" stroke-miterlimit="10" stroke-width="2.5"/><path fill="none" stroke="rgb(0,0,0)" paint-order="fill stroke markers" d=" M 612.5 528.0833333333335 L 462.50000000000017 528.0833333333335" stroke-opacity="0.8" stroke-linecap="round" stroke-linejoin="round" stroke-miterlimit="10" stroke-width="2.5"/><path fill="none" stroke="rgb(0,0,0)" paint-order="fill stroke markers" d=" M 612.5 453.0833333333336 L 762.4999999999999 453.0833333333336" stroke-opacity="0.8" stroke-linecap="round" stroke-linejoin="round" stroke-miterlimit="10" stroke-width="2.5"/><path fill="none" stroke="rgb(0,0,0)" paint-order="fill stroke markers" d=" M 762.4999999999999 453.0833333333336 L 762.4999999999999 528.0833333333335" stroke-opacity="0.8" stroke-linecap="round" stroke-linejoin="round" stroke-miterlimit="10" stroke-width="2.5"/><path fill="none" stroke="rgb(0,0,0)" paint-order="fill stroke markers" d=" M 762.4999999999999 528.0833333333335 L 612.5 528.0833333333335" stroke-opacity="0.8" stroke-linecap="round" stroke-linejoin="round" stroke-miterlimit="10" stroke-width="2.5"/><path fill="none" stroke="rgb(0,0,0)" paint-order="fill stroke markers" d=" M 1062.4999999999995 453.0833333333336 L 912.4999999999998 453.0833333333336" stroke-opacity="0.8" stroke-linecap="round" stroke-linejoin="round" stroke-miterlimit="10" stroke-width="2.5"/><path fill="none" stroke="rgb(0,0,0)" paint-order="fill stroke markers" d=" M 912.4999999999998 453.0833333333336 L 912.4999999999998 528.0833333333335" stroke-opacity="0.8" stroke-linecap="round" stroke-linejoin="round" stroke-miterlimit="10" stroke-width="2.5"/><path fill="none" stroke="rgb(0,0,0)" paint-order="fill stroke markers" d=" M 912.4999999999998 528.0833333333335 L 1062.4999999999995 528.0833333333335" stroke-opacity="0.8" stroke-linecap="round" stroke-linejoin="round" stroke-miterlimit="10" stroke-width="2.5"/><path fill="none" stroke="rgb(0,0,0)" paint-order="fill stroke markers" d=" M 1062.4999999999995 528.0833333333335 L 1062.4999999999995 453.0833333333336" stroke-opacity="0.8" stroke-linecap="round" stroke-linejoin="round" stroke-miterlimit="10" stroke-width="2.5"/><path fill="none" stroke="rgb(211,47,47)" paint-order="fill stroke markers" d=" M 342.5000000000003 378.08333333333377 L 342.5000000000003 453.0833333333336" stroke-opacity="0.8" stroke-linecap="round" stroke-linejoin="round" stroke-miterlimit="10" stroke-width="2.5"/><path fill="none" stroke="rgb(211,47,47)" paint-order="fill stroke markers" d=" M 434.0000000000002 453.0833333333336 L 434.0000000000002 378.08333333333377" stroke-opacity="0.8" stroke-linecap="round" stroke-linejoin="round" stroke-miterlimit="10" stroke-width="2.5"/><path fill="none" stroke="rgb(211,47,47)" paint-order="fill stroke markers" d=" M 494.0000000000001 453.0833333333336 L 494.0000000000001 378.08333333333377" stroke-opacity="0.8" stroke-linecap="round" stroke-linejoin="round" stroke-miterlimit="10" stroke-width="2.5"/><path fill="none" stroke="rgb(211,47,47)" paint-order="fill stroke markers" d=" M 584 453.0833333333336 L 584 378.08333333333377" stroke-opacity="0.8" stroke-linecap="round" stroke-linejoin="round" stroke-miterlimit="10" stroke-width="2.5"/><path fill="none" stroke="rgb(211,47,47)" paint-order="fill stroke markers" d=" M 645.5 453.0833333333336 L 645.5 378.08333333333377" stroke-opacity="0.8" stroke-linecap="round" stroke-linejoin="round" stroke-miterlimit="10" stroke-width="2.5"/><path fill="none" stroke="rgb(211,47,47)" paint-order="fill stroke markers" d=" M 735.4999999999999 453.0833333333336 L 735.4999999999999 378.08333333333377" stroke-opacity="0.8" stroke-linecap="round" stroke-linejoin="round" stroke-miterlimit="10" stroke-width="2.5"/><path fill="none" stroke="rgb(211,47,47)" paint-order="fill stroke markers" d=" M 943.9999999999998 453.0833333333336 L 943.9999999999998 378.08333333333377" stroke-opacity="0.8" stroke-linecap="round" stroke-linejoin="round" stroke-miterlimit="10" stroke-width="2.5"/><path fill="none" stroke="rgb(211,47,47)" paint-order="fill stroke markers" d=" M 1030.9999999999995 453.0833333333336 L 1030.9999999999995 378.08333333333377" stroke-opacity="0.8" stroke-linecap="round" stroke-linejoin="round" stroke-miterlimit="10" stroke-width="2.5"/><path fill="none" stroke="rgb(21,101,192)" paint-order="fill stroke markers" d=" M 1287.4999999999995 378.08333333333377 L 1287.4999999999995 528.0833333333335" stroke-opacity="0.8" stroke-linecap="round" stroke-linejoin="round" stroke-miterlimit="10" stroke-width="2.5"/><path fill="none" stroke="rgb(211,47,47)" paint-order="fill stroke markers" d=" M 1212.4999999999995 528.0833333333335 L 1287.4999999999995 528.0833333333335" stroke-opacity="0.8" stroke-linecap="round" stroke-linejoin="round" stroke-miterlimit="10" stroke-width="2.5"/><path fill="none" stroke="rgb(211,47,47)" paint-order="fill stroke markers" d=" M 1212.4999999999995 453.0833333333336 L 1212.4999999999995 528.0833333333335" stroke-opacity="0.8" stroke-linecap="round" stroke-linejoin="round" stroke-miterlimit="10" stroke-width="2.5"/><path fill="none" stroke="rgb(21,101,192)" paint-order="fill stroke markers" d=" M 1062.4999999999995 453.0833333333336 L 1212.4999999999995 453.0833333333336" stroke-opacity="0.8" stroke-linecap="round" stroke-linejoin="round" stroke-miterlimit="10" stroke-width="2.5"/><path fill="none" stroke="rgb(21,101,192)" paint-order="fill stroke markers" d=" M 1062.4999999999995 528.0833333333335 L 1212.4999999999995 528.0833333333335" stroke-opacity="0.8" stroke-linecap="round" stroke-linejoin="round" stroke-miterlimit="10" stroke-width="2.5"/><path fill="none" stroke="rgb(21,101,192)" paint-order="fill stroke markers" d=" M 162.50000000000045 453.0833333333336 L 312.50000000000034 453.0833333333336" stroke-opacity="0.8" stroke-linecap="round" stroke-linejoin="round" stroke-miterlimit="10" stroke-width="2.5"/><path fill="none" stroke="rgb(21,101,192)" paint-order="fill stroke markers" d=" M 162.50000000000045 528.0833333333335 L 312.50000000000034 528.0833333333335" stroke-opacity="0.8" stroke-linecap="round" stroke-linejoin="round" stroke-miterlimit="10" stroke-width="2.5"/><path fill="none" stroke="rgb(0,0,0)" paint-order="fill stroke markers" d=" M 132 182 L 131.00000000000045 303" stroke-opacity="0.8" stroke-linecap="round" stroke-linejoin="round" stroke-miterlimit="10" stroke-width="2.5"/><path fill="none" stroke="rgb(0,0,0)" paint-order="fill stroke markers" d=" M 131.00819560169418 302.0083321950553 L 203.0010553849196 302.8105746230589" stroke-opacity="0.8" stroke-linecap="round" stroke-linejoin="round" stroke-miterlimit="10" stroke-width="2.5"/><path fill="rgb(0,0,0)" stroke="none" paint-order="stroke fill markers" fill-rule="evenodd" d=" M 220 303 L 202.95369904068434 307.060310776829 L 203.04841172915485 298.56083846928885 Z" fill-opacity="0.8"/><path fill="rgb(160,160,160)" stroke="none" paint-order="stroke fill markers" d=" M 1217.4999999999995 453.0833333333336 C 1217.4999999999995 455.84475708248755 1215.2614237491534 458.0833333333336 1212.4999999999995 458.0833333333336 C 1209.7385762508457 458.0833333333336 1207.4999999999995 455.84475708248755 1207.4999999999995 453.0833333333336 C 1207.4999999999995 450.32190958417965 1209.7385762508457 448.0833333333336 1212.4999999999995 448.0833333333336 C 1215.2614237491534 448.0833333333336 1217.4999999999995 450.32190958417965 1217.4999999999995 453.0833333333336 Z" fill-opacity="1"/><path fill="none" stroke="rgb(0,0,0)" paint-order="fill stroke markers" d=" M 1217.4999999999995 453.0833333333336 C 1217.4999999999995 455.84475708248755 1215.2614237491534 458.0833333333336 1212.4999999999995 458.0833333333336 C 1209.7385762508457 458.0833333333336 1207.4999999999995 455.84475708248755 1207.4999999999995 453.0833333333336 C 1207.4999999999995 450.32190958417965 1209.7385762508457 448.0833333333336 1212.4999999999995 448.0833333333336 C 1215.2614237491534 448.0833333333336 1217.4999999999995 450.32190958417965 1217.4999999999995 453.0833333333336 Z" stroke-opacity="1" stroke-linecap="round" stroke-linejoin="round" stroke-miterlimit="10"/><path fill="rgb(160,160,160)" stroke="none" paint-order="stroke fill markers" d=" M 1221.4999999999995 528.0833333333335 C 1221.4999999999995 533.0538960818106 1217.4705627484766 537.0833333333335 1212.4999999999995 537.0833333333335 C 1207.5294372515225 537.0833333333335 1203.4999999999995 533.0538960818106 1203.4999999999995 528.0833333333335 C 1203.4999999999995 523.1127705848563 1207.5294372515225 519.0833333333335 1212.4999999999995 519.0833333333335 C 1217.4705627484766 519.0833333333335 1221.4999999999995 523.1127705848563 1221.4999999999995 528.0833333333335 Z" fill-opacity="1"/><path fill="none" stroke="rgb(0,0,0)" paint-order="fill stroke markers" d=" M 1221.4999999999995 528.0833333333335 C 1221.4999999999995 533.0538960818106 1217.4705627484766 537.0833333333335 1212.4999999999995 537.0833333333335 C 1207.5294372515225 537.0833333333335 1203.4999999999995 533.0538960818106 1203.4999999999995 528.0833333333335 C 1203.4999999999995 523.1127705848563 1207.5294372515225 519.0833333333335 1212.4999999999995 519.0833333333335 C 1217.4705627484766 519.0833333333335 1221.4999999999995 523.1127705848563 1221.4999999999995 528.0833333333335 Z" stroke-opacity="1" stroke-linecap="round" stroke-linejoin="round" stroke-miterlimit="10"/><path fill="rgb(160,160,160)" stroke="none" paint-order="stroke fill markers" d=" M 1292.4999999999995 528.0833333333335 C 1292.4999999999995 530.8447570824875 1290.2614237491534 533.0833333333335 1287.4999999999995 533.0833333333335 C 1284.7385762508457 533.0833333333335 1282.4999999999995 530.8447570824875 1282.4999999999995 528.0833333333335 C 1282.4999999999995 525.3219095841795 1284.7385762508457 523.0833333333335 1287.4999999999995 523.0833333333335 C 1290.2614237491534 523.0833333333335 1292.4999999999995 525.3219095841795 1292.4999999999995 528.0833333333335 Z" fill-opacity="1"/><path fill="none" stroke="rgb(0,0,0)" paint-order="fill stroke markers" d=" M 1292.4999999999995 528.0833333333335 C 1292.4999999999995 530.8447570824875 1290.2614237491534 533.0833333333335 1287.4999999999995 533.0833333333335 C 1284.7385762508457 533.0833333333335 1282.4999999999995 530.8447570824875 1282.4999999999995 528.0833333333335 C 1282.4999999999995 525.3219095841795 1284.7385762508457 523.0833333333335 1287.4999999999995 523.0833333333335 C 1290.2614237491534 523.0833333333335 1292.4999999999995 525.3219095841795 1292.4999999999995 528.0833333333335 Z" stroke-opacity="1" stroke-linecap="round" stroke-linejoin="round" stroke-miterlimit="10"/><g transform="scale(19,19)"><g transform="translate(17.105263157894736,22.14254352631579)"><path fill="rgb(0,0,0)" stroke="none" paint-order="stroke fill markers" d=" M 0.0458984375 0 Q 0.03759765625 0 0.03076171875 -0.00634765625 Q 0.02392578125 -0.0126953125 0.02392578125 -0.02197265625 Q 0.02392578125 -0.03125 0.02880859375 -0.0361328125 L 0.18994140625 -0.23681640625 L 0.0361328125 -0.421875 Q 0.03076171875 -0.42919921875 0.03076171875 -0.43603515625 Q 0.03076171875 -0.44580078125 0.037353515625 -0.451904296875 Q 0.0439453125 -0.4580078125 0.05322265625 -0.4580078125 L 0.1259765625 -0.4580078125 Q 0.14892578125 -0.4580078125 0.162109375 -0.43994140625 L 0.24609375 -0.33203125 L 0.3271484375 -0.43994140625 Q 0.33984375 -0.4580078125 0.36181640625 -0.4580078125 L 0.43408203125 -0.4580078125 Q 0.44384765625 -0.4580078125 0.450439453125 -0.451904296875 Q 0.45703125 -0.44580078125 0.45703125 -0.43603515625 Q 0.45703125 -0.42822265625 0.4521484375 -0.421875 L 0.30322265625 -0.23681640625 L 0.46923828125 -0.0361328125 Q 0.47412109375 -0.03125 0.47412109375 -0.02197265625 Q 0.47412109375 -0.01220703125 0.467529296875 -0.006103515625 Q 0.4609375 0 0.4521484375 0 L 0.37890625 0 Q 0.35693359375 0 0.34423828125 -0.01806640625 L 0.24609375 -0.1611328125 L 0.15185546875 -0.01806640625 Q 0.140625 0 0.119140625 0 L 0.0458984375 0 Z"/></g></g><g transform="scale(19,19)"><g transform="translate(21.473684210526315,22.18128710526316)"><path fill="rgb(0,0,0)" stroke="none" paint-order="stroke fill markers" d=" M 0.7020000000000001 -0.327 L 0.7020000000000001 -0.105 Q 0.7020000000000001 -0.061 0.671 -0.061 Q 0.641 -0.061 0.641 -0.105 L 0.641 -0.31 L 0.109 -0.31 Q 0.064 -0.31 0.064 -0.341 Q 0.064 -0.371 0.109 -0.371 L 0.657 -0.371 Q 0.684 -0.371 0.6930000000000001 -0.3625 Q 0.7020000000000001 -0.354 0.7020000000000001 -0.327 Z"/></g><g transform="translate(22.240347210526316,22.18128710526316)"><path fill="rgb(0,0,0)" stroke="none" paint-order="stroke fill markers" d=" M 0.536 -0.401 Q 0.516 -0.41600000000000004 0.488 -0.41600000000000004 Q 0.461 -0.41600000000000004 0.4375 -0.392 Q 0.41400000000000003 -0.368 0.403 -0.325 Q 0.4 -0.316 0.385 -0.257 Q 0.37 -0.198 0.368 -0.189 Q 0.34600000000000003 -0.099 0.34600000000000003 -0.078 Q 0.34600000000000003 -0.028 0.402 -0.028 Q 0.44 -0.028 0.482 -0.0575 Q 0.524 -0.08700000000000001 0.544 -0.149 Q 0.548 -0.162 0.5670000000000001 -0.162 Q 0.591 -0.162 0.591 -0.148 Q 0.591 -0.134 0.578 -0.1095 Q 0.5650000000000001 -0.085 0.542 -0.058 Q 0.519 -0.031 0.48 -0.0115 Q 0.441 0.008 0.397 0.008 Q 0.295 0.008 0.259 -0.053 Q 0.215 0.008 0.152 0.008 Q 0.105 0.008 0.07150000000000001 -0.0165 Q 0.038 -0.041 0.038 -0.08 Q 0.038 -0.115 0.06 -0.1365 Q 0.082 -0.158 0.11 -0.158 Q 0.133 -0.158 0.1465 -0.14400000000000002 Q 0.16 -0.13 0.16 -0.112 Q 0.16 -0.091 0.1455 -0.07050000000000001 Q 0.131 -0.05 0.106 -0.043000000000000003 Q 0.126 -0.028 0.154 -0.028 Q 0.181 -0.028 0.20450000000000002 -0.051500000000000004 Q 0.228 -0.075 0.23900000000000002 -0.11900000000000001 L 0.273 -0.256 Q 0.296 -0.34800000000000003 0.296 -0.366 Q 0.296 -0.41600000000000004 0.24 -0.41600000000000004 Q 0.202 -0.41600000000000004 0.16 -0.3865 Q 0.11800000000000001 -0.357 0.098 -0.295 Q 0.094 -0.28200000000000003 0.075 -0.28200000000000003 Q 0.051000000000000004 -0.28200000000000003 0.051000000000000004 -0.296 Q 0.051000000000000004 -0.31 0.064 -0.3345 Q 0.077 -0.359 0.1 -0.386 Q 0.123 -0.41300000000000003 0.162 -0.4325 Q 0.201 -0.452 0.245 -0.452 Q 0.34700000000000003 -0.452 0.383 -0.391 Q 0.427 -0.452 0.49 -0.452 Q 0.537 -0.452 0.5705 -0.4275 Q 0.604 -0.403 0.604 -0.364 Q 0.604 -0.329 0.582 -0.3075 Q 0.56 -0.28600000000000003 0.532 -0.28600000000000003 Q 0.509 -0.28600000000000003 0.4955 -0.3 Q 0.482 -0.314 0.482 -0.332 Q 0.482 -0.353 0.4965 -0.3735 Q 0.511 -0.394 0.536 -0.401 Z"/></g></g><text fill="rgb(0,0,0)" stroke="none" font-family="geogebra-sans-serif, sans-serif" font-size="16px" font-style="normal" font-weight="bold" text-decoration="normal" x="481" y="422" text-anchor="start" dominant-baseline="alphabetic" fill-opacity="1">y</text><g transform="scale(19,19)"><g transform="translate(29.31578947368421,22.18128710526316)"><path fill="rgb(0,0,0)" stroke="none" paint-order="stroke fill markers" d=" M 0.7020000000000001 -0.327 L 0.7020000000000001 -0.105 Q 0.7020000000000001 -0.061 0.671 -0.061 Q 0.641 -0.061 0.641 -0.105 L 0.641 -0.31 L 0.109 -0.31 Q 0.064 -0.31 0.064 -0.341 Q 0.064 -0.371 0.109 -0.371 L 0.657 -0.371 Q 0.684 -0.371 0.6930000000000001 -0.3625 Q 0.7020000000000001 -0.354 0.7020000000000001 -0.327 Z"/></g><g transform="translate(30.08245247368421,22.18128710526316)"><path fill="rgb(0,0,0)" stroke="none" paint-order="stroke fill markers" d=" M 0.577 -0.377 L 0.483 0.001 Q 0.461 0.09 0.3785 0.146 Q 0.296 0.202 0.20500000000000002 0.202 Q 0.145 0.202 0.108 0.178 Q 0.07100000000000001 0.154 0.07100000000000001 0.115 Q 0.07100000000000001 0.083 0.0925 0.061 Q 0.114 0.039 0.14300000000000002 0.039 Q 0.162 0.039 0.177 0.05 Q 0.192 0.061 0.192 0.085 Q 0.192 0.132 0.14400000000000002 0.152 Q 0.167 0.166 0.20500000000000002 0.166 Q 0.26 0.166 0.3085 0.116 Q 0.357 0.066 0.377 -0.022 Q 0.334 0.008 0.281 0.008 Q 0.254 0.008 0.2305 0.0035 Q 0.20700000000000002 -0.001 0.1805 -0.0135 Q 0.154 -0.026000000000000002 0.138 -0.054 Q 0.122 -0.082 0.122 -0.122 Q 0.122 -0.157 0.1355 -0.2005 Q 0.149 -0.244 0.182 -0.33 Q 0.199 -0.375 0.199 -0.395 Q 0.199 -0.405 0.196 -0.41000000000000003 Q 0.193 -0.41500000000000004 0.19 -0.41550000000000004 Q 0.187 -0.41600000000000004 0.182 -0.41600000000000004 Q 0.17400000000000002 -0.41600000000000004 0.1635 -0.41200000000000003 Q 0.153 -0.40800000000000003 0.1375 -0.3975 Q 0.122 -0.387 0.106 -0.3605 Q 0.09 -0.334 0.079 -0.295 Q 0.075 -0.28200000000000003 0.056 -0.28200000000000003 Q 0.032 -0.28200000000000003 0.032 -0.296 Q 0.032 -0.306 0.042 -0.3295 Q 0.052000000000000005 -0.353 0.07 -0.3815 Q 0.088 -0.41000000000000003 0.11950000000000001 -0.431 Q 0.151 -0.452 0.188 -0.452 Q 0.233 -0.452 0.267 -0.4275 Q 0.301 -0.403 0.301 -0.362 Q 0.301 -0.34600000000000003 0.28800000000000003 -0.312 Q 0.229 -0.16 0.229 -0.101 Q 0.229 -0.028 0.289 -0.028 Q 0.319 -0.028 0.357 -0.052000000000000005 Q 0.36 -0.054 0.3675 -0.06 Q 0.375 -0.066 0.3845 -0.078 Q 0.394 -0.09 0.396 -0.1 Q 0.403 -0.127 0.438 -0.266 L 0.464 -0.37 Q 0.468 -0.385 0.47100000000000003 -0.394 Q 0.47400000000000003 -0.403 0.482 -0.4165 Q 0.49 -0.43 0.5035000000000001 -0.437 Q 0.517 -0.444 0.535 -0.444 Q 0.557 -0.444 0.5695 -0.431 Q 0.582 -0.418 0.582 -0.4 Q 0.582 -0.395 0.577 -0.377 Z"/></g></g><g transform="scale(19,19)"><g transform="translate(33.05263157894737,22.14254352631579)"><path fill="rgb(0,0,0)" stroke="none" paint-order="stroke fill markers" d=" M 0.1318359375 -0.0361328125 L 0.02490234375 -0.421875 Q 0.02490234375 -0.4248046875 0.024658203125 -0.426513671875 Q 0.0244140625 -0.42822265625 0.02392578125 -0.43017578125 Q 0.02392578125 -0.44091796875 0.032958984375 -0.449462890625 Q 0.0419921875 -0.4580078125 0.05322265625 -0.4580078125 L 0.10400390625 -0.4580078125 Q 0.12060546875 -0.4580078125 0.133544921875 -0.44775390625 Q 0.146484375 -0.4375 0.15087890625 -0.421875 L 0.22998046875 -0.13720703125 L 0.30908203125 -0.421875 Q 0.3134765625 -0.43798828125 0.326904296875 -0.447998046875 Q 0.34033203125 -0.4580078125 0.35693359375 -0.4580078125 L 0.380859375 -0.4580078125 Q 0.39697265625 -0.4580078125 0.410400390625 -0.447509765625 Q 0.423828125 -0.43701171875 0.42822265625 -0.421875 L 0.51123046875 -0.12109375 L 0.59521484375 -0.421875 Q 0.599609375 -0.4375 0.61279296875 -0.44775390625 Q 0.6259765625 -0.4580078125 0.64208984375 -0.4580078125 L 0.68994140625 -0.4580078125 Q 0.7021484375 -0.4580078125 0.710693359375 -0.449462890625 Q 0.71923828125 -0.44091796875 0.71923828125 -0.43017578125 Q 0.71923828125 -0.4287109375 0.71875 -0.42626953125 Q 0.71826171875 -0.423828125 0.7177734375 -0.421875 L 0.61083984375 -0.0361328125 Q 0.6064453125 -0.02001953125 0.593017578125 -0.010009765625 Q 0.57958984375 0 0.56298828125 0 L 0.46484375 0 Q 0.44873046875 0 0.435546875 -0.010009765625 Q 0.42236328125 -0.02001953125 0.41796875 -0.0361328125 Q 0.384765625 -0.158203125 0.368408203125 -0.223876953125 Q 0.35205078125 -0.28955078125 0.35205078125 -0.31787109375 Q 0.3515625 -0.296875 0.34130859375 -0.250732421875 Q 0.3310546875 -0.20458984375 0.312744140625 -0.1357421875 Q 0.29443359375 -0.06689453125 0.2861328125 -0.0361328125 Q 0.28173828125 -0.0205078125 0.267822265625 -0.01025390625 Q 0.25390625 0 0.23779296875 0 L 0.18017578125 0 Q 0.16357421875 0 0.150390625 -0.009765625 Q 0.13720703125 -0.01953125 0.1318359375 -0.0361328125 Z"/></g></g><g transform="scale(19,19)"><g transform="translate(37.1578947368421,22.18128710526316)"><path fill="rgb(0,0,0)" stroke="none" paint-order="stroke fill markers" d=" M 0.7020000000000001 -0.327 L 0.7020000000000001 -0.105 Q 0.7020000000000001 -0.061 0.671 -0.061 Q 0.641 -0.061 0.641 -0.105 L 0.641 -0.31 L 0.109 -0.31 Q 0.064 -0.31 0.064 -0.341 Q 0.064 -0.371 0.109 -0.371 L 0.657 -0.371 Q 0.684 -0.371 0.6930000000000001 -0.3625 Q 0.7020000000000001 -0.354 0.7020000000000001 -0.327 Z"/></g><g transform="translate(37.924557736842104,22.18128710526316)"><path fill="rgb(0,0,0)" stroke="none" paint-order="stroke fill markers" d=" M 0.556 -0.355 L 0.542 -0.299 Q 0.534 -0.267 0.517 -0.198 Q 0.501 -0.131 0.501 -0.107 Q 0.501 -0.028 0.5740000000000001 -0.028 Q 0.634 -0.028 0.677 -0.10400000000000001 Q 0.6980000000000001 -0.14100000000000001 0.7155 -0.1975 Q 0.733 -0.254 0.733 -0.269 Q 0.733 -0.303 0.683 -0.332 Q 0.653 -0.34900000000000003 0.653 -0.377 Q 0.653 -0.404 0.677 -0.4285 Q 0.7010000000000001 -0.453 0.729 -0.453 Q 0.734 -0.453 0.741 -0.451 Q 0.748 -0.449 0.7625000000000001 -0.442 Q 0.777 -0.435 0.787 -0.41400000000000003 Q 0.797 -0.393 0.797 -0.362 Q 0.797 -0.32 0.776 -0.241 Q 0.755 -0.162 0.726 -0.109 Q 0.665 0.008 0.5670000000000001 0.008 Q 0.461 0.008 0.417 -0.048 Q 0.371 0.008 0.305 0.008 Q 0.256 0.008 0.2185 -0.002 Q 0.181 -0.012 0.152 -0.044 Q 0.123 -0.076 0.123 -0.128 Q 0.123 -0.182 0.177 -0.316 Q 0.199 -0.373 0.199 -0.395 Q 0.199 -0.41600000000000004 0.182 -0.41600000000000004 Q 0.17300000000000001 -0.41600000000000004 0.163 -0.41200000000000003 Q 0.153 -0.40800000000000003 0.1375 -0.3975 Q 0.122 -0.387 0.1065 -0.3605 Q 0.091 -0.334 0.079 -0.295 Q 0.075 -0.28200000000000003 0.056 -0.28200000000000003 Q 0.032 -0.28200000000000003 0.032 -0.296 Q 0.032 -0.306 0.042 -0.3295 Q 0.052000000000000005 -0.353 0.07 -0.3815 Q 0.088 -0.41000000000000003 0.11950000000000001 -0.431 Q 0.151 -0.452 0.188 -0.452 Q 0.233 -0.452 0.267 -0.4275 Q 0.301 -0.403 0.301 -0.362 Q 0.301 -0.34600000000000003 0.28300000000000003 -0.301 Q 0.231 -0.168 0.231 -0.11 Q 0.231 -0.028 0.312 -0.028 Q 0.34900000000000003 -0.028 0.373 -0.0555 Q 0.397 -0.083 0.397 -0.094 L 0.396 -0.10200000000000001 Q 0.394 -0.11 0.394 -0.126 Q 0.394 -0.152 0.402 -0.187 Q 0.43 -0.304 0.453 -0.391 Q 0.462 -0.421 0.4815 -0.4325 Q 0.501 -0.444 0.519 -0.444 Q 0.541 -0.444 0.5535 -0.431 Q 0.5660000000000001 -0.418 0.5660000000000001 -0.4 Q 0.5660000000000001 -0.392 0.556 -0.355 Z"/></g></g><g transform="scale(19,19)"><g transform="translate(48.94736842105263,22.195175105263157)"><path fill="rgb(0,0,0)" stroke="none" paint-order="stroke fill markers" d=" M 0.06689453125 0 Q 0.05126953125 0 0.041015625 -0.01025390625 Q 0.03076171875 -0.0205078125 0.03076171875 -0.0361328125 L 0.03076171875 -0.05078125 Q 0.03076171875 -0.060546875 0.0390625 -0.0732421875 L 0.283203125 -0.384765625 L 0.083984375 -0.3828125 Q 0.05078125 -0.3828125 0.0458984375 -0.4169921875 L 0.0458984375 -0.423828125 Q 0.04931640625 -0.45458984375 0.080078125 -0.4580078125 L 0.40185546875 -0.4580078125 Q 0.4091796875 -0.4580078125 0.415771484375 -0.45556640625 Q 0.42236328125 -0.453125 0.427734375 -0.44775390625 Q 0.43310546875 -0.4423828125 0.435546875 -0.43603515625 Q 0.43798828125 -0.4296875 0.43798828125 -0.421875 L 0.43798828125 -0.41015625 Q 0.43798828125 -0.3984375 0.43115234375 -0.38818359375 L 0.18701171875 -0.0771484375 L 0.40283203125 -0.0791015625 Q 0.4189453125 -0.0791015625 0.428955078125 -0.069580078125 Q 0.43896484375 -0.06005859375 0.44091796875 -0.044921875 L 0.44091796875 -0.0341796875 Q 0.4375 -0.00341796875 0.4072265625 0 L 0.06689453125 0 Z"/></g></g><g transform="scale(19,19)"><g transform="translate(52.73684210526316,22.18128710526316)"><path fill="rgb(0,0,0)" stroke="none" paint-order="stroke fill markers" d=" M 0.7020000000000001 -0.327 L 0.7020000000000001 -0.105 Q 0.7020000000000001 -0.061 0.671 -0.061 Q 0.641 -0.061 0.641 -0.105 L 0.641 -0.31 L 0.109 -0.31 Q 0.064 -0.31 0.064 -0.341 Q 0.064 -0.371 0.109 -0.371 L 0.657 -0.371 Q 0.684 -0.371 0.6930000000000001 -0.3625 Q 0.7020000000000001 -0.354 0.7020000000000001 -0.327 Z"/></g><g transform="translate(53.50350510526316,22.18128710526316)"><path fill="rgb(0,0,0)" stroke="none" paint-order="stroke fill markers" d=" M 0.241 -0.341 L 0.221 -0.341 Q 0.185 -0.339 0.17 -0.331 Q 0.167 -0.318 0.147 -0.318 Q 0.123 -0.318 0.123 -0.332 Q 0.123 -0.363 0.166 -0.40750000000000003 Q 0.209 -0.452 0.268 -0.452 Q 0.306 -0.452 0.354 -0.41600000000000004 Q 0.4 -0.384 0.425 -0.384 Q 0.442 -0.384 0.457 -0.398 Q 0.47200000000000003 -0.41200000000000003 0.492 -0.442 Q 0.496 -0.449 0.4995 -0.4505 Q 0.503 -0.452 0.515 -0.452 Q 0.538 -0.452 0.538 -0.438 Q 0.538 -0.435 0.5305 -0.422 Q 0.523 -0.40900000000000003 0.503 -0.3835 Q 0.483 -0.358 0.4335 -0.313 Q 0.384 -0.268 0.314 -0.215 Q 0.215 -0.14 0.168 -0.095 Q 0.171 -0.095 0.2305 -0.0975 Q 0.29 -0.1 0.339 -0.10250000000000001 Q 0.388 -0.105 0.391 -0.105 Q 0.422 -0.109 0.4415 -0.11900000000000001 Q 0.461 -0.129 0.4655 -0.136 Q 0.47000000000000003 -0.14300000000000002 0.47700000000000004 -0.157 Q 0.48 -0.166 0.498 -0.166 Q 0.522 -0.166 0.522 -0.152 Q 0.522 -0.113 0.4665 -0.0525 Q 0.41100000000000003 0.008 0.337 0.008 Q 0.299 0.008 0.243 -0.032 Q 0.20500000000000002 -0.06 0.178 -0.06 Q 0.13 -0.06 0.089 -0.003 Q 0.084 0.005 0.0805 0.006500000000000001 Q 0.077 0.008 0.065 0.008 Q 0.042 0.008 0.042 -0.006 Q 0.042 -0.009000000000000001 0.0495 -0.022 Q 0.057 -0.035 0.077 -0.0605 Q 0.097 -0.08600000000000001 0.1465 -0.131 Q 0.196 -0.176 0.266 -0.229 Q 0.364 -0.303 0.41100000000000003 -0.34800000000000003 Q 0.393 -0.34800000000000003 0.28200000000000003 -0.342 Q 0.275 -0.342 0.2615 -0.342 Q 0.248 -0.342 0.241 -0.341 Z"/></g></g><g transform="scale(19,19)"><g transform="translate(19.42105263157895,25.957602894736844)"><path fill="rgb(0,0,0)" stroke="none" paint-order="stroke fill markers" d=" M 0.633 -0.643 L 0.35100000000000003 -0.01 Q 0.34600000000000003 0 0.3435 0.004 Q 0.341 0.008 0.3345 0.0125 Q 0.328 0.017 0.319 0.017 Q 0.306 0.017 0.3 0.0105 Q 0.294 0.004 0.28800000000000003 -0.01 L 0.006 -0.644 Q 0 -0.659 0 -0.663 Q 0 -0.676 0.009000000000000001 -0.685 Q 0.018000000000000002 -0.6940000000000001 0.031 -0.6940000000000001 Q 0.044 -0.6940000000000001 0.05 -0.6875 Q 0.056 -0.681 0.062 -0.667 L 0.148 -0.47500000000000003 L 0.491 -0.47500000000000003 L 0.577 -0.667 Q 0.588 -0.6940000000000001 0.609 -0.6940000000000001 Q 0.62 -0.6940000000000001 0.6295000000000001 -0.6855 Q 0.639 -0.677 0.639 -0.663 Q 0.639 -0.656 0.633 -0.643 M 0.17500000000000002 -0.41400000000000003 L 0.32 -0.088 L 0.464 -0.41400000000000003 L 0.17500000000000002 -0.41400000000000003 Z"/></g><g transform="translate(20.05993813157895,25.957602894736844)"><path fill="rgb(0,0,0)" stroke="none" paint-order="stroke fill markers" d=" M 0.536 -0.401 Q 0.516 -0.41600000000000004 0.488 -0.41600000000000004 Q 0.461 -0.41600000000000004 0.4375 -0.392 Q 0.41400000000000003 -0.368 0.403 -0.325 Q 0.4 -0.316 0.385 -0.257 Q 0.37 -0.198 0.368 -0.189 Q 0.34600000000000003 -0.099 0.34600000000000003 -0.078 Q 0.34600000000000003 -0.028 0.402 -0.028 Q 0.44 -0.028 0.482 -0.0575 Q 0.524 -0.08700000000000001 0.544 -0.149 Q 0.548 -0.162 0.5670000000000001 -0.162 Q 0.591 -0.162 0.591 -0.148 Q 0.591 -0.134 0.578 -0.1095 Q 0.5650000000000001 -0.085 0.542 -0.058 Q 0.519 -0.031 0.48 -0.0115 Q 0.441 0.008 0.397 0.008 Q 0.295 0.008 0.259 -0.053 Q 0.215 0.008 0.152 0.008 Q 0.105 0.008 0.07150000000000001 -0.0165 Q 0.038 -0.041 0.038 -0.08 Q 0.038 -0.115 0.06 -0.1365 Q 0.082 -0.158 0.11 -0.158 Q 0.133 -0.158 0.1465 -0.14400000000000002 Q 0.16 -0.13 0.16 -0.112 Q 0.16 -0.091 0.1455 -0.07050000000000001 Q 0.131 -0.05 0.106 -0.043000000000000003 Q 0.126 -0.028 0.154 -0.028 Q 0.181 -0.028 0.20450000000000002 -0.051500000000000004 Q 0.228 -0.075 0.23900000000000002 -0.11900000000000001 L 0.273 -0.256 Q 0.296 -0.34800000000000003 0.296 -0.366 Q 0.296 -0.41600000000000004 0.24 -0.41600000000000004 Q 0.202 -0.41600000000000004 0.16 -0.3865 Q 0.11800000000000001 -0.357 0.098 -0.295 Q 0.094 -0.28200000000000003 0.075 -0.28200000000000003 Q 0.051000000000000004 -0.28200000000000003 0.051000000000000004 -0.296 Q 0.051000000000000004 -0.31 0.064 -0.3345 Q 0.077 -0.359 0.1 -0.386 Q 0.123 -0.41300000000000003 0.162 -0.4325 Q 0.201 -0.452 0.245 -0.452 Q 0.34700000000000003 -0.452 0.383 -0.391 Q 0.427 -0.452 0.49 -0.452 Q 0.537 -0.452 0.5705 -0.4275 Q 0.604 -0.403 0.604 -0.364 Q 0.604 -0.329 0.582 -0.3075 Q 0.56 -0.28600000000000003 0.532 -0.28600000000000003 Q 0.509 -0.28600000000000003 0.4955 -0.3 Q 0.482 -0.314 0.482 -0.332 Q 0.482 -0.353 0.4965 -0.3735 Q 0.511 -0.394 0.536 -0.401 Z"/></g></g><g transform="scale(19,19)"><g transform="translate(27.42105263157895,25.957602894736844)"><path fill="rgb(0,0,0)" stroke="none" paint-order="stroke fill markers" d=" M 0.5740000000000001 -0.65 L 0.5740000000000001 -0.044 Q 0.5740000000000001 -0.017 0.5650000000000001 -0.0085 Q 0.556 0 0.529 0 L 0.109 0 Q 0.064 0 0.064 -0.031 Q 0.064 -0.061 0.109 -0.061 L 0.513 -0.061 L 0.513 -0.317 L 0.122 -0.317 Q 0.08 -0.317 0.08 -0.34700000000000003 Q 0.08 -0.378 0.128 -0.378 L 0.513 -0.378 L 0.513 -0.633 L 0.109 -0.633 Q 0.064 -0.633 0.064 -0.664 Q 0.064 -0.6940000000000001 0.109 -0.6940000000000001 L 0.529 -0.6940000000000001 Q 0.556 -0.6940000000000001 0.5650000000000001 -0.6855 Q 0.5740000000000001 -0.677 0.5740000000000001 -0.65 Z"/></g><g transform="translate(28.05993813157895,25.957602894736844)"><path fill="rgb(0,0,0)" stroke="none" paint-order="stroke fill markers" d=" M 0.04296875 0.18603515625 L 0.0361328125 0.10498046875 Q 0.0361328125 0.0908203125 0.048828125 0.0908203125 Q 0.04736328125 0.0908203125 0.07666015625 0.103515625 Q 0.10595703125 0.1162109375 0.1279296875 0.1162109375 Q 0.15234375 0.1162109375 0.17236328125 0.099853515625 Q 0.1923828125 0.08349609375 0.201171875 0.05908203125 L 0.22119140625 0 L 0.03076171875 -0.421875 Q 0.02880859375 -0.427734375 0.02880859375 -0.43212890625 Q 0.02880859375 -0.4423828125 0.03662109375 -0.4501953125 Q 0.04443359375 -0.4580078125 0.05517578125 -0.4580078125 L 0.10888671875 -0.4580078125 Q 0.12646484375 -0.4580078125 0.14208984375 -0.44775390625 Q 0.15771484375 -0.4375 0.1640625 -0.421875 Q 0.26708984375 -0.19677734375 0.26806640625 -0.14013671875 Q 0.26806640625 -0.16162109375 0.279541015625 -0.205078125 Q 0.291015625 -0.24853515625 0.31103515625 -0.309326171875 Q 0.3310546875 -0.3701171875 0.34814453125 -0.421875 Q 0.3525390625 -0.43798828125 0.365966796875 -0.447998046875 Q 0.37939453125 -0.4580078125 0.39599609375 -0.4580078125 L 0.44580078125 -0.4580078125 Q 0.45751953125 -0.4580078125 0.46533203125 -0.4501953125 Q 0.47314453125 -0.4423828125 0.47314453125 -0.43115234375 Q 0.47314453125 -0.4248046875 0.47216796875 -0.421875 L 0.30810546875 0.05908203125 Q 0.29443359375 0.099609375 0.268310546875 0.13232421875 Q 0.2421875 0.1650390625 0.2060546875 0.18505859375 Q 0.169921875 0.205078125 0.1279296875 0.205078125 Q 0.1025390625 0.205078125 0.073974609375 0.200927734375 Q 0.04541015625 0.19677734375 0.04296875 0.18603515625 Z"/></g></g><g transform="scale(19,19)"><g transform="translate(35.21052631578947,26.115497631578947)"><path fill="rgb(0,0,0)" stroke="none" paint-order="stroke fill markers" d=" M 0.633 -0.643 L 0.35100000000000003 -0.01 Q 0.34600000000000003 0 0.3435 0.004 Q 0.341 0.008 0.3345 0.0125 Q 0.328 0.017 0.319 0.017 Q 0.306 0.017 0.3 0.0105 Q 0.294 0.004 0.28800000000000003 -0.01 L 0.006 -0.644 Q 0 -0.659 0 -0.663 Q 0 -0.676 0.009000000000000001 -0.685 Q 0.018000000000000002 -0.6940000000000001 0.031 -0.6940000000000001 Q 0.044 -0.6940000000000001 0.05 -0.6875 Q 0.056 -0.681 0.062 -0.667 L 0.148 -0.47500000000000003 L 0.491 -0.47500000000000003 L 0.577 -0.667 Q 0.588 -0.6940000000000001 0.609 -0.6940000000000001 Q 0.62 -0.6940000000000001 0.6295000000000001 -0.6855 Q 0.639 -0.677 0.639 -0.663 Q 0.639 -0.656 0.633 -0.643 M 0.17500000000000002 -0.41400000000000003 L 0.32 -0.088 L 0.464 -0.41400000000000003 L 0.17500000000000002 -0.41400000000000003 Z"/></g><g transform="translate(35.84941181578947,26.115497631578947)"><path fill="rgb(0,0,0)" stroke="none" paint-order="stroke fill markers" d=" M 0.556 -0.355 L 0.542 -0.299 Q 0.534 -0.267 0.517 -0.198 Q 0.501 -0.131 0.501 -0.107 Q 0.501 -0.028 0.5740000000000001 -0.028 Q 0.634 -0.028 0.677 -0.10400000000000001 Q 0.6980000000000001 -0.14100000000000001 0.7155 -0.1975 Q 0.733 -0.254 0.733 -0.269 Q 0.733 -0.303 0.683 -0.332 Q 0.653 -0.34900000000000003 0.653 -0.377 Q 0.653 -0.404 0.677 -0.4285 Q 0.7010000000000001 -0.453 0.729 -0.453 Q 0.734 -0.453 0.741 -0.451 Q 0.748 -0.449 0.7625000000000001 -0.442 Q 0.777 -0.435 0.787 -0.41400000000000003 Q 0.797 -0.393 0.797 -0.362 Q 0.797 -0.32 0.776 -0.241 Q 0.755 -0.162 0.726 -0.109 Q 0.665 0.008 0.5670000000000001 0.008 Q 0.461 0.008 0.417 -0.048 Q 0.371 0.008 0.305 0.008 Q 0.256 0.008 0.2185 -0.002 Q 0.181 -0.012 0.152 -0.044 Q 0.123 -0.076 0.123 -0.128 Q 0.123 -0.182 0.177 -0.316 Q 0.199 -0.373 0.199 -0.395 Q 0.199 -0.41600000000000004 0.182 -0.41600000000000004 Q 0.17300000000000001 -0.41600000000000004 0.163 -0.41200000000000003 Q 0.153 -0.40800000000000003 0.1375 -0.3975 Q 0.122 -0.387 0.1065 -0.3605 Q 0.091 -0.334 0.079 -0.295 Q 0.075 -0.28200000000000003 0.056 -0.28200000000000003 Q 0.032 -0.28200000000000003 0.032 -0.296 Q 0.032 -0.306 0.042 -0.3295 Q 0.052000000000000005 -0.353 0.07 -0.3815 Q 0.088 -0.41000000000000003 0.11950000000000001 -0.431 Q 0.151 -0.452 0.188 -0.452 Q 0.233 -0.452 0.267 -0.4275 Q 0.301 -0.403 0.301 -0.362 Q 0.301 -0.34600000000000003 0.28300000000000003 -0.301 Q 0.231 -0.168 0.231 -0.11 Q 0.231 -0.028 0.312 -0.028 Q 0.34900000000000003 -0.028 0.373 -0.0555 Q 0.397 -0.083 0.397 -0.094 L 0.396 -0.10200000000000001 Q 0.394 -0.11 0.394 -0.126 Q 0.394 -0.152 0.402 -0.187 Q 0.43 -0.304 0.453 -0.391 Q 0.462 -0.421 0.4815 -0.4325 Q 0.501 -0.444 0.519 -0.444 Q 0.541 -0.444 0.5535 -0.431 Q 0.5660000000000001 -0.418 0.5660000000000001 -0.4 Q 0.5660000000000001 -0.392 0.556 -0.355 Z"/></g></g><g transform="scale(19,19)"><g transform="translate(51.05263157894737,26.010234473684207)"><path fill="rgb(0,0,0)" stroke="none" paint-order="stroke fill markers" d=" M 0.5740000000000001 -0.65 L 0.5740000000000001 -0.044 Q 0.5740000000000001 -0.017 0.5650000000000001 -0.0085 Q 0.556 0 0.529 0 L 0.109 0 Q 0.064 0 0.064 -0.031 Q 0.064 -0.061 0.109 -0.061 L 0.513 -0.061 L 0.513 -0.317 L 0.122 -0.317 Q 0.08 -0.317 0.08 -0.34700000000000003 Q 0.08 -0.378 0.128 -0.378 L 0.513 -0.378 L 0.513 -0.633 L 0.109 -0.633 Q 0.064 -0.633 0.064 -0.664 Q 0.064 -0.6940000000000001 0.109 -0.6940000000000001 L 0.529 -0.6940000000000001 Q 0.556 -0.6940000000000001 0.5650000000000001 -0.6855 Q 0.5740000000000001 -0.677 0.5740000000000001 -0.65 Z"/></g><g transform="translate(51.69151707894737,26.010234473684207)"><path fill="rgb(0,0,0)" stroke="none" paint-order="stroke fill markers" d=" M 0.241 -0.341 L 0.221 -0.341 Q 0.185 -0.339 0.17 -0.331 Q 0.167 -0.318 0.147 -0.318 Q 0.123 -0.318 0.123 -0.332 Q 0.123 -0.363 0.166 -0.40750000000000003 Q 0.209 -0.452 0.268 -0.452 Q 0.306 -0.452 0.354 -0.41600000000000004 Q 0.4 -0.384 0.425 -0.384 Q 0.442 -0.384 0.457 -0.398 Q 0.47200000000000003 -0.41200000000000003 0.492 -0.442 Q 0.496 -0.449 0.4995 -0.4505 Q 0.503 -0.452 0.515 -0.452 Q 0.538 -0.452 0.538 -0.438 Q 0.538 -0.435 0.5305 -0.422 Q 0.523 -0.40900000000000003 0.503 -0.3835 Q 0.483 -0.358 0.4335 -0.313 Q 0.384 -0.268 0.314 -0.215 Q 0.215 -0.14 0.168 -0.095 Q 0.171 -0.095 0.2305 -0.0975 Q 0.29 -0.1 0.339 -0.10250000000000001 Q 0.388 -0.105 0.391 -0.105 Q 0.422 -0.109 0.4415 -0.11900000000000001 Q 0.461 -0.129 0.4655 -0.136 Q 0.47000000000000003 -0.14300000000000002 0.47700000000000004 -0.157 Q 0.48 -0.166 0.498 -0.166 Q 0.522 -0.166 0.522 -0.152 Q 0.522 -0.113 0.4665 -0.0525 Q 0.41100000000000003 0.008 0.337 0.008 Q 0.299 0.008 0.243 -0.032 Q 0.20500000000000002 -0.06 0.178 -0.06 Q 0.13 -0.06 0.089 -0.003 Q 0.084 0.005 0.0805 0.006500000000000001 Q 0.077 0.008 0.065 0.008 Q 0.042 0.008 0.042 -0.006 Q 0.042 -0.009000000000000001 0.0495 -0.022 Q 0.057 -0.035 0.077 -0.0605 Q 0.097 -0.08600000000000001 0.1465 -0.131 Q 0.196 -0.176 0.266 -0.229 Q 0.364 -0.303 0.41100000000000003 -0.34800000000000003 Q 0.393 -0.34800000000000003 0.28200000000000003 -0.342 Q 0.275 -0.342 0.2615 -0.342 Q 0.248 -0.342 0.241 -0.341 Z"/></g></g><g transform="scale(19,19)"><g transform="translate(42.94736842105263,26.03070142105263)"><path fill="rgb(0,0,0)" stroke="none" paint-order="stroke fill markers" d=" M 0.18 -0.083 L 0.18 0 L 0.097 0 L 0.097 -0.083 L 0.18 -0.083 Z"/></g><g transform="translate(43.44737030994152,26.03070142105263)"><path fill="rgb(0,0,0)" stroke="none" paint-order="stroke fill markers" d=" M 0.18 -0.083 L 0.18 0 L 0.097 0 L 0.097 -0.083 L 0.18 -0.083 Z"/></g><g transform="translate(43.94737219883041,26.03070142105263)"><path fill="rgb(0,0,0)" stroke="none" paint-order="stroke fill markers" d=" M 0.18 -0.083 L 0.18 0 L 0.097 0 L 0.097 -0.083 L 0.18 -0.083 Z"/></g></g><text fill="rgb(0,0,0)" stroke="none" font-family="geogebra-sans-serif, sans-serif" font-size="16px" font-style="normal" font-weight="bold" text-decoration="normal" x="1302" y="472" text-anchor="start" dominant-baseline="alphabetic" fill-opacity="1">satisfied</text><text fill="rgb(0,0,0)" stroke="none" font-family="geogebra-sans-serif, sans-serif" font-size="16px" font-style="normal" font-weight="bold" text-decoration="normal" x="1079" y="570" text-anchor="start" dominant-baseline="alphabetic" fill-opacity="1">satisfied in</text><text fill="rgb(0,0,0)" stroke="none" font-family="geogebra-sans-serif, sans-serif" font-size="16px" font-style="normal" font-weight="bold" text-decoration="normal" x="179" y="569" text-anchor="start" dominant-baseline="alphabetic" fill-opacity="1">satisfied out</text><text fill="rgb(0,0,0)" stroke="none" font-family="geogebra-sans-serif, sans-serif" font-size="16px" font-style="normal" font-weight="bold" text-decoration="normal" x="209" y="437" text-anchor="start" dominant-baseline="alphabetic" fill-opacity="1">try in</text><text fill="rgb(0,0,0)" stroke="none" font-family="geogebra-sans-serif, sans-serif" font-size="16px" font-style="normal" font-weight="bold" text-decoration="normal" x="1109" y="439" text-anchor="start" dominant-baseline="alphabetic" fill-opacity="1">try out</text><text fill="rgb(0,0,0)" stroke="none" font-family="geogebra-sans-serif, sans-serif" font-size="22px" font-style="normal" font-weight="bold" text-decoration="normal" x="680" y="306" text-anchor="start" dominant-baseline="alphabetic" fill-opacity="1">CNF Logic</text><g transform="scale(25,25)"><g transform="translate(2.6,6.03)"><path fill="rgb(0,0,0)" stroke="none" paint-order="stroke fill markers" d=" M 0.506 -0.665 L 0.454 -0.455 Q 0.5630000000000001 -0.451 0.625 -0.401 Q 0.687 -0.35100000000000003 0.687 -0.27 Q 0.687 -0.167 0.595 -0.0825 Q 0.503 0.002 0.358 0.011 Q 0.34 0.012 0.338 0.013000000000000001 Q 0.336 0.015 0.329 0.044 L 0.294 0.184 Q 0.291 0.196 0.28650000000000003 0.199 Q 0.28200000000000003 0.202 0.269 0.202 Q 0.246 0.202 0.246 0.188 L 0.289 0.011 Q 0.18 0.007 0.11800000000000001 -0.043000000000000003 Q 0.056 -0.093 0.056 -0.17400000000000002 Q 0.056 -0.276 0.147 -0.361 Q 0.23800000000000002 -0.446 0.385 -0.455 Q 0.401 -0.456 0.405 -0.458 Q 0.406 -0.459 0.41000000000000003 -0.47300000000000003 L 0.46 -0.671 Q 0.464 -0.687 0.4675 -0.6905 Q 0.47100000000000003 -0.6940000000000001 0.486 -0.6940000000000001 Q 0.509 -0.6940000000000001 0.509 -0.68 Q 0.509 -0.677 0.506 -0.665 M 0.298 -0.025 L 0.397 -0.419 Q 0.28200000000000003 -0.40900000000000003 0.222 -0.334 Q 0.188 -0.291 0.17350000000000002 -0.23650000000000002 Q 0.159 -0.182 0.159 -0.148 Q 0.159 -0.033 0.298 -0.025 M 0.445 -0.419 L 0.34600000000000003 -0.025 Q 0.461 -0.035 0.521 -0.11 Q 0.555 -0.153 0.5695 -0.20750000000000002 Q 0.584 -0.262 0.584 -0.296 Q 0.584 -0.41100000000000003 0.445 -0.419 Z"/></g><g transform="translate(3.5902746111111115,6.03)"><path fill="rgb(0,0,0)" stroke="none" paint-order="stroke fill markers" d=" M 0.788 -0.332 L 0.105 -0.332 Q 0.064 -0.332 0.064 -0.362 Q 0.064 -0.393 0.11 -0.393 L 0.783 -0.393 Q 0.8290000000000001 -0.393 0.8290000000000001 -0.362 Q 0.8290000000000001 -0.332 0.788 -0.332 M 0.783 -0.108 L 0.11 -0.108 Q 0.064 -0.108 0.064 -0.139 Q 0.064 -0.169 0.105 -0.169 L 0.788 -0.169 Q 0.8290000000000001 -0.169 0.8290000000000001 -0.139 Q 0.8290000000000001 -0.108 0.783 -0.108 Z"/></g><g transform="translate(4.762493222222222,6.03)"><path fill="rgb(0,0,0)" stroke="none" paint-order="stroke fill markers" d=" M 0.633 -0.643 L 0.35100000000000003 -0.01 Q 0.34600000000000003 0 0.3435 0.004 Q 0.341 0.008 0.3345 0.0125 Q 0.328 0.017 0.319 0.017 Q 0.306 0.017 0.3 0.0105 Q 0.294 0.004 0.28800000000000003 -0.01 L 0.006 -0.644 Q 0 -0.659 0 -0.663 Q 0 -0.676 0.009000000000000001 -0.685 Q 0.018000000000000002 -0.6940000000000001 0.031 -0.6940000000000001 Q 0.044 -0.6940000000000001 0.05 -0.6875 Q 0.056 -0.681 0.062 -0.667 L 0.148 -0.47500000000000003 L 0.491 -0.47500000000000003 L 0.577 -0.667 Q 0.588 -0.6940000000000001 0.609 -0.6940000000000001 Q 0.62 -0.6940000000000001 0.6295000000000001 -0.6855 Q 0.639 -0.677 0.639 -0.663 Q 0.639 -0.656 0.633 -0.643 M 0.17500000000000002 -0.41400000000000003 L 0.32 -0.088 L 0.464 -0.41400000000000003 L 0.17500000000000002 -0.41400000000000003 Z"/></g><g transform="translate(5.401378722222222,6.03)"><path fill="rgb(0,0,0)" stroke="none" paint-order="stroke fill markers" d=" M 0.536 -0.401 Q 0.516 -0.41600000000000004 0.488 -0.41600000000000004 Q 0.461 -0.41600000000000004 0.4375 -0.392 Q 0.41400000000000003 -0.368 0.403 -0.325 Q 0.4 -0.316 0.385 -0.257 Q 0.37 -0.198 0.368 -0.189 Q 0.34600000000000003 -0.099 0.34600000000000003 -0.078 Q 0.34600000000000003 -0.028 0.402 -0.028 Q 0.44 -0.028 0.482 -0.0575 Q 0.524 -0.08700000000000001 0.544 -0.149 Q 0.548 -0.162 0.5670000000000001 -0.162 Q 0.591 -0.162 0.591 -0.148 Q 0.591 -0.134 0.578 -0.1095 Q 0.5650000000000001 -0.085 0.542 -0.058 Q 0.519 -0.031 0.48 -0.0115 Q 0.441 0.008 0.397 0.008 Q 0.295 0.008 0.259 -0.053 Q 0.215 0.008 0.152 0.008 Q 0.105 0.008 0.07150000000000001 -0.0165 Q 0.038 -0.041 0.038 -0.08 Q 0.038 -0.115 0.06 -0.1365 Q 0.082 -0.158 0.11 -0.158 Q 0.133 -0.158 0.1465 -0.14400000000000002 Q 0.16 -0.13 0.16 -0.112 Q 0.16 -0.091 0.1455 -0.07050000000000001 Q 0.131 -0.05 0.106 -0.043000000000000003 Q 0.126 -0.028 0.154 -0.028 Q 0.181 -0.028 0.20450000000000002 -0.051500000000000004 Q 0.228 -0.075 0.23900000000000002 -0.11900000000000001 L 0.273 -0.256 Q 0.296 -0.34800000000000003 0.296 -0.366 Q 0.296 -0.41600000000000004 0.24 -0.41600000000000004 Q 0.202 -0.41600000000000004 0.16 -0.3865 Q 0.11800000000000001 -0.357 0.098 -0.295 Q 0.094 -0.28200000000000003 0.075 -0.28200000000000003 Q 0.051000000000000004 -0.28200000000000003 0.051000000000000004 -0.296 Q 0.051000000000000004 -0.31 0.064 -0.3345 Q 0.077 -0.359 0.1 -0.386 Q 0.123 -0.41300000000000003 0.162 -0.4325 Q 0.201 -0.452 0.245 -0.452 Q 0.34700000000000003 -0.452 0.383 -0.391 Q 0.427 -0.452 0.49 -0.452 Q 0.537 -0.452 0.5705 -0.4275 Q 0.604 -0.403 0.604 -0.364 Q 0.604 -0.329 0.582 -0.3075 Q 0.56 -0.28600000000000003 0.532 -0.28600000000000003 Q 0.509 -0.28600000000000003 0.4955 -0.3 Q 0.482 -0.314 0.482 -0.332 Q 0.482 -0.353 0.4965 -0.3735 Q 0.511 -0.394 0.536 -0.401 Z"/></g><g transform="translate(6.060405722222222,6.03)"><path fill="rgb(0,0,0)" stroke="none" paint-order="stroke fill markers" d=" M 0.5740000000000001 -0.65 L 0.5740000000000001 -0.044 Q 0.5740000000000001 -0.017 0.5650000000000001 -0.0085 Q 0.556 0 0.529 0 L 0.109 0 Q 0.064 0 0.064 -0.031 Q 0.064 -0.061 0.109 -0.061 L 0.513 -0.061 L 0.513 -0.317 L 0.122 -0.317 Q 0.08 -0.317 0.08 -0.34700000000000003 Q 0.08 -0.378 0.128 -0.378 L 0.513 -0.378 L 0.513 -0.633 L 0.109 -0.633 Q 0.064 -0.633 0.064 -0.664 Q 0.064 -0.6940000000000001 0.109 -0.6940000000000001 L 0.529 -0.6940000000000001 Q 0.556 -0.6940000000000001 0.5650000000000001 -0.6855 Q 0.5740000000000001 -0.677 0.5740000000000001 -0.65 Z"/></g><g transform="translate(6.699291222222222,6.03)"><path fill="rgb(0,0,0)" stroke="none" paint-order="stroke fill markers" d=" M 0.577 -0.377 L 0.483 0.001 Q 0.461 0.09 0.3785 0.146 Q 0.296 0.202 0.20500000000000002 0.202 Q 0.145 0.202 0.108 0.178 Q 0.07100000000000001 0.154 0.07100000000000001 0.115 Q 0.07100000000000001 0.083 0.0925 0.061 Q 0.114 0.039 0.14300000000000002 0.039 Q 0.162 0.039 0.177 0.05 Q 0.192 0.061 0.192 0.085 Q 0.192 0.132 0.14400000000000002 0.152 Q 0.167 0.166 0.20500000000000002 0.166 Q 0.26 0.166 0.3085 0.116 Q 0.357 0.066 0.377 -0.022 Q 0.334 0.008 0.281 0.008 Q 0.254 0.008 0.2305 0.0035 Q 0.20700000000000002 -0.001 0.1805 -0.0135 Q 0.154 -0.026000000000000002 0.138 -0.054 Q 0.122 -0.082 0.122 -0.122 Q 0.122 -0.157 0.1355 -0.2005 Q 0.149 -0.244 0.182 -0.33 Q 0.199 -0.375 0.199 -0.395 Q 0.199 -0.405 0.196 -0.41000000000000003 Q 0.193 -0.41500000000000004 0.19 -0.41550000000000004 Q 0.187 -0.41600000000000004 0.182 -0.41600000000000004 Q 0.17400000000000002 -0.41600000000000004 0.1635 -0.41200000000000003 Q 0.153 -0.40800000000000003 0.1375 -0.3975 Q 0.122 -0.387 0.106 -0.3605 Q 0.09 -0.334 0.079 -0.295 Q 0.075 -0.28200000000000003 0.056 -0.28200000000000003 Q 0.032 -0.28200000000000003 0.032 -0.296 Q 0.032 -0.306 0.042 -0.3295 Q 0.052000000000000005 -0.353 0.07 -0.3815 Q 0.088 -0.41000000000000003 0.11950000000000001 -0.431 Q 0.151 -0.452 0.188 -0.452 Q 0.233 -0.452 0.267 -0.4275 Q 0.301 -0.403 0.301 -0.362 Q 0.301 -0.34600000000000003 0.28800000000000003 -0.312 Q 0.229 -0.16 0.229 -0.101 Q 0.229 -0.028 0.289 -0.028 Q 0.319 -0.028 0.357 -0.052000000000000005 Q 0.36 -0.054 0.3675 -0.06 Q 0.375 -0.066 0.3845 -0.078 Q 0.394 -0.09 0.396 -0.1 Q 0.403 -0.127 0.438 -0.266 L 0.464 -0.37 Q 0.468 -0.385 0.47100000000000003 -0.394 Q 0.47400000000000003 -0.403 0.482 -0.4165 Q 0.49 -0.43 0.5035000000000001 -0.437 Q 0.517 -0.444 0.535 -0.444 Q 0.557 -0.444 0.5695 -0.431 Q 0.582 -0.418 0.582 -0.4 Q 0.582 -0.395 0.577 -0.377 Z"/></g><g transform="translate(7.326605222222222,6.03)"><path fill="rgb(0,0,0)" stroke="none" paint-order="stroke fill markers" d=" M 0.633 -0.643 L 0.35100000000000003 -0.01 Q 0.34600000000000003 0 0.3435 0.004 Q 0.341 0.008 0.3345 0.0125 Q 0.328 0.017 0.319 0.017 Q 0.306 0.017 0.3 0.0105 Q 0.294 0.004 0.28800000000000003 -0.01 L 0.006 -0.644 Q 0 -0.659 0 -0.663 Q 0 -0.676 0.009000000000000001 -0.685 Q 0.018000000000000002 -0.6940000000000001 0.031 -0.6940000000000001 Q 0.044 -0.6940000000000001 0.05 -0.6875 Q 0.056 -0.681 0.062 -0.667 L 0.148 -0.47500000000000003 L 0.491 -0.47500000000000003 L 0.577 -0.667 Q 0.588 -0.6940000000000001 0.609 -0.6940000000000001 Q 0.62 -0.6940000000000001 0.6295000000000001 -0.6855 Q 0.639 -0.677 0.639 -0.663 Q 0.639 -0.656 0.633 -0.643 M 0.17500000000000002 -0.41400000000000003 L 0.32 -0.088 L 0.464 -0.41400000000000003 L 0.17500000000000002 -0.41400000000000003 Z"/></g><g transform="translate(7.9654907222222215,6.03)"><path fill="rgb(0,0,0)" stroke="none" paint-order="stroke fill markers" d=" M 0.556 -0.355 L 0.542 -0.299 Q 0.534 -0.267 0.517 -0.198 Q 0.501 -0.131 0.501 -0.107 Q 0.501 -0.028 0.5740000000000001 -0.028 Q 0.634 -0.028 0.677 -0.10400000000000001 Q 0.6980000000000001 -0.14100000000000001 0.7155 -0.1975 Q 0.733 -0.254 0.733 -0.269 Q 0.733 -0.303 0.683 -0.332 Q 0.653 -0.34900000000000003 0.653 -0.377 Q 0.653 -0.404 0.677 -0.4285 Q 0.7010000000000001 -0.453 0.729 -0.453 Q 0.734 -0.453 0.741 -0.451 Q 0.748 -0.449 0.7625000000000001 -0.442 Q 0.777 -0.435 0.787 -0.41400000000000003 Q 0.797 -0.393 0.797 -0.362 Q 0.797 -0.32 0.776 -0.241 Q 0.755 -0.162 0.726 -0.109 Q 0.665 0.008 0.5670000000000001 0.008 Q 0.461 0.008 0.417 -0.048 Q 0.371 0.008 0.305 0.008 Q 0.256 0.008 0.2185 -0.002 Q 0.181 -0.012 0.152 -0.044 Q 0.123 -0.076 0.123 -0.128 Q 0.123 -0.182 0.177 -0.316 Q 0.199 -0.373 0.199 -0.395 Q 0.199 -0.41600000000000004 0.182 -0.41600000000000004 Q 0.17300000000000001 -0.41600000000000004 0.163 -0.41200000000000003 Q 0.153 -0.40800000000000003 0.1375 -0.3975 Q 0.122 -0.387 0.1065 -0.3605 Q 0.091 -0.334 0.079 -0.295 Q 0.075 -0.28200000000000003 0.056 -0.28200000000000003 Q 0.032 -0.28200000000000003 0.032 -0.296 Q 0.032 -0.306 0.042 -0.3295 Q 0.052000000000000005 -0.353 0.07 -0.3815 Q 0.088 -0.41000000000000003 0.11950000000000001 -0.431 Q 0.151 -0.452 0.188 -0.452 Q 0.233 -0.452 0.267 -0.4275 Q 0.301 -0.403 0.301 -0.362 Q 0.301 -0.34600000000000003 0.28300000000000003 -0.301 Q 0.231 -0.168 0.231 -0.11 Q 0.231 -0.028 0.312 -0.028 Q 0.34900000000000003 -0.028 0.373 -0.0555 Q 0.397 -0.083 0.397 -0.094 L 0.396 -0.10200000000000001 Q 0.394 -0.11 0.394 -0.126 Q 0.394 -0.152 0.402 -0.187 Q 0.43 -0.304 0.453 -0.391 Q 0.462 -0.421 0.4815 -0.4325 Q 0.501 -0.444 0.519 -0.444 Q 0.541 -0.444 0.5535 -0.431 Q 0.5660000000000001 -0.418 0.5660000000000001 -0.4 Q 0.5660000000000001 -0.392 0.556 -0.355 Z"/></g><g transform="translate(8.991413888888887,6.03)"><path fill="rgb(0,0,0)" stroke="none" paint-order="stroke fill markers" d=" M 0.09716796875 0 Q 0.091796875 0 0.08837890625 -0.00341796875 Q 0.0849609375 -0.0068359375 0.0849609375 -0.01220703125 L 0.0849609375 -0.1240234375 Q 0.0849609375 -0.12841796875 0.088623046875 -0.131591796875 Q 0.09228515625 -0.134765625 0.09716796875 -0.134765625 L 0.208984375 -0.134765625 Q 0.212890625 -0.134765625 0.216552734375 -0.131591796875 Q 0.22021484375 -0.12841796875 0.22021484375 -0.1240234375 L 0.22021484375 -0.01220703125 Q 0.22021484375 -0.0068359375 0.216796875 -0.00341796875 Q 0.21337890625 0 0.208984375 0 L 0.09716796875 0 Z"/></g><g transform="translate(9.519193777777776,6.03)"><path fill="rgb(0,0,0)" stroke="none" paint-order="stroke fill markers" d=" M 0.09716796875 0 Q 0.091796875 0 0.08837890625 -0.00341796875 Q 0.0849609375 -0.0068359375 0.0849609375 -0.01220703125 L 0.0849609375 -0.1240234375 Q 0.0849609375 -0.12841796875 0.088623046875 -0.131591796875 Q 0.09228515625 -0.134765625 0.09716796875 -0.134765625 L 0.208984375 -0.134765625 Q 0.212890625 -0.134765625 0.216552734375 -0.131591796875 Q 0.22021484375 -0.12841796875 0.22021484375 -0.1240234375 L 0.22021484375 -0.01220703125 Q 0.22021484375 -0.0068359375 0.216796875 -0.00341796875 Q 0.21337890625 0 0.208984375 0 L 0.09716796875 0 Z"/></g><g transform="translate(10.046973666666664,6.03)"><path fill="rgb(0,0,0)" stroke="none" paint-order="stroke fill markers" d=" M 0.09716796875 0 Q 0.091796875 0 0.08837890625 -0.00341796875 Q 0.0849609375 -0.0068359375 0.0849609375 -0.01220703125 L 0.0849609375 -0.1240234375 Q 0.0849609375 -0.12841796875 0.088623046875 -0.131591796875 Q 0.09228515625 -0.134765625 0.09716796875 -0.134765625 L 0.208984375 -0.134765625 Q 0.212890625 -0.134765625 0.216552734375 -0.131591796875 Q 0.22021484375 -0.12841796875 0.22021484375 -0.1240234375 L 0.22021484375 -0.01220703125 Q 0.22021484375 -0.0068359375 0.216796875 -0.00341796875 Q 0.21337890625 0 0.208984375 0 L 0.09716796875 0 Z"/></g><g transform="translate(10.519197833333331,6.03)"><path fill="rgb(0,0,0)" stroke="none" paint-order="stroke fill markers" d=" M 0.5740000000000001 -0.65 L 0.5740000000000001 -0.044 Q 0.5740000000000001 -0.017 0.5650000000000001 -0.0085 Q 0.556 0 0.529 0 L 0.109 0 Q 0.064 0 0.064 -0.031 Q 0.064 -0.061 0.109 -0.061 L 0.513 -0.061 L 0.513 -0.317 L 0.122 -0.317 Q 0.08 -0.317 0.08 -0.34700000000000003 Q 0.08 -0.378 0.128 -0.378 L 0.513 -0.378 L 0.513 -0.633 L 0.109 -0.633 Q 0.064 -0.633 0.064 -0.664 Q 0.064 -0.6940000000000001 0.109 -0.6940000000000001 L 0.529 -0.6940000000000001 Q 0.556 -0.6940000000000001 0.5650000000000001 -0.6855 Q 0.5740000000000001 -0.677 0.5740000000000001 -0.65 Z"/></g><g transform="translate(11.158083333333332,6.03)"><path fill="rgb(0,0,0)" stroke="none" paint-order="stroke fill markers" d=" M 0.241 -0.341 L 0.221 -0.341 Q 0.185 -0.339 0.17 -0.331 Q 0.167 -0.318 0.147 -0.318 Q 0.123 -0.318 0.123 -0.332 Q 0.123 -0.363 0.166 -0.40750000000000003 Q 0.209 -0.452 0.268 -0.452 Q 0.306 -0.452 0.354 -0.41600000000000004 Q 0.4 -0.384 0.425 -0.384 Q 0.442 -0.384 0.457 -0.398 Q 0.47200000000000003 -0.41200000000000003 0.492 -0.442 Q 0.496 -0.449 0.4995 -0.4505 Q 0.503 -0.452 0.515 -0.452 Q 0.538 -0.452 0.538 -0.438 Q 0.538 -0.435 0.5305 -0.422 Q 0.523 -0.40900000000000003 0.503 -0.3835 Q 0.483 -0.358 0.4335 -0.313 Q 0.384 -0.268 0.314 -0.215 Q 0.215 -0.14 0.168 -0.095 Q 0.171 -0.095 0.2305 -0.0975 Q 0.29 -0.1 0.339 -0.10250000000000001 Q 0.388 -0.105 0.391 -0.105 Q 0.422 -0.109 0.4415 -0.11900000000000001 Q 0.461 -0.129 0.4655 -0.136 Q 0.47000000000000003 -0.14300000000000002 0.47700000000000004 -0.157 Q 0.48 -0.166 0.498 -0.166 Q 0.522 -0.166 0.522 -0.152 Q 0.522 -0.113 0.4665 -0.0525 Q 0.41100000000000003 0.008 0.337 0.008 Q 0.299 0.008 0.243 -0.032 Q 0.20500000000000002 -0.06 0.178 -0.06 Q 0.13 -0.06 0.089 -0.003 Q 0.084 0.005 0.0805 0.006500000000000001 Q 0.077 0.008 0.065 0.008 Q 0.042 0.008 0.042 -0.006 Q 0.042 -0.009000000000000001 0.0495 -0.022 Q 0.057 -0.035 0.077 -0.0605 Q 0.097 -0.08600000000000001 0.1465 -0.131 Q 0.196 -0.176 0.266 -0.229 Q 0.364 -0.303 0.41100000000000003 -0.34800000000000003 Q 0.393 -0.34800000000000003 0.28200000000000003 -0.342 Q 0.275 -0.342 0.2615 -0.342 Q 0.248 -0.342 0.241 -0.341 Z"/></g><g transform="translate(11.755304833333332,6.03)"><path fill="rgb(0,0,0)" stroke="none" paint-order="stroke fill markers" d=" M 0.293 0.25 L 0.128 0.25 L 0.128 -0.75 L 0.293 -0.75 L 0.293 -0.6890000000000001 L 0.189 -0.6890000000000001 L 0.189 0.189 L 0.293 0.189 L 0.293 0.25 Z"/></g><g transform="translate(12.074747833333332,6.03)"><path fill="rgb(0,0,0)" stroke="none" paint-order="stroke fill markers" d=" M 0.379 0.225 L 0.38 0.228 Q 0.382 0.232 0.382 0.23500000000000001 Q 0.382 0.249 0.364 0.249 Q 0.34500000000000003 0.249 0.2885 0.1965 Q 0.232 0.14400000000000002 0.188 0.067 Q 0.108 -0.074 0.108 -0.251 Q 0.108 -0.518 0.28700000000000003 -0.6960000000000001 Q 0.34400000000000003 -0.75 0.364 -0.75 Q 0.382 -0.75 0.382 -0.736 Q 0.382 -0.731 0.366 -0.715 Q 0.20500000000000002 -0.553 0.20500000000000002 -0.25 Q 0.20500000000000002 -0.106 0.243 0.009000000000000001 Q 0.28500000000000003 0.138 0.379 0.225 Z"/></g><g transform="translate(12.521967833333331,6.03)"><path fill="rgb(0,0,0)" stroke="none" paint-order="stroke fill markers" d=" M 0.536 -0.401 Q 0.516 -0.41600000000000004 0.488 -0.41600000000000004 Q 0.461 -0.41600000000000004 0.4375 -0.392 Q 0.41400000000000003 -0.368 0.403 -0.325 Q 0.4 -0.316 0.385 -0.257 Q 0.37 -0.198 0.368 -0.189 Q 0.34600000000000003 -0.099 0.34600000000000003 -0.078 Q 0.34600000000000003 -0.028 0.402 -0.028 Q 0.44 -0.028 0.482 -0.0575 Q 0.524 -0.08700000000000001 0.544 -0.149 Q 0.548 -0.162 0.5670000000000001 -0.162 Q 0.591 -0.162 0.591 -0.148 Q 0.591 -0.134 0.578 -0.1095 Q 0.5650000000000001 -0.085 0.542 -0.058 Q 0.519 -0.031 0.48 -0.0115 Q 0.441 0.008 0.397 0.008 Q 0.295 0.008 0.259 -0.053 Q 0.215 0.008 0.152 0.008 Q 0.105 0.008 0.07150000000000001 -0.0165 Q 0.038 -0.041 0.038 -0.08 Q 0.038 -0.115 0.06 -0.1365 Q 0.082 -0.158 0.11 -0.158 Q 0.133 -0.158 0.1465 -0.14400000000000002 Q 0.16 -0.13 0.16 -0.112 Q 0.16 -0.091 0.1455 -0.07050000000000001 Q 0.131 -0.05 0.106 -0.043000000000000003 Q 0.126 -0.028 0.154 -0.028 Q 0.181 -0.028 0.20450000000000002 -0.051500000000000004 Q 0.228 -0.075 0.23900000000000002 -0.11900000000000001 L 0.273 -0.256 Q 0.296 -0.34800000000000003 0.296 -0.366 Q 0.296 -0.41600000000000004 0.24 -0.41600000000000004 Q 0.202 -0.41600000000000004 0.16 -0.3865 Q 0.11800000000000001 -0.357 0.098 -0.295 Q 0.094 -0.28200000000000003 0.075 -0.28200000000000003 Q 0.051000000000000004 -0.28200000000000003 0.051000000000000004 -0.296 Q 0.051000000000000004 -0.31 0.064 -0.3345 Q 0.077 -0.359 0.1 -0.386 Q 0.123 -0.41300000000000003 0.162 -0.4325 Q 0.201 -0.452 0.245 -0.452 Q 0.34700000000000003 -0.452 0.383 -0.391 Q 0.427 -0.452 0.49 -0.452 Q 0.537 -0.452 0.5705 -0.4275 Q 0.604 -0.403 0.604 -0.364 Q 0.604 -0.329 0.582 -0.3075 Q 0.56 -0.28600000000000003 0.532 -0.28600000000000003 Q 0.509 -0.28600000000000003 0.4955 -0.3 Q 0.482 -0.314 0.482 -0.332 Q 0.482 -0.353 0.4965 -0.3735 Q 0.511 -0.394 0.536 -0.401 Z"/></g><g transform="translate(13.40321772222222,6.03)"><path fill="rgb(0,0,0)" stroke="none" paint-order="stroke fill markers" d=" M 0.6940000000000001 -0.552 L 0.41400000000000003 -0.007 Q 0.402 0.017 0.383 0.017 Q 0.364 0.017 0.35100000000000003 -0.008 L 0.064 -0.5670000000000001 Q 0.064 -0.604 0.094 -0.604 Q 0.113 -0.604 0.126 -0.579 L 0.383 -0.08 L 0.64 -0.579 Q 0.654 -0.604 0.672 -0.604 Q 0.683 -0.604 0.6925 -0.5955 Q 0.7020000000000001 -0.587 0.7020000000000001 -0.5730000000000001 Q 0.7020000000000001 -0.5660000000000001 0.6940000000000001 -0.552 Z"/></g><g transform="translate(14.392103611111107,6.03)"><path fill="rgb(0,0,0)" stroke="none" paint-order="stroke fill markers" d=" M 0.577 -0.377 L 0.483 0.001 Q 0.461 0.09 0.3785 0.146 Q 0.296 0.202 0.20500000000000002 0.202 Q 0.145 0.202 0.108 0.178 Q 0.07100000000000001 0.154 0.07100000000000001 0.115 Q 0.07100000000000001 0.083 0.0925 0.061 Q 0.114 0.039 0.14300000000000002 0.039 Q 0.162 0.039 0.177 0.05 Q 0.192 0.061 0.192 0.085 Q 0.192 0.132 0.14400000000000002 0.152 Q 0.167 0.166 0.20500000000000002 0.166 Q 0.26 0.166 0.3085 0.116 Q 0.357 0.066 0.377 -0.022 Q 0.334 0.008 0.281 0.008 Q 0.254 0.008 0.2305 0.0035 Q 0.20700000000000002 -0.001 0.1805 -0.0135 Q 0.154 -0.026000000000000002 0.138 -0.054 Q 0.122 -0.082 0.122 -0.122 Q 0.122 -0.157 0.1355 -0.2005 Q 0.149 -0.244 0.182 -0.33 Q 0.199 -0.375 0.199 -0.395 Q 0.199 -0.405 0.196 -0.41000000000000003 Q 0.193 -0.41500000000000004 0.19 -0.41550000000000004 Q 0.187 -0.41600000000000004 0.182 -0.41600000000000004 Q 0.17400000000000002 -0.41600000000000004 0.1635 -0.41200000000000003 Q 0.153 -0.40800000000000003 0.1375 -0.3975 Q 0.122 -0.387 0.106 -0.3605 Q 0.09 -0.334 0.079 -0.295 Q 0.075 -0.28200000000000003 0.056 -0.28200000000000003 Q 0.032 -0.28200000000000003 0.032 -0.296 Q 0.032 -0.306 0.042 -0.3295 Q 0.052000000000000005 -0.353 0.07 -0.3815 Q 0.088 -0.41000000000000003 0.11950000000000001 -0.431 Q 0.151 -0.452 0.188 -0.452 Q 0.233 -0.452 0.267 -0.4275 Q 0.301 -0.403 0.301 -0.362 Q 0.301 -0.34600000000000003 0.28800000000000003 -0.312 Q 0.229 -0.16 0.229 -0.101 Q 0.229 -0.028 0.289 -0.028 Q 0.319 -0.028 0.357 -0.052000000000000005 Q 0.36 -0.054 0.3675 -0.06 Q 0.375 -0.066 0.3845 -0.078 Q 0.394 -0.09 0.396 -0.1 Q 0.403 -0.127 0.438 -0.266 L 0.464 -0.37 Q 0.468 -0.385 0.47100000000000003 -0.394 Q 0.47400000000000003 -0.403 0.482 -0.4165 Q 0.49 -0.43 0.5035000000000001 -0.437 Q 0.517 -0.444 0.535 -0.444 Q 0.557 -0.444 0.5695 -0.431 Q 0.582 -0.418 0.582 -0.4 Q 0.582 -0.395 0.577 -0.377 Z"/></g><g transform="translate(15.019417611111107,6.03)"><path fill="rgb(0,0,0)" stroke="none" paint-order="stroke fill markers" d=" M 0.338 -0.25 Q 0.338 0.017 0.159 0.195 Q 0.10200000000000001 0.249 0.082 0.249 Q 0.064 0.249 0.064 0.23500000000000001 Q 0.064 0.23 0.08 0.214 Q 0.241 0.052000000000000005 0.241 -0.251 Q 0.241 -0.55 0.081 -0.713 Q 0.064 -0.729 0.064 -0.736 Q 0.064 -0.75 0.082 -0.75 Q 0.101 -0.75 0.1575 -0.6975 Q 0.214 -0.645 0.258 -0.5680000000000001 Q 0.338 -0.427 0.338 -0.25 Z"/></g><g transform="translate(15.633304777777774,6.03)"><path fill="rgb(0,0,0)" stroke="none" paint-order="stroke fill markers" d=" M 0.41500000000000004 -0.579 L 0.7020000000000001 -0.02 Q 0.7020000000000001 0.017 0.672 0.017 Q 0.653 0.017 0.639 -0.009000000000000001 L 0.383 -0.507 L 0.126 -0.008 Q 0.113 0.017 0.094 0.017 Q 0.083 0.017 0.0735 0.0085 Q 0.064 0 0.064 -0.014 Q 0.064 -0.021 0.07200000000000001 -0.035 L 0.352 -0.58 Q 0.364 -0.604 0.383 -0.604 Q 0.402 -0.604 0.41500000000000004 -0.579 Z"/></g><g transform="translate(16.622190666666665,6.03)"><path fill="rgb(0,0,0)" stroke="none" paint-order="stroke fill markers" d=" M 0.09716796875 0 Q 0.091796875 0 0.08837890625 -0.00341796875 Q 0.0849609375 -0.0068359375 0.0849609375 -0.01220703125 L 0.0849609375 -0.1240234375 Q 0.0849609375 -0.12841796875 0.088623046875 -0.131591796875 Q 0.09228515625 -0.134765625 0.09716796875 -0.134765625 L 0.208984375 -0.134765625 Q 0.212890625 -0.134765625 0.216552734375 -0.131591796875 Q 0.22021484375 -0.12841796875 0.22021484375 -0.1240234375 L 0.22021484375 -0.01220703125 Q 0.22021484375 -0.0068359375 0.216796875 -0.00341796875 Q 0.21337890625 0 0.208984375 0 L 0.09716796875 0 Z"/></g><g transform="translate(17.149970555555555,6.03)"><path fill="rgb(0,0,0)" stroke="none" paint-order="stroke fill markers" d=" M 0.09716796875 0 Q 0.091796875 0 0.08837890625 -0.00341796875 Q 0.0849609375 -0.0068359375 0.0849609375 -0.01220703125 L 0.0849609375 -0.1240234375 Q 0.0849609375 -0.12841796875 0.088623046875 -0.131591796875 Q 0.09228515625 -0.134765625 0.09716796875 -0.134765625 L 0.208984375 -0.134765625 Q 0.212890625 -0.134765625 0.216552734375 -0.131591796875 Q 0.22021484375 -0.12841796875 0.22021484375 -0.1240234375 L 0.22021484375 -0.01220703125 Q 0.22021484375 -0.0068359375 0.216796875 -0.00341796875 Q 0.21337890625 0 0.208984375 0 L 0.09716796875 0 Z"/></g><g transform="translate(17.677750444444445,6.03)"><path fill="rgb(0,0,0)" stroke="none" paint-order="stroke fill markers" d=" M 0.09716796875 0 Q 0.091796875 0 0.08837890625 -0.00341796875 Q 0.0849609375 -0.0068359375 0.0849609375 -0.01220703125 L 0.0849609375 -0.1240234375 Q 0.0849609375 -0.12841796875 0.088623046875 -0.131591796875 Q 0.09228515625 -0.134765625 0.09716796875 -0.134765625 L 0.208984375 -0.134765625 Q 0.212890625 -0.134765625 0.216552734375 -0.131591796875 Q 0.22021484375 -0.12841796875 0.22021484375 -0.1240234375 L 0.22021484375 -0.01220703125 Q 0.22021484375 -0.0068359375 0.216796875 -0.00341796875 Q 0.21337890625 0 0.208984375 0 L 0.09716796875 0 Z"/></g><g transform="translate(18.205530333333332,6.03)"><path fill="rgb(0,0,0)" stroke="none" paint-order="stroke fill markers" d=" M 0.41500000000000004 -0.579 L 0.7020000000000001 -0.02 Q 0.7020000000000001 0.017 0.672 0.017 Q 0.653 0.017 0.639 -0.009000000000000001 L 0.383 -0.507 L 0.126 -0.008 Q 0.113 0.017 0.094 0.017 Q 0.083 0.017 0.0735 0.0085 Q 0.064 0 0.064 -0.014 Q 0.064 -0.021 0.07200000000000001 -0.035 L 0.352 -0.58 Q 0.364 -0.604 0.383 -0.604 Q 0.402 -0.604 0.41500000000000004 -0.579 Z"/></g><g transform="translate(19.194416222222223,6.03)"><path fill="rgb(0,0,0)" stroke="none" paint-order="stroke fill markers" d=" M 0.379 0.225 L 0.38 0.228 Q 0.382 0.232 0.382 0.23500000000000001 Q 0.382 0.249 0.364 0.249 Q 0.34500000000000003 0.249 0.2885 0.1965 Q 0.232 0.14400000000000002 0.188 0.067 Q 0.108 -0.074 0.108 -0.251 Q 0.108 -0.518 0.28700000000000003 -0.6960000000000001 Q 0.34400000000000003 -0.75 0.364 -0.75 Q 0.382 -0.75 0.382 -0.736 Q 0.382 -0.731 0.366 -0.715 Q 0.20500000000000002 -0.553 0.20500000000000002 -0.25 Q 0.20500000000000002 -0.106 0.243 0.009000000000000001 Q 0.28500000000000003 0.138 0.379 0.225 Z"/></g><g transform="translate(19.641636222222225,6.03)"><path fill="rgb(0,0,0)" stroke="none" paint-order="stroke fill markers" d=" M 0.7020000000000001 -0.327 L 0.7020000000000001 -0.105 Q 0.7020000000000001 -0.061 0.671 -0.061 Q 0.641 -0.061 0.641 -0.105 L 0.641 -0.31 L 0.109 -0.31 Q 0.064 -0.31 0.064 -0.341 Q 0.064 -0.371 0.109 -0.371 L 0.657 -0.371 Q 0.684 -0.371 0.6930000000000001 -0.3625 Q 0.7020000000000001 -0.354 0.7020000000000001 -0.327 Z"/></g><g transform="translate(20.408299222222226,6.03)"><path fill="rgb(0,0,0)" stroke="none" paint-order="stroke fill markers" d=" M 0.577 -0.377 L 0.483 0.001 Q 0.461 0.09 0.3785 0.146 Q 0.296 0.202 0.20500000000000002 0.202 Q 0.145 0.202 0.108 0.178 Q 0.07100000000000001 0.154 0.07100000000000001 0.115 Q 0.07100000000000001 0.083 0.0925 0.061 Q 0.114 0.039 0.14300000000000002 0.039 Q 0.162 0.039 0.177 0.05 Q 0.192 0.061 0.192 0.085 Q 0.192 0.132 0.14400000000000002 0.152 Q 0.167 0.166 0.20500000000000002 0.166 Q 0.26 0.166 0.3085 0.116 Q 0.357 0.066 0.377 -0.022 Q 0.334 0.008 0.281 0.008 Q 0.254 0.008 0.2305 0.0035 Q 0.20700000000000002 -0.001 0.1805 -0.0135 Q 0.154 -0.026000000000000002 0.138 -0.054 Q 0.122 -0.082 0.122 -0.122 Q 0.122 -0.157 0.1355 -0.2005 Q 0.149 -0.244 0.182 -0.33 Q 0.199 -0.375 0.199 -0.395 Q 0.199 -0.405 0.196 -0.41000000000000003 Q 0.193 -0.41500000000000004 0.19 -0.41550000000000004 Q 0.187 -0.41600000000000004 0.182 -0.41600000000000004 Q 0.17400000000000002 -0.41600000000000004 0.1635 -0.41200000000000003 Q 0.153 -0.40800000000000003 0.1375 -0.3975 Q 0.122 -0.387 0.106 -0.3605 Q 0.09 -0.334 0.079 -0.295 Q 0.075 -0.28200000000000003 0.056 -0.28200000000000003 Q 0.032 -0.28200000000000003 0.032 -0.296 Q 0.032 -0.306 0.042 -0.3295 Q 0.052000000000000005 -0.353 0.07 -0.3815 Q 0.088 -0.41000000000000003 0.11950000000000001 -0.431 Q 0.151 -0.452 0.188 -0.452 Q 0.233 -0.452 0.267 -0.4275 Q 0.301 -0.403 0.301 -0.362 Q 0.301 -0.34600000000000003 0.28800000000000003 -0.312 Q 0.229 -0.16 0.229 -0.101 Q 0.229 -0.028 0.289 -0.028 Q 0.319 -0.028 0.357 -0.052000000000000005 Q 0.36 -0.054 0.3675 -0.06 Q 0.375 -0.066 0.3845 -0.078 Q 0.394 -0.09 0.396 -0.1 Q 0.403 -0.127 0.438 -0.266 L 0.464 -0.37 Q 0.468 -0.385 0.47100000000000003 -0.394 Q 0.47400000000000003 -0.403 0.482 -0.4165 Q 0.49 -0.43 0.5035000000000001 -0.437 Q 0.517 -0.444 0.535 -0.444 Q 0.557 -0.444 0.5695 -0.431 Q 0.582 -0.418 0.582 -0.4 Q 0.582 -0.395 0.577 -0.377 Z"/></g><g transform="translate(21.257836111111114,6.03)"><path fill="rgb(0,0,0)" stroke="none" paint-order="stroke fill markers" d=" M 0.6940000000000001 -0.552 L 0.41400000000000003 -0.007 Q 0.402 0.017 0.383 0.017 Q 0.364 0.017 0.35100000000000003 -0.008 L 0.064 -0.5670000000000001 Q 0.064 -0.604 0.094 -0.604 Q 0.113 -0.604 0.126 -0.579 L 0.383 -0.08 L 0.64 -0.579 Q 0.654 -0.604 0.672 -0.604 Q 0.683 -0.604 0.6925 -0.5955 Q 0.7020000000000001 -0.587 0.7020000000000001 -0.5730000000000001 Q 0.7020000000000001 -0.5660000000000001 0.6940000000000001 -0.552 Z"/></g><g transform="translate(22.246722000000005,6.03)"><path fill="rgb(0,0,0)" stroke="none" paint-order="stroke fill markers" d=" M 0.241 -0.341 L 0.221 -0.341 Q 0.185 -0.339 0.17 -0.331 Q 0.167 -0.318 0.147 -0.318 Q 0.123 -0.318 0.123 -0.332 Q 0.123 -0.363 0.166 -0.40750000000000003 Q 0.209 -0.452 0.268 -0.452 Q 0.306 -0.452 0.354 -0.41600000000000004 Q 0.4 -0.384 0.425 -0.384 Q 0.442 -0.384 0.457 -0.398 Q 0.47200000000000003 -0.41200000000000003 0.492 -0.442 Q 0.496 -0.449 0.4995 -0.4505 Q 0.503 -0.452 0.515 -0.452 Q 0.538 -0.452 0.538 -0.438 Q 0.538 -0.435 0.5305 -0.422 Q 0.523 -0.40900000000000003 0.503 -0.3835 Q 0.483 -0.358 0.4335 -0.313 Q 0.384 -0.268 0.314 -0.215 Q 0.215 -0.14 0.168 -0.095 Q 0.171 -0.095 0.2305 -0.0975 Q 0.29 -0.1 0.339 -0.10250000000000001 Q 0.388 -0.105 0.391 -0.105 Q 0.422 -0.109 0.4415 -0.11900000000000001 Q 0.461 -0.129 0.4655 -0.136 Q 0.47000000000000003 -0.14300000000000002 0.47700000000000004 -0.157 Q 0.48 -0.166 0.498 -0.166 Q 0.522 -0.166 0.522 -0.152 Q 0.522 -0.113 0.4665 -0.0525 Q 0.41100000000000003 0.008 0.337 0.008 Q 0.299 0.008 0.243 -0.032 Q 0.20500000000000002 -0.06 0.178 -0.06 Q 0.13 -0.06 0.089 -0.003 Q 0.084 0.005 0.0805 0.006500000000000001 Q 0.077 0.008 0.065 0.008 Q 0.042 0.008 0.042 -0.006 Q 0.042 -0.009000000000000001 0.0495 -0.022 Q 0.057 -0.035 0.077 -0.0605 Q 0.097 -0.08600000000000001 0.1465 -0.131 Q 0.196 -0.176 0.266 -0.229 Q 0.364 -0.303 0.41100000000000003 -0.34800000000000003 Q 0.393 -0.34800000000000003 0.28200000000000003 -0.342 Q 0.275 -0.342 0.2615 -0.342 Q 0.248 -0.342 0.241 -0.341 Z"/></g><g transform="translate(23.066166388888895,6.03)"><path fill="rgb(0,0,0)" stroke="none" paint-order="stroke fill markers" d=" M 0.6940000000000001 -0.552 L 0.41400000000000003 -0.007 Q 0.402 0.017 0.383 0.017 Q 0.364 0.017 0.35100000000000003 -0.008 L 0.064 -0.5670000000000001 Q 0.064 -0.604 0.094 -0.604 Q 0.113 -0.604 0.126 -0.579 L 0.383 -0.08 L 0.64 -0.579 Q 0.654 -0.604 0.672 -0.604 Q 0.683 -0.604 0.6925 -0.5955 Q 0.7020000000000001 -0.587 0.7020000000000001 -0.5730000000000001 Q 0.7020000000000001 -0.5660000000000001 0.6940000000000001 -0.552 Z"/></g><g transform="translate(24.055052277777786,6.03)"><path fill="rgb(0,0,0)" stroke="none" paint-order="stroke fill markers" d=" M 0.7020000000000001 -0.327 L 0.7020000000000001 -0.105 Q 0.7020000000000001 -0.061 0.671 -0.061 Q 0.641 -0.061 0.641 -0.105 L 0.641 -0.31 L 0.109 -0.31 Q 0.064 -0.31 0.064 -0.341 Q 0.064 -0.371 0.109 -0.371 L 0.657 -0.371 Q 0.684 -0.371 0.6930000000000001 -0.3625 Q 0.7020000000000001 -0.354 0.7020000000000001 -0.327 Z"/></g><g transform="translate(24.821715277777788,6.03)"><path fill="rgb(0,0,0)" stroke="none" paint-order="stroke fill markers" d=" M 0.556 -0.355 L 0.542 -0.299 Q 0.534 -0.267 0.517 -0.198 Q 0.501 -0.131 0.501 -0.107 Q 0.501 -0.028 0.5740000000000001 -0.028 Q 0.634 -0.028 0.677 -0.10400000000000001 Q 0.6980000000000001 -0.14100000000000001 0.7155 -0.1975 Q 0.733 -0.254 0.733 -0.269 Q 0.733 -0.303 0.683 -0.332 Q 0.653 -0.34900000000000003 0.653 -0.377 Q 0.653 -0.404 0.677 -0.4285 Q 0.7010000000000001 -0.453 0.729 -0.453 Q 0.734 -0.453 0.741 -0.451 Q 0.748 -0.449 0.7625000000000001 -0.442 Q 0.777 -0.435 0.787 -0.41400000000000003 Q 0.797 -0.393 0.797 -0.362 Q 0.797 -0.32 0.776 -0.241 Q 0.755 -0.162 0.726 -0.109 Q 0.665 0.008 0.5670000000000001 0.008 Q 0.461 0.008 0.417 -0.048 Q 0.371 0.008 0.305 0.008 Q 0.256 0.008 0.2185 -0.002 Q 0.181 -0.012 0.152 -0.044 Q 0.123 -0.076 0.123 -0.128 Q 0.123 -0.182 0.177 -0.316 Q 0.199 -0.373 0.199 -0.395 Q 0.199 -0.41600000000000004 0.182 -0.41600000000000004 Q 0.17300000000000001 -0.41600000000000004 0.163 -0.41200000000000003 Q 0.153 -0.40800000000000003 0.1375 -0.3975 Q 0.122 -0.387 0.1065 -0.3605 Q 0.091 -0.334 0.079 -0.295 Q 0.075 -0.28200000000000003 0.056 -0.28200000000000003 Q 0.032 -0.28200000000000003 0.032 -0.296 Q 0.032 -0.306 0.042 -0.3295 Q 0.052000000000000005 -0.353 0.07 -0.3815 Q 0.088 -0.41000000000000003 0.11950000000000001 -0.431 Q 0.151 -0.452 0.188 -0.452 Q 0.233 -0.452 0.267 -0.4275 Q 0.301 -0.403 0.301 -0.362 Q 0.301 -0.34600000000000003 0.28300000000000003 -0.301 Q 0.231 -0.168 0.231 -0.11 Q 0.231 -0.028 0.312 -0.028 Q 0.34900000000000003 -0.028 0.373 -0.0555 Q 0.397 -0.083 0.397 -0.094 L 0.396 -0.10200000000000001 Q 0.394 -0.11 0.394 -0.126 Q 0.394 -0.152 0.402 -0.187 Q 0.43 -0.304 0.453 -0.391 Q 0.462 -0.421 0.4815 -0.4325 Q 0.501 -0.444 0.519 -0.444 Q 0.541 -0.444 0.5535 -0.431 Q 0.5660000000000001 -0.418 0.5660000000000001 -0.4 Q 0.5660000000000001 -0.392 0.556 -0.355 Z"/></g><g transform="translate(25.680971277777786,6.03)"><path fill="rgb(0,0,0)" stroke="none" paint-order="stroke fill markers" d=" M 0.338 -0.25 Q 0.338 0.017 0.159 0.195 Q 0.10200000000000001 0.249 0.082 0.249 Q 0.064 0.249 0.064 0.23500000000000001 Q 0.064 0.23 0.08 0.214 Q 0.241 0.052000000000000005 0.241 -0.251 Q 0.241 -0.55 0.081 -0.713 Q 0.064 -0.729 0.064 -0.736 Q 0.064 -0.75 0.082 -0.75 Q 0.101 -0.75 0.1575 -0.6975 Q 0.214 -0.645 0.258 -0.5680000000000001 Q 0.338 -0.427 0.338 -0.25 Z"/></g><g transform="translate(26.128191277777788,6.03)"><path fill="rgb(0,0,0)" stroke="none" paint-order="stroke fill markers" d=" M 0.19 -0.75 L 0.19 0.25 L 0.025 0.25 L 0.025 0.189 L 0.129 0.189 L 0.129 -0.6890000000000001 L 0.025 -0.6890000000000001 L 0.025 -0.75 L 0.19 -0.75 Z"/></g></g></g></g></svg>