<svg version="1.1" xmlns="http://www.w3.org/2000/svg" xmlns:xlink="http://www.w3.org/1999/xlink" width="1220" height="654"><defs><clipPath id="sgzRopcCkpfD"><path fill="none" stroke="none" d=" M 0 0 L 1220 0 L 1220 654 L 0 654 L 0 0 Z"/></clipPath></defs><g transform="scale(1,1)" clip-path="url(#sgzRopcCkpfD)"><g><rect fill="rgb(255,255,255)" stroke="none" x="0" y="0" width="1220" height="654" fill-opacity="1"/><path fill="none" stroke="rgb(21,101,192)" paint-order="fill stroke markers" d=" M 381.0083333333338 73.87286458333384 L 379.9064583333338 176.62270833333258" stroke-opacity="0.8" stroke-linecap="round" stroke-linejoin="round" stroke-miterlimit="10" stroke-width="2.5"/><path fill="none" stroke="rgb(21,101,192)" paint-order="fill stroke markers" d=" M 379.9064583333338 176.62270833333258 L 300.571458333334 257.8859895833316" stroke-opacity="0.8" stroke-linecap="round" stroke-linejoin="round" stroke-miterlimit="10" stroke-width="2.5"/><path fill="none" stroke="rgb(21,101,192)" paint-order="fill stroke markers" d=" M 379.9064583333338 176.62270833333258 L 465.85270833333357 257.8859895833316" stroke-opacity="0.8" stroke-linecap="round" stroke-linejoin="round" stroke-miterlimit="10" stroke-width="2.5"/><path fill="none" stroke="rgb(21,101,192)" paint-order="fill stroke markers" d=" M 712.6727083333323 77.1784895833338 L 711.570833333333 179.9283333333326" stroke-opacity="0.8" stroke-linecap="round" stroke-linejoin="round" stroke-miterlimit="10" stroke-width="2.5"/><path fill="none" stroke="rgb(21,101,192)" paint-order="fill stroke markers" d=" M 711.570833333333 179.9283333333326 L 632.2358333333332 261.1916145833316" stroke-opacity="0.8" stroke-linecap="round" stroke-linejoin="round" stroke-miterlimit="10" stroke-width="2.5"/><path fill="none" stroke="rgb(21,101,192)" paint-order="fill stroke markers" d=" M 711.570833333333 179.9283333333326 L 797.5170833333327 261.1916145833316" stroke-opacity="0.8" stroke-linecap="round" stroke-linejoin="round" stroke-miterlimit="10" stroke-width="2.5"/><path fill="none" stroke="rgb(21,101,192)" paint-order="fill stroke markers" d=" M 381.0083333333338 243.56161458333182 L 379.9064583333338 346.3114583333305" stroke-opacity="0.8" stroke-linecap="round" stroke-linejoin="round" stroke-miterlimit="10" stroke-width="2.5"/><path fill="none" stroke="rgb(21,101,192)" paint-order="fill stroke markers" d=" M 379.9064583333338 346.3114583333305 L 300.571458333334 427.5747395833296" stroke-opacity="0.8" stroke-linecap="round" stroke-linejoin="round" stroke-miterlimit="10" stroke-width="2.5"/><path fill="none" stroke="rgb(21,101,192)" paint-order="fill stroke markers" d=" M 379.9064583333338 346.3114583333305 L 465.85270833333357 427.5747395833296" stroke-opacity="0.8" stroke-linecap="round" stroke-linejoin="round" stroke-miterlimit="10" stroke-width="2.5"/><path fill="none" stroke="rgb(21,101,192)" paint-order="fill stroke markers" d=" M 712.6727083333329 242.4597395833318 L 711.570833333333 345.20958333333056" stroke-opacity="0.8" stroke-linecap="round" stroke-linejoin="round" stroke-miterlimit="10" stroke-width="2.5"/><path fill="none" stroke="rgb(21,101,192)" paint-order="fill stroke markers" d=" M 711.570833333333 345.20958333333056 L 632.2358333333332 426.47286458332957" stroke-opacity="0.8" stroke-linecap="round" stroke-linejoin="round" stroke-miterlimit="10" stroke-width="2.5"/><path fill="none" stroke="rgb(21,101,192)" paint-order="fill stroke markers" d=" M 711.570833333333 345.20958333333056 L 797.5170833333327 426.47286458332957" stroke-opacity="0.8" stroke-linecap="round" stroke-linejoin="round" stroke-miterlimit="10" stroke-width="2.5"/><path fill="none" stroke="rgb(21,101,192)" paint-order="fill stroke markers" d=" M 382.1102083333338 406.63911458332984 L 381.0083333333338 509.3889583333286" stroke-opacity="0.8" stroke-linecap="round" stroke-linejoin="round" stroke-miterlimit="10" stroke-width="2.5"/><path fill="none" stroke="rgb(21,101,192)" paint-order="fill stroke markers" d=" M 381.0083333333338 509.3889583333286 L 301.67333333333397 590.6522395833276" stroke-opacity="0.8" stroke-linecap="round" stroke-linejoin="round" stroke-miterlimit="10" stroke-width="2.5"/><path fill="none" stroke="rgb(21,101,192)" paint-order="fill stroke markers" d=" M 381.0083333333338 509.3889583333286 L 466.9545833333336 590.6522395833276" stroke-opacity="0.8" stroke-linecap="round" stroke-linejoin="round" stroke-miterlimit="10" stroke-width="2.5"/><path fill="none" stroke="rgb(21,101,192)" paint-order="fill stroke markers" d=" M 712.6727083333323 409.11833333332794 L 711.570833333333 511.86817708332853" stroke-opacity="0.8" stroke-linecap="round" stroke-linejoin="round" stroke-miterlimit="10" stroke-width="2.5"/><path fill="none" stroke="rgb(21,101,192)" paint-order="fill stroke markers" d=" M 711.570833333333 511.86817708332853 L 632.2358333333332 593.1314583333258" stroke-opacity="0.8" stroke-linecap="round" stroke-linejoin="round" stroke-miterlimit="10" stroke-width="2.5"/><path fill="none" stroke="rgb(21,101,192)" paint-order="fill stroke markers" d=" M 711.570833333333 511.86817708332853 L 797.5170833333327 593.1314583333258" stroke-opacity="0.8" stroke-linecap="round" stroke-linejoin="round" stroke-miterlimit="10" stroke-width="2.5"/><path fill="none" stroke="rgb(0,0,0)" paint-order="fill stroke markers" d=" M 515.4370833333335 180.47927083333255 L 592.0976346818105 181.38115967272637" stroke-opacity="0.8" stroke-linecap="round" stroke-linejoin="round" stroke-miterlimit="10" stroke-width="2.5"/><path fill="rgb(0,0,0)" stroke="none" paint-order="stroke fill markers" fill-rule="evenodd" d=" M 609.0964583333332 181.5811458333325 L 592.047638141659 185.63086558560704 L 592.147631221962 177.1314537598457 Z" fill-opacity="0.8"/><path fill="none" stroke="rgb(0,0,0)" paint-order="fill stroke markers" d=" M 515.4370833333335 344.9341145833306 L 592.0976346818105 345.8360034227244" stroke-opacity="0.8" stroke-linecap="round" stroke-linejoin="round" stroke-miterlimit="10" stroke-width="2.5"/><path fill="rgb(0,0,0)" stroke="none" paint-order="stroke fill markers" fill-rule="evenodd" d=" M 609.0964583333332 346.03598958333055 L 592.047638141659 350.08570933560503 L 592.147631221962 341.58629750984375 Z" fill-opacity="0.8"/><path fill="none" stroke="rgb(0,0,0)" paint-order="fill stroke markers" d=" M 513.2333333333335 508.8380208333286 L 589.8938846818106 509.73990967272243" stroke-opacity="0.8" stroke-linecap="round" stroke-linejoin="round" stroke-miterlimit="10" stroke-width="2.5"/><path fill="rgb(0,0,0)" stroke="none" paint-order="stroke fill markers" fill-rule="evenodd" d=" M 606.8927083333333 509.9398958333286 L 589.8438881416591 513.9896155856031 L 589.9438812219621 505.4902037598418 Z" fill-opacity="0.8"/><path fill="rgb(160,160,160)" stroke="none" paint-order="stroke fill markers" d=" M 388.9064583333338 176.62270833333258 C 388.9064583333338 181.59327108180972 384.87702108181094 185.62270833333258 379.9064583333338 185.62270833333258 C 374.9358955848566 185.62270833333258 370.9064583333338 181.59327108180972 370.9064583333338 176.62270833333258 C 370.9064583333338 171.65214558485545 374.9358955848566 167.62270833333258 379.9064583333338 167.62270833333258 C 384.87702108181094 167.62270833333258 388.9064583333338 171.65214558485545 388.9064583333338 176.62270833333258 Z" fill-opacity="1"/><path fill="none" stroke="rgb(0,0,0)" paint-order="fill stroke markers" d=" M 388.9064583333338 176.62270833333258 C 388.9064583333338 181.59327108180972 384.87702108181094 185.62270833333258 379.9064583333338 185.62270833333258 C 374.9358955848566 185.62270833333258 370.9064583333338 181.59327108180972 370.9064583333338 176.62270833333258 C 370.9064583333338 171.65214558485545 374.9358955848566 167.62270833333258 379.9064583333338 167.62270833333258 C 384.87702108181094 167.62270833333258 388.9064583333338 171.65214558485545 388.9064583333338 176.62270833333258 Z" stroke-opacity="1" stroke-linecap="round" stroke-linejoin="round" stroke-miterlimit="10"/><path fill="none" stroke="rgb(21,101,192)" paint-order="fill stroke markers" d=" M 332.1931056043068 220.3742328300786 L 339.6931056043068 224.70435984900078 L 339.6931056043068 216.0441058111564 L 332.1931056043068 220.3742328300786 Z" stroke-opacity="1" stroke-linecap="square" stroke-miterlimit="10" stroke-width="2.5"/><path fill="rgb(21,101,192)" stroke="none" paint-order="stroke fill markers" fill-rule="evenodd" d=" M 332.1931056043068 220.3742328300786 L 339.6931056043068 224.70435984900078 L 339.6931056043068 216.0441058111564 L 332.1931056043068 220.3742328300786 Z" fill-opacity="1"/><path fill="rgb(160,160,160)" stroke="none" paint-order="stroke fill markers" d=" M 720.570833333333 179.9283333333326 C 720.570833333333 184.89889608180974 716.5413960818101 188.9283333333326 711.570833333333 188.9283333333326 C 706.6002705848558 188.9283333333326 702.570833333333 184.89889608180974 702.570833333333 179.9283333333326 C 702.570833333333 174.95777058485547 706.6002705848558 170.9283333333326 711.570833333333 170.9283333333326 C 716.5413960818101 170.9283333333326 720.570833333333 174.95777058485547 720.570833333333 179.9283333333326 Z" fill-opacity="1"/><path fill="none" stroke="rgb(0,0,0)" paint-order="fill stroke markers" d=" M 720.570833333333 179.9283333333326 C 720.570833333333 184.89889608180974 716.5413960818101 188.9283333333326 711.570833333333 188.9283333333326 C 706.6002705848558 188.9283333333326 702.570833333333 184.89889608180974 702.570833333333 179.9283333333326 C 702.570833333333 174.95777058485547 706.6002705848558 170.9283333333326 711.570833333333 170.9283333333326 C 716.5413960818101 170.9283333333326 720.570833333333 174.95777058485547 720.570833333333 179.9283333333326 Z" stroke-opacity="1" stroke-linecap="round" stroke-linejoin="round" stroke-miterlimit="10"/><path fill="none" stroke="rgb(21,101,192)" paint-order="fill stroke markers" d=" M 663.8574806043061 223.6798578300784 L 671.3574806043061 228.00998484900057 L 671.3574806043061 219.3497308111562 L 663.8574806043061 223.6798578300784 Z" stroke-opacity="1" stroke-linecap="square" stroke-miterlimit="10" stroke-width="2.5"/><path fill="rgb(21,101,192)" stroke="none" paint-order="stroke fill markers" fill-rule="evenodd" d=" M 663.8574806043061 223.6798578300784 L 671.3574806043061 228.00998484900057 L 671.3574806043061 219.3497308111562 L 663.8574806043061 223.6798578300784 Z" fill-opacity="1"/><path fill="none" stroke="rgb(21,101,192)" paint-order="fill stroke markers" d=" M 712.1319189005467 122.60710419062232 L 716.4620459194689 130.10710419062232 L 707.8017918816245 130.10710419062232 L 712.1319189005467 122.60710419062232 Z" stroke-opacity="1" stroke-linecap="square" stroke-miterlimit="10" stroke-width="2.5"/><path fill="rgb(21,101,192)" stroke="none" paint-order="stroke fill markers" fill-rule="evenodd" d=" M 712.1319189005467 122.60710419062232 L 716.4620459194689 130.10710419062232 L 707.8017918816245 130.10710419062232 L 712.1319189005467 122.60710419062232 Z" fill-opacity="1"/><path fill="rgb(160,160,160)" stroke="none" paint-order="stroke fill markers" d=" M 388.9064583333338 346.3114583333305 C 388.9064583333338 351.28202108180767 384.87702108181094 355.3114583333305 379.9064583333338 355.3114583333305 C 374.9358955848566 355.3114583333305 370.9064583333338 351.28202108180767 370.9064583333338 346.3114583333305 C 370.9064583333338 341.34089558485334 374.9358955848566 337.3114583333305 379.9064583333338 337.3114583333305 C 384.87702108181094 337.3114583333305 388.9064583333338 341.34089558485334 388.9064583333338 346.3114583333305 Z" fill-opacity="1"/><path fill="none" stroke="rgb(0,0,0)" paint-order="fill stroke markers" d=" M 388.9064583333338 346.3114583333305 C 388.9064583333338 351.28202108180767 384.87702108181094 355.3114583333305 379.9064583333338 355.3114583333305 C 374.9358955848566 355.3114583333305 370.9064583333338 351.28202108180767 370.9064583333338 346.3114583333305 C 370.9064583333338 341.34089558485334 374.9358955848566 337.3114583333305 379.9064583333338 337.3114583333305 C 384.87702108181094 337.3114583333305 388.9064583333338 341.34089558485334 388.9064583333338 346.3114583333305 Z" stroke-opacity="1" stroke-linecap="round" stroke-linejoin="round" stroke-miterlimit="10"/><path fill="none" stroke="rgb(21,101,192)" paint-order="fill stroke markers" d=" M 429.936999571286 388.8884123884452 L 422.436999571286 393.2185394073674 L 422.436999571286 384.558285369523 L 429.936999571286 388.8884123884452 Z" stroke-opacity="1" stroke-linecap="square" stroke-miterlimit="10" stroke-width="2.5"/><path fill="rgb(21,101,192)" stroke="none" paint-order="stroke fill markers" fill-rule="evenodd" d=" M 429.936999571286 388.8884123884452 L 422.436999571286 393.2185394073674 L 422.436999571286 384.558285369523 L 429.936999571286 388.8884123884452 Z" fill-opacity="1"/><path fill="rgb(160,160,160)" stroke="none" paint-order="stroke fill markers" d=" M 720.570833333333 345.20958333333056 C 720.570833333333 350.1801460818077 716.5413960818101 354.20958333333056 711.570833333333 354.20958333333056 C 706.6002705848558 354.20958333333056 702.570833333333 350.1801460818077 702.570833333333 345.20958333333056 C 702.570833333333 340.2390205848534 706.6002705848558 336.20958333333056 711.570833333333 336.20958333333056 C 716.5413960818101 336.20958333333056 720.570833333333 340.2390205848534 720.570833333333 345.20958333333056 Z" fill-opacity="1"/><path fill="none" stroke="rgb(0,0,0)" paint-order="fill stroke markers" d=" M 720.570833333333 345.20958333333056 C 720.570833333333 350.1801460818077 716.5413960818101 354.20958333333056 711.570833333333 354.20958333333056 C 706.6002705848558 354.20958333333056 702.570833333333 350.1801460818077 702.570833333333 345.20958333333056 C 702.570833333333 340.2390205848534 706.6002705848558 336.20958333333056 711.570833333333 336.20958333333056 C 716.5413960818101 336.20958333333056 720.570833333333 340.2390205848534 720.570833333333 345.20958333333056 Z" stroke-opacity="1" stroke-linecap="round" stroke-linejoin="round" stroke-miterlimit="10"/><path fill="none" stroke="rgb(21,101,192)" paint-order="fill stroke markers" d=" M 712.131918900547 287.8883541906203 L 716.4620459194692 295.3883541906203 L 707.8017918816248 295.3883541906203 L 712.131918900547 287.8883541906203 Z" stroke-opacity="1" stroke-linecap="square" stroke-miterlimit="10" stroke-width="2.5"/><path fill="rgb(21,101,192)" stroke="none" paint-order="stroke fill markers" fill-rule="evenodd" d=" M 712.131918900547 287.8883541906203 L 716.4620459194692 295.3883541906203 L 707.8017918816248 295.3883541906203 L 712.131918900547 287.8883541906203 Z" fill-opacity="1"/><path fill="none" stroke="rgb(21,101,192)" paint-order="fill stroke markers" d=" M 761.6013745712854 387.7865373884455 L 754.1013745712854 392.1166644073677 L 754.1013745712854 383.45641036952327 L 761.6013745712854 387.7865373884455 Z" stroke-opacity="1" stroke-linecap="square" stroke-miterlimit="10" stroke-width="2.5"/><path fill="rgb(21,101,192)" stroke="none" paint-order="stroke fill markers" fill-rule="evenodd" d=" M 761.6013745712854 387.7865373884455 L 754.1013745712854 392.1166644073677 L 754.1013745712854 383.45641036952327 L 761.6013745712854 387.7865373884455 Z" fill-opacity="1"/><path fill="rgb(160,160,160)" stroke="none" paint-order="stroke fill markers" d=" M 390.0083333333338 509.3889583333286 C 390.0083333333338 514.3595210818057 385.97889608181094 518.3889583333287 381.0083333333338 518.3889583333287 C 376.0377705848566 518.3889583333287 372.0083333333338 514.3595210818057 372.0083333333338 509.3889583333286 C 372.0083333333338 504.41839558485145 376.0377705848566 500.3889583333286 381.0083333333338 500.3889583333286 C 385.97889608181094 500.3889583333286 390.0083333333338 504.41839558485145 390.0083333333338 509.3889583333286 Z" fill-opacity="1"/><path fill="none" stroke="rgb(0,0,0)" paint-order="fill stroke markers" d=" M 390.0083333333338 509.3889583333286 C 390.0083333333338 514.3595210818057 385.97889608181094 518.3889583333287 381.0083333333338 518.3889583333287 C 376.0377705848566 518.3889583333287 372.0083333333338 514.3595210818057 372.0083333333338 509.3889583333286 C 372.0083333333338 504.41839558485145 376.0377705848566 500.3889583333286 381.0083333333338 500.3889583333286 C 385.97889608181094 500.3889583333286 390.0083333333338 504.41839558485145 390.0083333333338 509.3889583333286 Z" stroke-opacity="1" stroke-linecap="round" stroke-linejoin="round" stroke-miterlimit="10"/><path fill="none" stroke="rgb(21,101,192)" paint-order="fill stroke markers" d=" M 333.2949806043064 553.140482830075 L 340.7949806043064 557.4706098489972 L 340.7949806043064 548.8103558111528 L 333.2949806043064 553.140482830075 Z" stroke-opacity="1" stroke-linecap="square" stroke-miterlimit="10" stroke-width="2.5"/><path fill="rgb(21,101,192)" stroke="none" paint-order="stroke fill markers" fill-rule="evenodd" d=" M 333.2949806043064 553.140482830075 L 340.7949806043064 557.4706098489972 L 340.7949806043064 548.8103558111528 L 333.2949806043064 553.140482830075 Z" fill-opacity="1"/><path fill="none" stroke="rgb(21,101,192)" paint-order="fill stroke markers" d=" M 431.00717539734774 551.9359404130851 L 423.50717539734774 556.2660674320073 L 423.50717539734774 547.6058133941629 L 431.00717539734774 551.9359404130851 Z" stroke-opacity="1" stroke-linecap="square" stroke-miterlimit="10" stroke-width="2.5"/><path fill="rgb(21,101,192)" stroke="none" paint-order="stroke fill markers" fill-rule="evenodd" d=" M 431.00717539734774 551.9359404130851 L 423.50717539734774 556.2660674320073 L 423.50717539734774 547.6058133941629 L 431.00717539734774 551.9359404130851 Z" fill-opacity="1"/><path fill="rgb(160,160,160)" stroke="none" paint-order="stroke fill markers" d=" M 720.570833333333 511.86817708332853 C 720.570833333333 516.8387398318057 716.5413960818101 520.8681770833285 711.570833333333 520.8681770833285 C 706.6002705848558 520.8681770833285 702.570833333333 516.8387398318057 702.570833333333 511.86817708332853 C 702.570833333333 506.89761433485137 706.6002705848558 502.86817708332853 711.570833333333 502.86817708332853 C 716.5413960818101 502.86817708332853 720.570833333333 506.89761433485137 720.570833333333 511.86817708332853 Z" fill-opacity="1"/><path fill="none" stroke="rgb(0,0,0)" paint-order="fill stroke markers" d=" M 720.570833333333 511.86817708332853 C 720.570833333333 516.8387398318057 716.5413960818101 520.8681770833285 711.570833333333 520.8681770833285 C 706.6002705848558 520.8681770833285 702.570833333333 516.8387398318057 702.570833333333 511.86817708332853 C 702.570833333333 506.89761433485137 706.6002705848558 502.86817708332853 711.570833333333 502.86817708332853 C 716.5413960818101 502.86817708332853 720.570833333333 506.89761433485137 720.570833333333 511.86817708332853 Z" stroke-opacity="1" stroke-linecap="round" stroke-linejoin="round" stroke-miterlimit="10"/><path fill="none" stroke="rgb(21,101,192)" paint-order="fill stroke markers" d=" M 663.8574806043061 555.6197015800733 L 671.3574806043061 559.9498285989955 L 671.3574806043061 551.2895745611511 L 663.8574806043061 555.6197015800733 Z" stroke-opacity="1" stroke-linecap="square" stroke-miterlimit="10" stroke-width="2.5"/><path fill="rgb(21,101,192)" stroke="none" paint-order="stroke fill markers" fill-rule="evenodd" d=" M 663.8574806043061 555.6197015800733 L 671.3574806043061 559.9498285989955 L 671.3574806043061 551.2895745611511 L 663.8574806043061 555.6197015800733 Z" fill-opacity="1"/><path fill="none" stroke="rgb(21,101,192)" paint-order="fill stroke markers" d=" M 761.5696753973469 554.4151591630839 L 754.0696753973469 558.7452861820061 L 754.0696753973469 550.0850321441617 L 761.5696753973469 554.4151591630839 Z" stroke-opacity="1" stroke-linecap="square" stroke-miterlimit="10" stroke-width="2.5"/><path fill="rgb(21,101,192)" stroke="none" paint-order="stroke fill markers" fill-rule="evenodd" d=" M 761.5696753973469 554.4151591630839 L 754.0696753973469 558.7452861820061 L 754.0696753973469 550.0850321441617 L 761.5696753973469 554.4151591630839 Z" fill-opacity="1"/><path fill="none" stroke="rgb(21,101,192)" paint-order="fill stroke markers" d=" M 712.134745946973 454.283325861359 L 716.4648729658952 461.783325861359 L 707.8046189280508 461.783325861359 L 712.134745946973 454.283325861359 Z" stroke-opacity="1" stroke-linecap="square" stroke-miterlimit="10" stroke-width="2.5"/><path fill="rgb(21,101,192)" stroke="none" paint-order="stroke fill markers" fill-rule="evenodd" d=" M 712.134745946973 454.283325861359 L 716.4648729658952 461.783325861359 L 707.8046189280508 461.783325861359 L 712.134745946973 454.283325861359 Z" fill-opacity="1"/><text fill="rgb(0,0,0)" stroke="none" font-family="geogebra-sans-serif, sans-serif" font-size="16px" font-style="normal" font-weight="normal" text-decoration="normal" x="340" y="-734" text-anchor="start" dominant-baseline="alphabetic" fill-opacity="1">AND vertex</text><text fill="rgb(0,0,0)" stroke="none" font-family="geogebra-sans-serif, sans-serif" font-size="16px" font-style="normal" font-weight="normal" text-decoration="normal" x="677" y="-733" text-anchor="start" dominant-baseline="alphabetic" fill-opacity="1">OR vertex</text></g></g></svg>