<svg version="1.1" xmlns="http://www.w3.org/2000/svg" xmlns:xlink="http://www.w3.org/1999/xlink" width="1220" height="703"><defs><clipPath id="SXEKooaimuuK"><path fill="none" stroke="none" d=" M 0 0 L 1220 0 L 1220 703 L 0 703 L 0 0 Z"/></clipPath></defs><g transform="scale(1,1)" clip-path="url(#SXEKooaimuuK)"><g><rect fill="rgb(255,255,255)" stroke="none" x="0" y="0" width="1220" height="703" fill-opacity="1"/><path fill="none" stroke="rgb(211,47,47)" paint-order="fill stroke markers" d=" M 384.9999999999996 330.25000000000006 L 384.9999999999996 405.25000000000006" stroke-opacity="0.8" stroke-linecap="round" stroke-linejoin="round" stroke-miterlimit="10" stroke-width="2.5"/><path fill="none" stroke="rgb(211,47,47)" paint-order="fill stroke markers" d=" M 384.9999999999996 405.25000000000006 L 384.9999999999996 480.25000000000006" stroke-opacity="0.8" stroke-linecap="round" stroke-linejoin="round" stroke-miterlimit="10" stroke-width="2.5"/><path fill="none" stroke="rgb(211,47,47)" paint-order="fill stroke markers" d=" M 384.9999999999996 480.25000000000006 L 384.9999999999996 555.25" stroke-opacity="0.8" stroke-linecap="round" stroke-linejoin="round" stroke-miterlimit="10" stroke-width="2.5"/><path fill="none" stroke="rgb(211,47,47)" paint-order="fill stroke markers" d=" M 384.9999999999996 330.25000000000006 L 459.99999999999955 330.25000000000006" stroke-opacity="0.8" stroke-linecap="round" stroke-linejoin="round" stroke-miterlimit="10" stroke-width="2.5"/><path fill="none" stroke="rgb(21,101,192)" paint-order="fill stroke markers" d=" M 384.9999999999996 405.25000000000006 L 459 440" stroke-opacity="0.8" stroke-linecap="round" stroke-linejoin="round" stroke-miterlimit="10" stroke-width="2.5"/><path fill="none" stroke="rgb(21,101,192)" paint-order="fill stroke markers" d=" M 459 440 L 384.9999999999996 480.25000000000006" stroke-opacity="0.8" stroke-linecap="round" stroke-linejoin="round" stroke-miterlimit="10" stroke-width="2.5"/><path fill="none" stroke="rgb(21,101,192)" paint-order="fill stroke markers" d=" M 459 440 L 758 437" stroke-opacity="0.8" stroke-linecap="round" stroke-linejoin="round" stroke-miterlimit="10" stroke-width="2.5"/><path fill="none" stroke="rgb(211,47,47)" paint-order="fill stroke markers" d=" M 684.9999999999992 555.25 L 759.9999999999991 555.25" stroke-opacity="0.8" stroke-linecap="round" stroke-linejoin="round" stroke-miterlimit="10" stroke-width="2.5"/><path fill="none" stroke="rgb(211,47,47)" paint-order="fill stroke markers" d=" M 459.99999999999955 255.25000000000009 L 459.99999999999955 330.25000000000006" stroke-opacity="0.8" stroke-linecap="round" stroke-linejoin="round" stroke-miterlimit="10" stroke-width="2.5"/><path fill="none" stroke="rgb(21,101,192)" paint-order="fill stroke markers" d=" M 459.99999999999955 180.2500000000001 L 459.99999999999955 255.25000000000009" stroke-opacity="0.8" stroke-linecap="round" stroke-linejoin="round" stroke-miterlimit="10" stroke-width="2.5"/><path fill="none" stroke="rgb(21,101,192)" paint-order="fill stroke markers" d=" M 459.99999999999955 180.2500000000001 L 534 145.0000000000001" stroke-opacity="0.8" stroke-linecap="round" stroke-linejoin="round" stroke-miterlimit="10" stroke-width="2.5"/><path fill="none" stroke="rgb(21,101,192)" paint-order="fill stroke markers" d=" M 459.99999999999955 180.2500000000001 L 534.9999999999994 215" stroke-opacity="0.8" stroke-linecap="round" stroke-linejoin="round" stroke-miterlimit="10" stroke-width="2.5"/><path fill="none" stroke="rgb(211,47,47)" paint-order="fill stroke markers" d=" M 534 145.0000000000001 L 534.9999999999994 215" stroke-opacity="0.8" stroke-linecap="round" stroke-linejoin="round" stroke-miterlimit="10" stroke-width="2.5"/><path fill="none" stroke="rgb(211,47,47)" paint-order="fill stroke markers" d=" M 534 145.0000000000001 L 611 145.0000000000001" stroke-opacity="0.8" stroke-linecap="round" stroke-linejoin="round" stroke-miterlimit="10" stroke-width="2.5"/><path fill="none" stroke="rgb(211,47,47)" paint-order="fill stroke markers" d=" M 534.9999999999994 215 L 609.9999999999993 217.0000000000001" stroke-opacity="0.8" stroke-linecap="round" stroke-linejoin="round" stroke-miterlimit="10" stroke-width="2.5"/><path fill="none" stroke="rgb(21,101,192)" paint-order="fill stroke markers" d=" M 609.9999999999993 217.0000000000001 L 686 218" stroke-opacity="0.8" stroke-linecap="round" stroke-linejoin="round" stroke-miterlimit="10" stroke-width="2.5"/><path fill="none" stroke="rgb(21,101,192)" paint-order="fill stroke markers" d=" M 611 145.0000000000001 L 759.9999999999991 144" stroke-opacity="0.8" stroke-linecap="round" stroke-linejoin="round" stroke-miterlimit="10" stroke-width="2.5"/><path fill="none" stroke="rgb(21,101,192)" paint-order="fill stroke markers" d=" M 534.9999999999994 555.25 L 684.9999999999992 555.25" stroke-opacity="0.8" stroke-linecap="round" stroke-linejoin="round" stroke-miterlimit="10" stroke-width="2.5"/><path fill="none" stroke="rgb(211,47,47)" paint-order="fill stroke markers" d=" M 684.9999999999992 555.25 L 686 89" stroke-opacity="0.8" stroke-linecap="round" stroke-linejoin="round" stroke-miterlimit="10" stroke-width="2.5"/><path fill="none" stroke="rgb(211,47,47)" paint-order="fill stroke markers" d=" M 759.9999999999991 555.25 L 759 88.00000000000006" stroke-opacity="0.8" stroke-linecap="round" stroke-linejoin="round" stroke-miterlimit="10" stroke-width="2.5"/><path fill="none" stroke="rgb(211,47,47)" paint-order="fill stroke markers" d=" M 384.9999999999996 555.25 L 534.9999999999994 555.25" stroke-opacity="0.8" stroke-linecap="round" stroke-linejoin="round" stroke-miterlimit="10" stroke-width="2.5"/><path fill="none" stroke="rgb(21,101,192)" paint-order="fill stroke markers" d=" M 759.9999999999991 555.25 L 909.9999999999989 555.25" stroke-opacity="0.8" stroke-linecap="round" stroke-linejoin="round" stroke-miterlimit="10" stroke-width="2.5"/><path fill="none" stroke="rgb(21,101,192)" paint-order="fill stroke markers" d=" M 234.99999999999983 555.25 L 384.9999999999996 555.25" stroke-opacity="0.8" stroke-linecap="round" stroke-linejoin="round" stroke-miterlimit="10" stroke-width="2.5"/><path fill="none" stroke="rgb(21,101,192)" paint-order="fill stroke markers" d=" M 384.9999999999996 330.25000000000006 L 234.99999999999983 330.25000000000006" stroke-opacity="0.8" stroke-linecap="round" stroke-linejoin="round" stroke-miterlimit="10" stroke-width="2.5"/><path fill="none" stroke="rgb(21,101,192)" paint-order="fill stroke markers" d=" M 459.99999999999955 330.25000000000006 L 909.9999999999989 330.25000000000006" stroke-opacity="0.8" stroke-linecap="round" stroke-linejoin="round" stroke-miterlimit="10" stroke-width="2.5"/><path fill="rgb(160,160,160)" stroke="none" paint-order="stroke fill markers" d=" M 393.9999999999996 555.25 C 393.9999999999996 560.2205627484772 389.97056274847677 564.25 384.9999999999996 564.25 C 380.02943725152244 564.25 375.9999999999996 560.2205627484772 375.9999999999996 555.25 C 375.9999999999996 550.2794372515228 380.02943725152244 546.25 384.9999999999996 546.25 C 389.97056274847677 546.25 393.9999999999996 550.2794372515228 393.9999999999996 555.25 Z" fill-opacity="1"/><path fill="none" stroke="rgb(0,0,0)" paint-order="fill stroke markers" d=" M 393.9999999999996 555.25 C 393.9999999999996 560.2205627484772 389.97056274847677 564.25 384.9999999999996 564.25 C 380.02943725152244 564.25 375.9999999999996 560.2205627484772 375.9999999999996 555.25 C 375.9999999999996 550.2794372515228 380.02943725152244 546.25 384.9999999999996 546.25 C 389.97056274847677 546.25 393.9999999999996 550.2794372515228 393.9999999999996 555.25 Z" stroke-opacity="1" stroke-linecap="round" stroke-linejoin="round" stroke-miterlimit="10"/><path fill="rgb(160,160,160)" stroke="none" paint-order="stroke fill markers" d=" M 393.9999999999996 480.25000000000006 C 393.9999999999996 485.2205627484772 389.97056274847677 489.25000000000006 384.9999999999996 489.25000000000006 C 380.02943725152244 489.25000000000006 375.9999999999996 485.2205627484772 375.9999999999996 480.25000000000006 C 375.9999999999996 475.2794372515229 380.02943725152244 471.25000000000006 384.9999999999996 471.25000000000006 C 389.97056274847677 471.25000000000006 393.9999999999996 475.2794372515229 393.9999999999996 480.25000000000006 Z" fill-opacity="1"/><path fill="none" stroke="rgb(0,0,0)" paint-order="fill stroke markers" d=" M 393.9999999999996 480.25000000000006 C 393.9999999999996 485.2205627484772 389.97056274847677 489.25000000000006 384.9999999999996 489.25000000000006 C 380.02943725152244 489.25000000000006 375.9999999999996 485.2205627484772 375.9999999999996 480.25000000000006 C 375.9999999999996 475.2794372515229 380.02943725152244 471.25000000000006 384.9999999999996 471.25000000000006 C 389.97056274847677 471.25000000000006 393.9999999999996 475.2794372515229 393.9999999999996 480.25000000000006 Z" stroke-opacity="1" stroke-linecap="round" stroke-linejoin="round" stroke-miterlimit="10"/><path fill="rgb(160,160,160)" stroke="none" paint-order="stroke fill markers" d=" M 393.9999999999996 405.25000000000006 C 393.9999999999996 410.2205627484772 389.97056274847677 414.25000000000006 384.9999999999996 414.25000000000006 C 380.02943725152244 414.25000000000006 375.9999999999996 410.2205627484772 375.9999999999996 405.25000000000006 C 375.9999999999996 400.2794372515229 380.02943725152244 396.25000000000006 384.9999999999996 396.25000000000006 C 389.97056274847677 396.25000000000006 393.9999999999996 400.2794372515229 393.9999999999996 405.25000000000006 Z" fill-opacity="1"/><path fill="none" stroke="rgb(0,0,0)" paint-order="fill stroke markers" d=" M 393.9999999999996 405.25000000000006 C 393.9999999999996 410.2205627484772 389.97056274847677 414.25000000000006 384.9999999999996 414.25000000000006 C 380.02943725152244 414.25000000000006 375.9999999999996 410.2205627484772 375.9999999999996 405.25000000000006 C 375.9999999999996 400.2794372515229 380.02943725152244 396.25000000000006 384.9999999999996 396.25000000000006 C 389.97056274847677 396.25000000000006 393.9999999999996 400.2794372515229 393.9999999999996 405.25000000000006 Z" stroke-opacity="1" stroke-linecap="round" stroke-linejoin="round" stroke-miterlimit="10"/><path fill="rgb(160,160,160)" stroke="none" paint-order="stroke fill markers" d=" M 393.9999999999996 330.25000000000006 C 393.9999999999996 335.2205627484772 389.97056274847677 339.25000000000006 384.9999999999996 339.25000000000006 C 380.02943725152244 339.25000000000006 375.9999999999996 335.2205627484772 375.9999999999996 330.25000000000006 C 375.9999999999996 325.2794372515229 380.02943725152244 321.25000000000006 384.9999999999996 321.25000000000006 C 389.97056274847677 321.25000000000006 393.9999999999996 325.2794372515229 393.9999999999996 330.25000000000006 Z" fill-opacity="1"/><path fill="none" stroke="rgb(0,0,0)" paint-order="fill stroke markers" d=" M 393.9999999999996 330.25000000000006 C 393.9999999999996 335.2205627484772 389.97056274847677 339.25000000000006 384.9999999999996 339.25000000000006 C 380.02943725152244 339.25000000000006 375.9999999999996 335.2205627484772 375.9999999999996 330.25000000000006 C 375.9999999999996 325.2794372515229 380.02943725152244 321.25000000000006 384.9999999999996 321.25000000000006 C 389.97056274847677 321.25000000000006 393.9999999999996 325.2794372515229 393.9999999999996 330.25000000000006 Z" stroke-opacity="1" stroke-linecap="round" stroke-linejoin="round" stroke-miterlimit="10"/><path fill="rgb(160,160,160)" stroke="none" paint-order="stroke fill markers" d=" M 693.9999999999992 555.25 C 693.9999999999992 560.2205627484772 689.9705627484764 564.25 684.9999999999992 564.25 C 680.029437251522 564.25 675.9999999999992 560.2205627484772 675.9999999999992 555.25 C 675.9999999999992 550.2794372515228 680.029437251522 546.25 684.9999999999992 546.25 C 689.9705627484764 546.25 693.9999999999992 550.2794372515228 693.9999999999992 555.25 Z" fill-opacity="1"/><path fill="none" stroke="rgb(0,0,0)" paint-order="fill stroke markers" d=" M 693.9999999999992 555.25 C 693.9999999999992 560.2205627484772 689.9705627484764 564.25 684.9999999999992 564.25 C 680.029437251522 564.25 675.9999999999992 560.2205627484772 675.9999999999992 555.25 C 675.9999999999992 550.2794372515228 680.029437251522 546.25 684.9999999999992 546.25 C 689.9705627484764 546.25 693.9999999999992 550.2794372515228 693.9999999999992 555.25 Z" stroke-opacity="1" stroke-linecap="round" stroke-linejoin="round" stroke-miterlimit="10"/><path fill="rgb(160,160,160)" stroke="none" paint-order="stroke fill markers" d=" M 768.9999999999991 555.25 C 768.9999999999991 560.2205627484772 764.9705627484763 564.25 759.9999999999991 564.25 C 755.0294372515219 564.25 750.9999999999991 560.2205627484772 750.9999999999991 555.25 C 750.9999999999991 550.2794372515228 755.0294372515219 546.25 759.9999999999991 546.25 C 764.9705627484763 546.25 768.9999999999991 550.2794372515228 768.9999999999991 555.25 Z" fill-opacity="1"/><path fill="none" stroke="rgb(0,0,0)" paint-order="fill stroke markers" d=" M 768.9999999999991 555.25 C 768.9999999999991 560.2205627484772 764.9705627484763 564.25 759.9999999999991 564.25 C 755.0294372515219 564.25 750.9999999999991 560.2205627484772 750.9999999999991 555.25 C 750.9999999999991 550.2794372515228 755.0294372515219 546.25 759.9999999999991 546.25 C 764.9705627484763 546.25 768.9999999999991 550.2794372515228 768.9999999999991 555.25 Z" stroke-opacity="1" stroke-linecap="round" stroke-linejoin="round" stroke-miterlimit="10"/><path fill="rgb(160,160,160)" stroke="none" paint-order="stroke fill markers" d=" M 468 440 C 468 444.97056274847716 463.97056274847716 449 459 449 C 454.02943725152284 449 450 444.97056274847716 450 440 C 450 435.02943725152284 454.02943725152284 431 459 431 C 463.97056274847716 431 468 435.02943725152284 468 440 Z" fill-opacity="1"/><path fill="none" stroke="rgb(0,0,0)" paint-order="fill stroke markers" d=" M 468 440 C 468 444.97056274847716 463.97056274847716 449 459 449 C 454.02943725152284 449 450 444.97056274847716 450 440 C 450 435.02943725152284 454.02943725152284 431 459 431 C 463.97056274847716 431 468 435.02943725152284 468 440 Z" stroke-opacity="1" stroke-linecap="round" stroke-linejoin="round" stroke-miterlimit="10"/><path fill="rgb(160,160,160)" stroke="none" paint-order="stroke fill markers" d=" M 468.99999999999955 330.25000000000006 C 468.99999999999955 335.2205627484772 464.9705627484767 339.25000000000006 459.99999999999955 339.25000000000006 C 455.0294372515224 339.25000000000006 450.99999999999955 335.2205627484772 450.99999999999955 330.25000000000006 C 450.99999999999955 325.2794372515229 455.0294372515224 321.25000000000006 459.99999999999955 321.25000000000006 C 464.9705627484767 321.25000000000006 468.99999999999955 325.2794372515229 468.99999999999955 330.25000000000006 Z" fill-opacity="1"/><path fill="none" stroke="rgb(0,0,0)" paint-order="fill stroke markers" d=" M 468.99999999999955 330.25000000000006 C 468.99999999999955 335.2205627484772 464.9705627484767 339.25000000000006 459.99999999999955 339.25000000000006 C 455.0294372515224 339.25000000000006 450.99999999999955 335.2205627484772 450.99999999999955 330.25000000000006 C 450.99999999999955 325.2794372515229 455.0294372515224 321.25000000000006 459.99999999999955 321.25000000000006 C 464.9705627484767 321.25000000000006 468.99999999999955 325.2794372515229 468.99999999999955 330.25000000000006 Z" stroke-opacity="1" stroke-linecap="round" stroke-linejoin="round" stroke-miterlimit="10"/><path fill="rgb(160,160,160)" stroke="none" paint-order="stroke fill markers" d=" M 468.99999999999955 180.2500000000001 C 468.99999999999955 185.22056274847725 464.9705627484767 189.2500000000001 459.99999999999955 189.2500000000001 C 455.0294372515224 189.2500000000001 450.99999999999955 185.22056274847725 450.99999999999955 180.2500000000001 C 450.99999999999955 175.27943725152298 455.0294372515224 171.2500000000001 459.99999999999955 171.2500000000001 C 464.9705627484767 171.2500000000001 468.99999999999955 175.27943725152298 468.99999999999955 180.2500000000001 Z" fill-opacity="1"/><path fill="none" stroke="rgb(0,0,0)" paint-order="fill stroke markers" d=" M 468.99999999999955 180.2500000000001 C 468.99999999999955 185.22056274847725 464.9705627484767 189.2500000000001 459.99999999999955 189.2500000000001 C 455.0294372515224 189.2500000000001 450.99999999999955 185.22056274847725 450.99999999999955 180.2500000000001 C 450.99999999999955 175.27943725152298 455.0294372515224 171.2500000000001 459.99999999999955 171.2500000000001 C 464.9705627484767 171.2500000000001 468.99999999999955 175.27943725152298 468.99999999999955 180.2500000000001 Z" stroke-opacity="1" stroke-linecap="round" stroke-linejoin="round" stroke-miterlimit="10"/><path fill="rgb(160,160,160)" stroke="none" paint-order="stroke fill markers" d=" M 543 145.0000000000001 C 543 149.97056274847725 538.9705627484772 154.0000000000001 534 154.0000000000001 C 529.0294372515228 154.0000000000001 525 149.97056274847725 525 145.0000000000001 C 525 140.02943725152298 529.0294372515228 136.0000000000001 534 136.0000000000001 C 538.9705627484772 136.0000000000001 543 140.02943725152298 543 145.0000000000001 Z" fill-opacity="1"/><path fill="none" stroke="rgb(0,0,0)" paint-order="fill stroke markers" d=" M 543 145.0000000000001 C 543 149.97056274847725 538.9705627484772 154.0000000000001 534 154.0000000000001 C 529.0294372515228 154.0000000000001 525 149.97056274847725 525 145.0000000000001 C 525 140.02943725152298 529.0294372515228 136.0000000000001 534 136.0000000000001 C 538.9705627484772 136.0000000000001 543 140.02943725152298 543 145.0000000000001 Z" stroke-opacity="1" stroke-linecap="round" stroke-linejoin="round" stroke-miterlimit="10"/><path fill="rgb(160,160,160)" stroke="none" paint-order="stroke fill markers" d=" M 543.9999999999994 215 C 543.9999999999994 219.97056274847714 539.9705627484766 224 534.9999999999994 224 C 530.0294372515223 224 525.9999999999994 219.97056274847714 525.9999999999994 215 C 525.9999999999994 210.02943725152286 530.0294372515223 206 534.9999999999994 206 C 539.9705627484766 206 543.9999999999994 210.02943725152286 543.9999999999994 215 Z" fill-opacity="1"/><path fill="none" stroke="rgb(0,0,0)" paint-order="fill stroke markers" d=" M 543.9999999999994 215 C 543.9999999999994 219.97056274847714 539.9705627484766 224 534.9999999999994 224 C 530.0294372515223 224 525.9999999999994 219.97056274847714 525.9999999999994 215 C 525.9999999999994 210.02943725152286 530.0294372515223 206 534.9999999999994 206 C 539.9705627484766 206 543.9999999999994 210.02943725152286 543.9999999999994 215 Z" stroke-opacity="1" stroke-linecap="round" stroke-linejoin="round" stroke-miterlimit="10"/><path fill="rgb(160,160,160)" stroke="none" paint-order="stroke fill markers" d=" M 695 218 C 695 222.97056274847714 690.9705627484772 227 686 227 C 681.0294372515228 227 677 222.97056274847714 677 218 C 677 213.02943725152286 681.0294372515228 209 686 209 C 690.9705627484772 209 695 213.02943725152286 695 218 Z" fill-opacity="1"/><path fill="none" stroke="rgb(0,0,0)" paint-order="fill stroke markers" d=" M 695 218 C 695 222.97056274847714 690.9705627484772 227 686 227 C 681.0294372515228 227 677 222.97056274847714 677 218 C 677 213.02943725152286 681.0294372515228 209 686 209 C 690.9705627484772 209 695 213.02943725152286 695 218 Z" stroke-opacity="1" stroke-linecap="round" stroke-linejoin="round" stroke-miterlimit="10"/><path fill="rgb(128,128,128)" stroke="none" paint-order="stroke fill markers" d=" M 767 437 C 767 441.97056274847716 762.9705627484772 446 758 446 C 753.0294372515228 446 749 441.97056274847716 749 437 C 749 432.02943725152284 753.0294372515228 428 758 428 C 762.9705627484772 428 767 432.02943725152284 767 437 Z" fill-opacity="1"/><path fill="none" stroke="rgb(0,0,0)" paint-order="fill stroke markers" d=" M 767 437 C 767 441.97056274847716 762.9705627484772 446 758 446 C 753.0294372515228 446 749 441.97056274847716 749 437 C 749 432.02943725152284 753.0294372515228 428 758 428 C 762.9705627484772 428 767 432.02943725152284 767 437 Z" stroke-opacity="1" stroke-linecap="round" stroke-linejoin="round" stroke-miterlimit="10"/><path fill="rgb(160,160,160)" stroke="none" paint-order="stroke fill markers" d=" M 768.9999999999991 144 C 768.9999999999991 148.97056274847714 764.9705627484763 153 759.9999999999991 153 C 755.0294372515219 153 750.9999999999991 148.97056274847714 750.9999999999991 144 C 750.9999999999991 139.02943725152286 755.0294372515219 135 759.9999999999991 135 C 764.9705627484763 135 768.9999999999991 139.02943725152286 768.9999999999991 144 Z" fill-opacity="1"/><path fill="none" stroke="rgb(0,0,0)" paint-order="fill stroke markers" d=" M 768.9999999999991 144 C 768.9999999999991 148.97056274847714 764.9705627484763 153 759.9999999999991 153 C 755.0294372515219 153 750.9999999999991 148.97056274847714 750.9999999999991 144 C 750.9999999999991 139.02943725152286 755.0294372515219 135 759.9999999999991 135 C 764.9705627484763 135 768.9999999999991 139.02943725152286 768.9999999999991 144 Z" stroke-opacity="1" stroke-linecap="round" stroke-linejoin="round" stroke-miterlimit="10"/><path fill="rgb(160,160,160)" stroke="none" paint-order="stroke fill markers" d=" M 464.99999999999955 255.25000000000009 C 464.99999999999955 258.01142374915406 462.7614237491535 260.2500000000001 459.99999999999955 260.2500000000001 C 457.2385762508456 260.2500000000001 454.99999999999955 258.01142374915406 454.99999999999955 255.25000000000009 C 454.99999999999955 252.4885762508461 457.2385762508456 250.25000000000009 459.99999999999955 250.25000000000009 C 462.7614237491535 250.25000000000009 464.99999999999955 252.4885762508461 464.99999999999955 255.25000000000009 Z" fill-opacity="1"/><path fill="none" stroke="rgb(0,0,0)" paint-order="fill stroke markers" d=" M 464.99999999999955 255.25000000000009 C 464.99999999999955 258.01142374915406 462.7614237491535 260.2500000000001 459.99999999999955 260.2500000000001 C 457.2385762508456 260.2500000000001 454.99999999999955 258.01142374915406 454.99999999999955 255.25000000000009 C 454.99999999999955 252.4885762508461 457.2385762508456 250.25000000000009 459.99999999999955 250.25000000000009 C 462.7614237491535 250.25000000000009 464.99999999999955 252.4885762508461 464.99999999999955 255.25000000000009 Z" stroke-opacity="1" stroke-linecap="round" stroke-linejoin="round" stroke-miterlimit="10"/><path fill="rgb(160,160,160)" stroke="none" paint-order="stroke fill markers" d=" M 539.9999999999994 555.25 C 539.9999999999994 558.011423749154 537.7614237491534 560.25 534.9999999999994 560.25 C 532.2385762508454 560.25 529.9999999999994 558.011423749154 529.9999999999994 555.25 C 529.9999999999994 552.488576250846 532.2385762508454 550.25 534.9999999999994 550.25 C 537.7614237491534 550.25 539.9999999999994 552.488576250846 539.9999999999994 555.25 Z" fill-opacity="1"/><path fill="none" stroke="rgb(0,0,0)" paint-order="fill stroke markers" d=" M 539.9999999999994 555.25 C 539.9999999999994 558.011423749154 537.7614237491534 560.25 534.9999999999994 560.25 C 532.2385762508454 560.25 529.9999999999994 558.011423749154 529.9999999999994 555.25 C 529.9999999999994 552.488576250846 532.2385762508454 550.25 534.9999999999994 550.25 C 537.7614237491534 550.25 539.9999999999994 552.488576250846 539.9999999999994 555.25 Z" stroke-opacity="1" stroke-linecap="round" stroke-linejoin="round" stroke-miterlimit="10"/><path fill="rgb(160,160,160)" stroke="none" paint-order="stroke fill markers" d=" M 614.9999999999993 217.0000000000001 C 614.9999999999993 219.7614237491541 612.7614237491533 222.0000000000001 609.9999999999993 222.0000000000001 C 607.2385762508453 222.0000000000001 604.9999999999993 219.7614237491541 604.9999999999993 217.0000000000001 C 604.9999999999993 214.23857625084614 607.2385762508453 212.0000000000001 609.9999999999993 212.0000000000001 C 612.7614237491533 212.0000000000001 614.9999999999993 214.23857625084614 614.9999999999993 217.0000000000001 Z" fill-opacity="1"/><path fill="none" stroke="rgb(0,0,0)" paint-order="fill stroke markers" d=" M 614.9999999999993 217.0000000000001 C 614.9999999999993 219.7614237491541 612.7614237491533 222.0000000000001 609.9999999999993 222.0000000000001 C 607.2385762508453 222.0000000000001 604.9999999999993 219.7614237491541 604.9999999999993 217.0000000000001 C 604.9999999999993 214.23857625084614 607.2385762508453 212.0000000000001 609.9999999999993 212.0000000000001 C 612.7614237491533 212.0000000000001 614.9999999999993 214.23857625084614 614.9999999999993 217.0000000000001 Z" stroke-opacity="1" stroke-linecap="round" stroke-linejoin="round" stroke-miterlimit="10"/><path fill="rgb(160,160,160)" stroke="none" paint-order="stroke fill markers" d=" M 616 145.0000000000001 C 616 147.7614237491541 613.761423749154 150.0000000000001 611 150.0000000000001 C 608.238576250846 150.0000000000001 606 147.7614237491541 606 145.0000000000001 C 606 142.23857625084614 608.238576250846 140.0000000000001 611 140.0000000000001 C 613.761423749154 140.0000000000001 616 142.23857625084614 616 145.0000000000001 Z" fill-opacity="1"/><path fill="none" stroke="rgb(0,0,0)" paint-order="fill stroke markers" d=" M 616 145.0000000000001 C 616 147.7614237491541 613.761423749154 150.0000000000001 611 150.0000000000001 C 608.238576250846 150.0000000000001 606 147.7614237491541 606 145.0000000000001 C 606 142.23857625084614 608.238576250846 140.0000000000001 611 140.0000000000001 C 613.761423749154 140.0000000000001 616 142.23857625084614 616 145.0000000000001 Z" stroke-opacity="1" stroke-linecap="round" stroke-linejoin="round" stroke-miterlimit="10"/><text fill="rgb(0,0,0)" stroke="none" font-family="geogebra-sans-serif, sans-serif" font-size="16px" font-style="normal" font-weight="bold" text-decoration="normal" x="239" y="316" text-anchor="start" dominant-baseline="alphabetic" fill-opacity="1">try in&#160;</text><text fill="rgb(0,0,0)" stroke="none" font-family="geogebra-sans-serif, sans-serif" font-size="16px" font-style="normal" font-weight="bold" text-decoration="normal" x="851" y="315" text-anchor="start" dominant-baseline="alphabetic" fill-opacity="1">try out</text><text fill="rgb(0,0,0)" stroke="none" font-family="geogebra-sans-serif, sans-serif" font-size="16px" font-style="normal" font-weight="bold" text-decoration="normal" x="237" y="540" text-anchor="start" dominant-baseline="alphabetic" fill-opacity="1">satisfied out</text><text fill="rgb(0,0,0)" stroke="none" font-family="geogebra-sans-serif, sans-serif" font-size="16px" font-style="normal" font-weight="bold" text-decoration="normal" x="824" y="540" text-anchor="start" dominant-baseline="alphabetic" fill-opacity="1">satisfied in</text><g transform="scale(19,19)"><g transform="translate(35.05263157894737,6.760234473684211)"><path fill="rgb(0,0,0)" stroke="none" paint-order="stroke fill markers" d=" M 0.26 -0.229 L 0.46 0 L 0.377 0 L 0.227 -0.188 L 0.082 0 L 0 0 L 0.194 -0.229 L 0.006 -0.444 L 0.089 -0.444 L 0.227 -0.279 L 0.361 -0.444 L 0.443 -0.444 L 0.26 -0.229 Z"/></g></g><g transform="scale(19,19)"><g transform="translate(38.21052631578947,6.904239210526316)"><path fill="rgb(0,0,0)" stroke="none" paint-order="stroke fill markers" d=" M 0.61 -0.323 L 0.61 -0.122 Q 0.605 -0.092 0.59 -0.089 Q 0.5700000000000001 -0.089 0.5700000000000001 -0.122 L 0.5700000000000001 -0.316 L 0.089 -0.316 Q 0.057 -0.316 0.056 -0.336 Q 0.056 -0.356 0.089 -0.356 L 0.577 -0.356 Q 0.604 -0.356 0.608 -0.34400000000000003 L 0.608 -0.34400000000000003 Q 0.61 -0.338 0.61 -0.323 Z"/></g><g transform="translate(38.87719531578947,6.904239210526316)"><path fill="rgb(0,0,0)" stroke="none" paint-order="stroke fill markers" d=" M 0.334 -0.302 L 0.3 -0.165 Q 0.28300000000000003 -0.097 0.28300000000000003 -0.077 Q 0.28300000000000003 -0.025 0.32 -0.014 Q 0.328 -0.011 0.338 -0.011 Q 0.388 -0.011 0.429 -0.061 Q 0.456 -0.093 0.47100000000000003 -0.14200000000000002 Q 0.47400000000000003 -0.153 0.484 -0.153 Q 0.496 -0.153 0.496 -0.14300000000000002 Q 0.496 -0.11800000000000001 0.465 -0.07100000000000001 Q 0.41100000000000003 0.011 0.336 0.011 Q 0.268 0.011 0.23700000000000002 -0.046 Q 0.231 -0.055 0.228 -0.065 Q 0.20400000000000001 -0.017 0.162 0.002 Q 0.14300000000000002 0.011 0.123 0.011 Q 0.063 0.011 0.039 -0.024 Q 0.029 -0.037 0.029 -0.055 Q 0.029 -0.092 0.061 -0.107 Q 0.07200000000000001 -0.113 0.084 -0.113 Q 0.114 -0.113 0.12 -0.088 Q 0.121 -0.083 0.121 -0.078 Q 0.121 -0.044 0.08700000000000001 -0.028 Q 0.081 -0.025 0.074 -0.024 Q 0.095 -0.011 0.124 -0.011 Q 0.177 -0.011 0.20800000000000002 -0.082 Q 0.214 -0.097 0.219 -0.115 Q 0.273 -0.319 0.273 -0.353 Q 0.267 -0.41500000000000004 0.219 -0.42 Q 0.167 -0.42 0.124 -0.367 L 0.124 -0.366 Q 0.124 -0.365 0.123 -0.365 Q 0.108 -0.34500000000000003 0.096 -0.319 Q 0.091 -0.307 0.08700000000000001 -0.295 L 0.085 -0.289 Q 0.083 -0.278 0.07200000000000001 -0.278 Q 0.06 -0.278 0.06 -0.28800000000000003 Q 0.06 -0.313 0.092 -0.36 Q 0.146 -0.442 0.221 -0.442 Q 0.298 -0.442 0.329 -0.366 Q 0.361 -0.428 0.41400000000000003 -0.44 Q 0.424 -0.442 0.434 -0.442 Q 0.493 -0.442 0.517 -0.40900000000000003 Q 0.527 -0.395 0.527 -0.376 Q 0.527 -0.335 0.49 -0.321 Q 0.481 -0.318 0.47300000000000003 -0.318 Q 0.442 -0.318 0.436 -0.34500000000000003 Q 0.435 -0.34900000000000003 0.435 -0.353 Q 0.435 -0.383 0.464 -0.4 Q 0.47300000000000003 -0.405 0.483 -0.40700000000000003 Q 0.462 -0.42 0.433 -0.42 Q 0.365 -0.42 0.337 -0.314 Q 0.335 -0.308 0.334 -0.302 Z"/></g></g></g></g></svg>